<svg xmlns="http://www.w3.org/2000/svg" width="47" height="32" viewBox="0 0 47 32">
  <g fill="none" fill-rule="evenodd">
    <path fill="#FFCE31" d="M31.872 10.982l10.575-1.237-10.28 3.71"/>
    <path fill="#B2C1C0" d="M32.606 10.545s-3.82-.145-6.83 2.328V16s3.82 0 6.83-2.327c.367-.29.735-.728.735-1.528 0-.872-.29-1.6-.73-1.6"/>
    <path fill="#42ADE2" d="M6.83 10.982l6.022 11.854 9.62-3.054-12.63-9.673"/>
    <path fill="#428BC1" d="M9.84 5.527v4.582l-3.01.87 1.542-4.51"/>
    <ellipse cx="25.777" cy="14.618" fill="#3E4347" rx=".734" ry="1.818"/>
    <path fill="#DAE3EA" d="M37.16 5.527l-4.187 7.128s-17.11 4.727-23.132 6.763c-6.02 2.11-3.96 4.146-8.293 8.364C-3.45 32.51 3.527 32.8 26.44 23.71c2.056-.8 3.084-4.147 6.39-6.256 3.524-2.255 6.61-3.2 6.61-3.2L41.713 3.78 37.16 5.527"/>
    <path fill="#42ADE2" d="M37.894.073l-3.01.945 2.276 4.727 6.756 1.6L47 5.235 41.713 3.71m-26.07 22.835l28.346 5.382 3.01-2.11-19.68-8.362"/>
    <path fill="#428BC1" d="M47 24.655v5.163l-3.01 2.11 1.54-6.328"/>
    <path fill="#3E4347" d="M6.022 21.6c-.88.873-1.322 1.89-2.056 3.127.66.8 1.69 1.237 2.864 1.237 2.13 0 3.818-1.6 3.818-3.637H8.372c-.955.073-1.763-.29-2.35-.727"/>
    <path fill="#DAE3EA" d="M7.638 28.582l-.735.145c-.44-4.727.808-7.2.88-7.272l.59.727-.295-.364.294.364c-.074 0-1.175 2.182-.734 6.4"/>
    <g fill="#3E4347" transform="translate(14.688 18.91)">
      <ellipse cx="1.248" cy="3.491" rx=".734" ry="1.382"/>
      <ellipse cx="4.259" cy="2.545" rx=".734" ry="1.382"/>
      <ellipse cx="7.27" cy="1.6" rx=".734" ry="1.382"/>
    </g>
    <path fill="#FFCE31" d="M37.894 14.545l9.106-2.4-8.74 4.873"/>
    <path fill="#B2C1C0" d="M37.894 14.182s-3.82-.218-6.83 2.69v3.637s3.82 0 6.83-2.697c.367-.29.734-.8.734-1.818s-.294-1.82-.734-1.82"/>
    <ellipse cx="31.064" cy="18.764" fill="#3E4347" rx=".734" ry="1.818"/>
  </g>
</svg>
