<svg xmlns="http://www.w3.org/2000/svg" viewBox="0 0 754 776">
  <g fill="none" fill-rule="evenodd">
    <path fill="#FECCCB" d="M397.775 203.94l-5.496-.19c-2.73-.093-5.09 2.077-5.19 4.808-.09 2.413 1.62 4.548 3.92 5.062.57.27 1.21.418 1.87.405l4.5-.092c2.72-.056 5.08-1.963 5.18-4.807.1-2.716-2.09-5.092-4.81-5.186"/>
    <path fill="#DEDAD7" d="M400.404 465.17c.002-2.667.634-10.3-2.158-10.076-33.875 2.723-68.884 8.74-105.752 3.815-3.06-.41-4.5-1.91-4.72.46-.59.73-.978 1.68-1.033 2.87-.65 14.13-1.95 28.44-1.87 42.63 16.39-16.56 37.72-42.1 62.29-31.56-25.83 10.75-48.13 29.29-59.45 55.88.15.78.29 1.55.42 2.33 1.38 8.05.71 16.38.07 24.47-2.49 31.52-4.01 65.07 1.14 96.19 2.59 15.6 3.62 29.24 5.84 44.9 1.7 11.96.79 34.47 13.88 37.77 12.34 3.11 11.84 1.16 24.16 1.54 3.89.12 6.46-17.24 6.07-23.03l-2.08-31.09c-2.19-32.7-4.41-65.41-4.6-98.2-.09-16.35.41-32.7 1.65-49.01 1.15-15.14 1.84-31.63 7.58-45.84l.79-1.6c.85-1.37 1.06-1.63.64-.77 1.08 1.08 1.82 2.74 2.55 4.06 1.54 2.78 2.48 5.8 3.28 8.86 1.76 6.73 2.03 13.78 2.3 20.7.6 15.28-.2 37.5 1.68 52.67 4.02 32.49 2.94 61.48 3.43 94.15.26 16.91 4.17 30.46 5.47 47.32.48 6.22.03 13.91 4.85 18.6 2.66 2.58 6.59 2.86 10.07 3.24 4.5.49 9.04.61 13.56.58 2.7-.02 5.12-1.99 5.19-4.81 2.07-89.03 4.72-178.07 4.81-267.13"/>
    <path fill="#BEB5AE" d="M331.943 735.77c-7.09.248-14.666 1.373-21.62-.3-5.118-1.23-7.615 6.58-2.478 7.816 7.826 1.882 15.813.954 23.787.674 5.25-.185 5.598-8.377.31-8.19m57.098-.795c-3.42-.26-6.608.193-10.01-.553-3.382-.74-6.483-1.208-9.93-.638-5.213.864-3.317 8.842 1.878 7.98 2.764-.456 5.5.493 8.19 1.012 3.218.622 6.332.143 9.56.39 5.278.403 5.57-7.79.312-8.19"/>
    <path fill="#EB4335" d="M483.72 360.666c-1.967-5.067-3.932-10.135-5.898-15.202 1.908-1.797 2.813-4.6 2.096-8.074-1.073-5.205-5.094-9.793-8.76-13.768.042-.383.265-.87 0-1.22-5.64-7.53-5.64-7.53-9.392-12.627-4.035-5.478-6.684-11.284-9.854-17.333-2.516-4.803-4.323-13.067-8.21-17.01-.79-1.723-1.65-3.414-2.624-5.048-2.447-4.1-5.12-10.16-9.75-11.685-4.79-1.58-13.618 6.3-17.082 8.74-2.647 1.86-1.42 6.21 1.516 8.65 3.313 2.74 6.38 5.65 9.273 8.69 4.403 7.72 9.434 15.2 13.95 22.74 2.588 4.32 5.134 8.68 7.792 12.97l-3.326-2.08c-7.66-8.4-15.6-15.71-26.37-19.65-2.18-2.44-5.92-4.27-7.62-7.71-4.24 1.01-10.24-.98-13.71-3.66-9.75-7.51-14.87-13.13-19.33-26.34-.83-2.47-7.41-.3-9.8.59-13.17 4.86-32.49-.47-46.33-2.92-2.38-.42-4.43 2.72-4.02 5.5 2.84 19.52-19.91 28.25-33.26 34.23-7.92 3.55-15.34 7.96-20.39 15.23-4.77 6.87-7.17 15.09-8.27 23.32-2.78 21-2.85 42.56-4.03 63.7l-3.71 66.3c-.09 1.63 1.49 3.65 3.16 3.83l16.66 1.78c2.67.28 5.06-1.24 5.04-4.15-.19-22.74.94-45.51 3.67-68.09 1.39-11.48 3.1-22.91 5.22-34.27 1.06-5.68 2.19-11.35 3.43-16.99.85-3.84 1.41-8.26 3.72-11.57 2.31-3.3 5.25-1.66 6.4 1.56 1.47 4.13 1.49 8.26 1.59 12.6.24 11.2.29 22.41.08 33.62-.43 22.58-1.74 45.13-4 67.6-.26 2.51 1.22 5.26 4.14 5.03l61.11-4.82c10.06-.79 20.15-1.39 30.19-2.39 7.48-.75 14.35-2.98 17.34-10.51 2.89-7.3 2.57-16.55 2.69-24.3.13-8.1-.09-16.18-.24-24.27-.3-16.12-.57-32.81 4.38-48.35.78-2.42-2.74-6.32-1.39-8.72.2.16 3.57 3.91 3.81 4.06 19.85 11.84 37.52 24.39 59.82 30.09 3.92 1 11.77-4.45 10.34-8.15"/>
    <path stroke="#231F1F" stroke-width="4" d="M293.697 189.058c1.394 11.648 3.998 23.11 8.067 34.14 2.132 5.782 6.5 9.75 10.096 14.754 2.342 3.26 3.3 7.935 5.284 11.424 1.464 2.578 2.49 5.44 4.382 7.724 3.1 3.744 8.063 5.398 12.865 6.148 13.86 2.163 24.78.66 38.26-3.192 5.64-1.61 3.66-3.708 7.65-8.012 2.03-2.188 11.8-8.213 13.5-10.663 2.91-4.2 9.39-6.42 12.36-10.57 4.97-6.92 7.29-15.68 6.42-24.15-.07-.73-.18-1.49-.59-2.1-.79-1.2-2.4-1.46-3.76-1.92-4.63-1.57-7.37-6.23-9.68-10.55-5.47-10.21-13.63-16.56-15.21-28.04-1.7-12.38.35-25.85-.53-37.85-7.41 12.04-16.66 22.94-27.32 32.21-2.09 1.82-4.29 3.61-6.9 4.54-2.43.87-5.08.92-7.66.94-5.38.04-21.07-2.17-15.82-1.36.36.06-1.91-.51-3.03-.83-1.7-.47-3.07-1.7-4.35-2.92-2.89-2.74-5.62-5.65-8.16-8.72" stroke-linecap="round" stroke-linejoin="round"/>
    <path stroke="#231F1F" stroke-width="4" d="M293.697 189.058c-3.118-13.464-.195-45.78 1.767-57.916l13.373 17.935c.375.502.75 1.006 1.13 1.506m-32.012 152.993c9.043-4.12 19.237-5.62 27.832-10.744 10.994-6.554 14.96-25.552 14.44-37.578" stroke-linecap="round" stroke-linejoin="round"/>
    <path stroke="#231F1F" stroke-width="4" d="M404.017 332.5c-.322.773-.57 8.615-.676 9.942-2.95 48.51 2.37 70.56.32 109.702-.12 2.285-14.04 3.033-15.88 4.396-1.18.874-2.73 1.004-4.2 1.1-36.86 2.412-59.59 1.87-96.53 1.164 2.66-29.207 1.96-40.945 3.81-84.76.48-11.39 1.77-22.79 1.45-34.186-.03-1.097-.11-2.237-.65-3.193-1.64-2.92-5.56-3.243-5.8.097-1.03 14.478-2.21 16.313-2.99 28.818-1.23 19.785-3.37 34.44-5.37 54.16-2 19.69-4.8 27.573-9.19 52.476-5.84 1.228-11.27 1.594-17.12.396-.93-.19-1.93-.453-2.55-1.185-.46-.55-.63-1.286-.77-1.995-1.32-6.98-.43-14.17.47-21.22 5.19-40.718 5.31-77.67 10.5-118.388.61-4.79 2.23-9.12 4.28-13.488 2.06-4.37 10.16-10.71 15.3-12.96" stroke-linecap="round" stroke-linejoin="round"/>
    <path stroke="#231F1F" stroke-width="4" d="M289.76 525.75c.668 20.037 1.553 39.99 2.842 59.203 1.113 16.6 1.476 35.616 3.36 52.148 4.334 38.01 6.227 59.3 12.626 106.84 6.42.21 19.47.67 25.888.87-.97-81.13-6.055-151.66 1.506-227.45.446-4.47 1.846-24.91 3.67-27.46 1.824-2.55 5.348-4.18 8.187-2.84 3.14 1.48 3.91 5.53 4.28 8.99 4.95 46.45 11.46 111.23 11.83 157.95.2 27.02-2.57 54.02 2 80.65.33 1.95 2.51 6.87 4.07 8.09 1.46 1.15 2.64.05 4.5.03 5.38-.06 11.55.57 16.93.51 7.23-62.65 4.83-129.07 5.51-195.69.15-15.26-.64-25.71.8-40.9 1.47-15.42 3.33-37.31 2.63-52.79" stroke-linecap="round" stroke-linejoin="round"/>
    <path stroke="#231F1F" stroke-width="3" d="M287.94 453.266c.322 14.832.637 30.093 1.03 45.48m20.44 246.447c.107 5.165.644 10.322 1.605 15.398.398 2.1.895 4.25 2.125 6 1.206 1.72 3.027 2.9 4.927 3.79 8.805 4.09 19.094 2.13 28.576.06 5.172-1.13 10.38-2.28 15.227-4.41 1.332-.58 2.67-1.27 3.613-2.38.943-1.11 1.41-2.73.804-4.05-.607-1.32-2.495-2-3.627-1.08 1.216-.69 1.368-2.55.517-3.66-.852-1.11-2.387-1.51-3.777-1.36-1.39.15-2.682.77-3.94 1.38.458-2.3-2.14-4.24-4.49-4.19-2.35.06-4.452 1.37-6.588 2.35-2.705 1.24-5.635 1.99-8.604 2.2-.576.04-1.19.05-1.69-.23-.4-.23-.676-.62-.923-1.01-1.624-2.55-2.55-5.53-2.654-8.55m39.94-2.6c-.18 6.73.29 13.46 1.38 20.1.45 2.69 1.07 5.52 2.94 7.5 2.17 2.3 5.52 2.97 8.67 3.21 3.81.29 7.65.14 11.42-.45 5.05-.79 9.94-2.37 14.75-4.08 2.57-.91 5.2-1.9 7.19-3.76 2-1.86 3.22-4.81 2.29-7.37-.93-2.56-4.52-4-6.6-2.23.51-.6.27-1.58-.31-2.11-.58-.53-1.39-.71-2.17-.82-3.01-.4-6.14.1-8.88 1.43 1.16-.4.98-2.3-.06-2.95-1.04-.65-2.39-.42-3.58-.11-2.62.67-5.17 1.59-7.62 2.73-.55.26-1.15.54-1.76.43-1.18-.22-1.56-1.71-1.69-2.91l-.77-7" stroke-linecap="round" stroke-linejoin="round"/>
    <path stroke="#231F1F" stroke-width="3" d="M176.423 681.78c6.69-8.36 13.176-15.832 18.72-24.99 9.7-16.022 13.844-26.393 22.145-43.182 5.206-10.528 11.548-23.75 17.152-34.073 10.476-19.3 22.18-40.626 35.79-57.857 16.736-21.186 35.036-43.482 60.8-51.547 6.073-1.9 14.576-1.78 16.656 4.23-18.532 5.12-34.194 17.94-46.097 33.04-11.91 15.1-20.47 32.51-28.94 49.77l-40.15 81.79c-7.63 15.53-15.38 31.25-26.72 44.31-11.35 13.06-26.91 23.36-44.15 24.7-4.38.34-8.98.06-12.83-2.07s-6.72-6.46-6.04-10.8c3.98-4.24 11.03-1.88 16.71-3.16 5.01-1.13 13.73-6.13 16.94-10.14zm71.792-210.576c-2.568 8.192-3.91 16.767-3.967 25.352-.005.747.174 1.714.912 1.836.934-1.407 1.63-2.972 2.05-4.61-.377 3.182-.274 6.42.305 9.57.22 1.194.807 2.64 2.02 2.675 1.177.035 1.86-1.296 2.2-2.424.778-2.596 1.288-5.272 1.52-7.973-.125 3.416.446 6.856 1.668 10.05.37.964 1.033 2.065 2.066 2.026 2.12-3.906 2.99-8.482 2.45-12.897.08 3.13.65 6.25 1.66 9.21.35 1.02 1.14 2.23 2.17 1.93.42-.12.73-.48.97-.84 1.8-2.62 1.65-6.06 1.54-9.24-.25-7.2.04-14.42.87-21.57" stroke-linecap="round" stroke-linejoin="round"/>
    <path stroke="#231F1F" stroke-width="6" d="M390.21 177.627c6.84-.14 13.687-.006 20.517.402.4 2.2.358 4.45.316 6.69-.035 1.79-.07 3.59-.103 5.38-.04 2.14.38 4.74-.45 6.72-.834 1.97-2.05 4.02-4.187 4.08" stroke-linecap="round" stroke-linejoin="round"/>
    <path stroke="#231F1F" stroke-width="3" d="M370.158 198.65c.087 2.322.45 4.632 1.08 6.868.94.235 1.834-.63 2.12-1.555.284-.923.433-1.912.338-2.874-.305-3.11 3.375-5.78 5.925-6.97 10.15-4.74 18.81-9.22 28.89-12.76.78-.28 1.6-.57 2.15-1.18.56-.61.74-1.65.16-2.24l-23.72 9.74c-4.8 1.97-9.61 3.94-14.17 6.41-.91.49-1.87 1.06-2.36 1.98-.41.77-.42 1.69-.39 2.56zm12.227-72.26c-.868-2.413-1.75-4.962-1.3-7.486.07-.392.182-.8.466-1.08.31.24.41.653.5 1.033l.82 3.784c.12-1.61.28-3.32 1.23-4.64.19-.25.45-.5.76-.46.37 1.63-.1 3.31-.57 4.91.23-1.55 1.49-2.9 3.02-3.23.17.56.03 1.18-.23 1.7-.26.53-.64.98-.99 1.45-1.04 1.42-1.81 3.04-2.24 4.75m-88.94 3.62c-1.47-1.58-2.39-3.67-2.56-5.83l2.03 3.26c-.31-.66-.6-1.33-.72-2.05-.12-.71-.07-1.48.27-2.12.12-.21.3-.43.54-.45.4-.03.6.47.67.86.2 1.14.32 2.3.43 3.45.05-.79.12-1.59.36-2.35s.67-1.48 1.3-1.95c.3 1.21-.03 2.49-.4 3.68-.39 1.28-.84 2.55-1.34 3.8-.21.05-.41-.12-.56-.28zM407.9 203.6c-.426.367-.857.74-1.17 1.205-.31.465-.496 1.045-.373 1.59.41.22.92.067 1.37.177.654.16 1.05.84 1.16 1.504.115.66.02 1.343.09 2.01.066.668.35 1.38.955 1.67.6.285 1.46.16 1.78.74m-13.58-6.69c11.56-5.68 23.32-10.96 35.247-15.82m-34.86 20.16c12.2.963 24.4 2.07 36.58 3.328" stroke-linecap="round" stroke-linejoin="round"/>
    <path fill="#231F1F" d="M322.898 209.575c-.293-.975-.933-1.834-1.892-2.304-.937-.45-1.847-.43-2.675-.11-.53.05-1.07.18-1.58.45-.35.18-.69.4-1 .66-.21.12-.4.25-.59.39-.64-.01-1.37.52-1.5 1.15-.32 1.49-.73 2.54-.2 4.08.56 1.62 1.75 2.78 3.33 3.38 3.28 1.24 6.79-1.83 6.87-5.05.03-.95-.26-1.84-.74-2.61m27.5-19.54c-1.75-5.32-9.9-5.68-13.69-2.49-1.88 1.58-2.41 3.64-1.29 5.86.3.59.71 1.06 1.19 1.43.66 1.5 1.95 2.82 3.68 3.5 4.91 1.92 11.91-2.87 10.12-8.28m13.79 53.78c-1.5-5.32-8.45-6.12-12.09-2.47-1.09 1.1-1.35 2.41-1.07 3.7-1.05.97-.69 2.92-.19 4.27.89 2.36 2.87 4.73 5.6 4.87 5.23.28 9.11-5.57 7.75-10.36m-23.54-25.35c-.74-.03-1.52.18-2.26.54-3.19.19-5.12 3.65-3.37 6.68 1.95 3.39 7.64 3.18 9.69-.05 2.02-3.17-.46-7.04-4.05-7.17m35.2-1.38c-.76.24-1.39.62-1.9 1.09l-.28-.01c-.52-.02-1.2.26-1.44.76-1.83 3.82-.25 8.05 3.82 9.45 3.76 1.3 7.58-1.6 7.66-5.43.08-4.04-4.03-7.03-7.84-5.85m-45.97 23.24c-.74.25-1.35.65-1.83 1.14-1.15.75-1.72 2.02-1.95 3.41-.34 2 1.15 3.99 2.49 5.28 3.17 3.07 7.4.038 8.01-3.7.61-3.75-2.87-7.41-6.7-6.13m73.19-9c-1.956-1.67-4.72-1.73-6.76-.1-2.34 1.86-2.67 5.1-1.96 7.82.534 2.04 3.73 1.3 3.19-.75-.01-.03-.015-.06-.02-.09.47.14 1.004.05 1.45-.41l4.01-4.16c.56-.583.79-1.71.084-2.315m-57.297 27.42c-2.66.02-5.307 1.59-6.45 4-.77 1.62 1.15 3.15 2.28 2.35.01 0 .01.006.02.006.46-.02.86-.17 1.153-.44.44.06 1.226.06 1.236.06.68 0 1.36-.04 2.05-.08 1.28-.07 2.56-.232 3.83-.43.5-.07 1.09-.59 1.19-1.1.54-3.04-2.75-4.38-5.31-4.36m-40.99-59.46c-.46-2.3-1.68-4.69-4.05-5.52-1.83-.633-4.3-.73-5.5 1.06-.42.62-.31 1.67.31 2.14-.09 2.14 1.12 5.048 1.47 6.66.37 1.74-.77 6 1.62 6.758 2.08.66 3.82-1.954 4.71-3.41 1.29-2.13 1.9-5.23 1.42-7.68m52.61-31.01c-.36.21-.65.47-.92.74-.44.033-.87.23-1.208.643-3.042 3.78-1.473 9.1 3.545 9.86 3.74.57 8.895-1.994 8.9-6.32.01-4.85-6.49-7.26-10.32-4.924m24.61-12.68c-.146-.12-.268-.24-.377-.38.312-1.765.36-3.47-.21-5.015l-.018-.41c.32-1.42.69-2.796.67-3.79.6-1.3-.7-3.126-2.18-2.18-2.51 1.6-5.23 4.17-5.58 7.32-.37 3.33 1.77 5.274 4.48 6.74.28.15.6.214.92.21.29.16.58.31.91.44 1.86.75 2.72-1.876 1.38-2.946M294.8 144.1c-1.547.456-1.473 2.435-.44 3.068l-1.47 8.47c-.164.957.32 2.19 1.5 2.138 3.905-.19 6.785-2.774 7.3-6.65.5-3.72-2.93-8.175-6.89-7.01m20.62 334.07c-1.01-1.627-3.3-.7-3.04 1.143.01.09.01.17.017.26l-5.49 3.66c-.402.27-.63.69-.714 1.13-.334.3-.637.61-.877.95-1.036.19-1.885 1.18-1.126 2.26 2.012 2.86 5.96 3.6 8.835 1.47 3.19-2.36 4.57-7.41 2.41-10.88m-16.24 20.48c-3.08-1.43-6.31 1.11-7.4 3.86-.186.47-.28.94-.3 1.39-.49 1.98.37 4.21 2.19 5.34 2.774 1.72 6.305-.25 7.885-2.65 2-3.03.76-6.49-2.372-7.95m-15.31 17.03c-2.37-.99-5.55 1.48-6.413 3.73-1.13 1.58-.997 3.97.8 5.2 2.563 1.76 5.88-.12 7.515-2.29 1.738-2.29.64-5.59-1.892-6.64m52.36-40.4c-.25-.29-.63-.48-1.12-.5-2.583-.1-4.99 1.16-6.33 3.38-.3.5-.302.99-.14 1.403-.18 1.24 1.19 2.48 2.39 1.73 1.83-1.14 3.75-2.09 5.79-2.78 1.92-.65 1.29-3.68-.58-3.23m-59.81 76.86c-.543-3.19-4.665-2.69-6.843-1.75-2.483 1.07-4.03 3.72-4.064 6.35-.04 2.97 2.45 5.13 5.32 4.73.58.082 1.19-.11 1.54-.72.69-1.19 1.26-2.42 1.72-3.69.19-.338.38-.67.58-1 .71-1.174 2.01-2.43 1.75-3.93m-10.1-19.97c-2.12.576-3.52 2.284-3.92 4.21-1.4 3.13.1 6.68 3.5 7.82 4.03 1.36 7.85-2.39 8.03-6.21.18-3.98-3.96-6.81-7.6-5.82m-18.18 49.59c-.1-1.704-.97-3.225-2.51-3.994-1.87-.936-4.03-.27-5.71.75-1.52.92-2.77 2.28-3.29 4-.48 1.6.06 3.88 1.57 4.785.41.25.86.43 1.32.55.57.42 1.28.712 2.11.802 3.82.41 6.74-3.28 6.52-6.89m11.17-14.65c-1.17-1.63-3.49-1.35-4.91-.28-.4.1-.77.36-1.06.71-1.3 1.634-.51 3.993 1.12 5.05 1.603 1.045 3.846.71 5.014-.8 1.1-1.42.826-3.31-.16-4.68m-36.78 38.97c-.65.075-1.02.43-1.17.886-3.607 1.38-5.664 7.83-5.3 11.32.7 6.65 8.705 5.61 11.76 1.16 3.034-4.42 1.64-14.18-5.3-13.36m20.46-3.65c-.66-1.65-2.01-2.56-3.75-2.73-1.9-.19-3.77 1.31-5.05 2.513-1.33 1.25-1.93 2.83-1.666 4.63.19 1.31 1.19 2.08 2.34 2.49.8.79 2.017 1.192 3.1 1.06 1.32-.17 2.56-.878 3.51-1.87.064-.05.134-.09.19-.15.86-.78 1.554-2.004 1.57-3.21.164-.91.11-1.85-.244-2.73m-12.79 40.86c-.26-3.18-3.32-3.94-5.955-3.248-5.88 1.542-8.316 11.96-1.4 13.67.19 1.34 2.24 2.1 3.01.68 1.67-3.11 4.64-7.46 4.34-11.11m-20.4-10.38c-.67-.19-1.528.02-1.88.68-2.065 3.86-3.96 7.8-5.7 11.82-.73.66-.94 1.93.13 2.62 8.13 5.24 17.9-12.24 7.46-15.13m5.01 26.9c-1.22-3.73-5.41-4.31-8.3-2.23-1.77 1.28-2.33 3.52-1.75 5.35-.02.48.04.97.19 1.43.59 1.85 2.49 2.77 4.32 2.79 3.52.034 6.62-4.02 5.53-7.35m-20.47 16.65c-.38-1.97-2.12-3.798-4.11-4.12-2.49-.41-4.62.94-6.07 2.872-1.26 1.68-1.247 4-.357 5.82.203 2.14 1.523 4.03 4.19 4.31 4.66.48 7.12-4.96 6.35-8.88m-10.33 17.91c-1.27-1.63-3.77-2.16-5.505-.96-1.264.876-1.98 2.42-1.76 3.87-.02 1.05.487 2.12 1.45 2.86 1.62 1.24 3.9 1.12 5.39-.25 1.52-1.4 1.69-3.92.43-5.52m-24.62-3.046c-2.36-.8-4.54.17-5.804 1.933-.404.06-.8.27-1.094.7-1.99 2.9-.11 6.8 2.99 7.95 3.2 1.2 6.21-.36 7.52-3.41 1.31-3.04-.7-6.19-3.61-7.17m98.51-212.5c.67-1.224 1.91-1.82 3.24-2 2.44-.33 4.42 1.86 4.44 4.16.06.22.1.44.13.68.13 1.27-.706 2.5-1.7 3.17-2.37 1.61-5.54-.21-6.48-2.55-.44-1.09-.16-2.45.38-3.45m-9.63 2.39c.4-.32.88-.48 1.38-.51.07-.03.13-.06.206-.08 1.26-.32 2.01.28 2.43 1.18.03.04.07.08.1.12.65.82.68 1.9.304 2.82l-.01.1c-.22 2-2.54 2.69-4.07 1.61-.11-.08-.21-.17-.31-.26-.58-.35-1.06-.876-1.32-1.53-.52-1.346.09-2.874 1.28-3.445M310.02 162c-.41-2.47-2.17-7.36-5.7-5.48-1.62.866-2.83 2.72-3.25 4.66-.72.126-1.33.75-1.405 1.55-.32 3.318 2.29 5.715 5.4 6.09 3.71.45 5.44-3.83 4.95-6.822"/>
    <path stroke="#231F1F" d="M264.344 506.225c-.176 1.386-.422 2.763-.735 4.124-.05.19-.15.43-.35.42l-1.08-4.4m-4.92 1.54c-.05 1.27-.26 2.54-.63 3.76-.08.25-.27.57-.52.49l-.45-3.37c-.04-.29 1.73-.63 1.6-.89zm-7.11-1.15l-1.62 4.06-.51-4m-4.39-7.21c-.04-.22-.07-.43-.08-.65-.01-.1 0-.22.07-.29.06-.06.16-.07.25-.07.52-.01 1.05.07 1.55.22-.38 1.02-.87 2-1.46 2.91l-.34-2.14z" stroke-linecap="round" stroke-linejoin="round"/>
    <path fill="#231F1F" d="M318.068 753.796c-2.56-.052-4.164 1.72-4.393 3.8-.673.558-1.006 1.456-.81 2.487.332 1.73 1.44 3.14 2.996 3.952 3.22 1.678 6.93-.402 7.69-3.83.75-3.43-2.14-6.34-5.47-6.41m14.62 9.8c-1.8-.227-3.33 1.263-3.52 2.974-.07.63.42 1.35 1.02 1.58.25.35.58.66.91.89 1.54 1.08 3.58.03 4.05-1.65.5-1.78-.6-3.57-2.45-3.8M347 752.72c-.875-.91-2.404-1.12-3.53-.59-.814.39-1.305 1.03-1.52 1.75-.1-.01-.2-.02-.31-.02-1.24.06-2.64.95-2.58 2.38.06 1.41.9 2.53 2.25 3.01 2.41.85 5.268-.35 6.256-2.73.53-1.29.43-2.79-.563-3.82m50.32 10.12c-2.215-.14-3.624 1.48-4 3.39-.44.722-.48 1.682-.222 2.52.41 1.35 1.5 2.233 2.76 2.76 2.64 1.09 5.38-1.27 5.75-3.8.4-2.647-1.77-4.71-4.29-4.87m-11.77 2.383c-.56-.756-1.66-1.13-2.56-.86-.47.144-.88.41-1.19.76-.45.175-.83.54-.99 1.03-.69 2.086 1.33 4.065 3.39 3.665.92-.177 1.65-.985 1.9-1.855.28-.964.03-1.94-.55-2.732m.44-18.58c-1.44-1.2-3.61-1.51-5.11-.22-1 .87-1.51 2.13-1.45 3.4-.22 1.87.78 3.75 2.72 4.17 4.12.89 7.23-4.51 3.85-7.34"/>
    <path stroke="#231F1F" stroke-width="3" d="M308.036 736.673l25.173-.247m32.88-1.966l24.56 1.192" stroke-linecap="round" stroke-linejoin="round"/>
    <path stroke="#231F1F" d="M352.805 750.164c1.04-.434 2.084-.867 3.127-1.3-.185.924-.603 1.8-1.208 2.525m6.666 1.96l3.434-.9c-.373.6-.86 1.13-1.426 1.56l.838-.38m1.266 4.67c.83-.57 1.736-1.02 2.688-1.34-.06.99-.483 1.95-1.17 2.66m34.904-8.57c-.046.05-.12.06-.188.06-.588.02-1.183-.15-1.665-.49.45-.72 1.16-1.27 1.97-1.53-.02.58-.04 1.17-.05 1.76 0 .06 0 .14-.05.18zm7.818 1.03l2.845-1.82-.852 2.68c-.276.01-1.718-.88-1.993-.87zm8.155 3.91c-.033-.14.07-.27.164-.37.79-.82 1.68-1.54 2.65-2.12-.22.99-.52 1.97-.89 2.92l-1.5-.2c-.17-.03-.37-.08-.41-.24z" stroke-linecap="round" stroke-linejoin="round"/>
    <path fill="#231F1F" d="M294.736 347.486c35.204 1.328 70.423 2.294 105.647 2.898 5.263.09 5.602 8.28.31 8.19-35.224-.603-70.44-1.57-105.645-2.897-5.248-.198-5.598-8.39-.312-8.19m-.78 22.413c35.76-.253 71.52.437 107.242 2.07 5.24.24 5.594 8.432.31 8.19-35.723-1.633-71.482-2.323-107.242-2.07-5.275.038-5.602-8.15-.31-8.19m-.526 21.862c35.352.9 70.717 1.06 106.076.482 5.278-.086 5.6 8.105.31 8.19-35.358.58-70.724.42-106.075-.48-5.25-.135-5.6-8.327-.31-8.192m-1.36 28.566c17.75 1.536 35.55 1.067 53.33.477 18.15-.602 36.3-1.213 54.44-1.82 5.28-.176 5.6 8.014.31 8.19l-52.82 1.767c-18.31.612-36.65 1.16-54.94-.423-5.19-.45-5.56-8.65-.31-8.2m-.95 18.4l56.69-.6c18.15-.2 36.3-.53 54.35 1.61 5.24.62 3.32 8.59-1.87 7.98-17.84-2.12-35.86-1.58-53.78-1.39l-55.07.58c-5.27.05-5.6-8.14-.31-8.2"/>
    <path stroke="#231F1F" stroke-width="5" d="M278.634 414.446c4.5.01 5.35-.013 9.667.002m116.2 3.494c102.18.203 245.84-.09 346.71.89-7.01-160.566-2.92-266.143-4.78-404.2-193.62-9.68-388.96-8.028-582.81-10.25C111.06 3.78 72.32.55 7.85 4.242-2.575 87.29 9.223 174.7 7.615 258.382c-1.333 69.4-1.333 91.78 1.334 156.67 70.4-.28 163.68-.74 241.18-.683" stroke-linecap="round" stroke-linejoin="round"/>
    <path fill="#2F4890" d="M68.713 314.727c-.336-23.933-1.07-49.042-2.012-72.96l-2.82-71.75c-.92-23.365-1.28-46.836-3.3-70.138-.23-2.72-2.09-5.01-5-5l-9.48-.66c-4 .25-10.02-1.32-10.12 3.75-.2 4.19-.37 2.75.17 5.7 5.87 92.37 2.02 184.79 7.44 277.39.18 2.97 2.04 4.66 5 5 4.5.51 7.17.24 11.69.47 2.34.11 3.34.2 5.6-.32 1.73-.65 3.49-2.1 3.48-4.38-.11-24.37-.29-44.41-.61-67.12"/>
    <path stroke="#231F1F" stroke-width="3" d="M20.234 60.315c.21 31.476.42 62.953.628 94.43l.4 59.91 1.23 184.863" stroke-linecap="round" stroke-linejoin="round"/>
    <path stroke="#231F1F" stroke-width="3" d="M14.017 396.094c27.285-1.085 54.594 1.447 81.898 1.06 16.694-.237 37.842 1.053 54.506.04 44.85-2.726 38.69-.637 81.33-1.967" stroke-linecap="round" stroke-linejoin="round"/>
    <path fill="#FBBC07" d="M121.628 335.644c-.325-17.346-1.035-35.544-1.946-52.878l-2.733-52.002c-.89-16.933-1.24-33.944-3.2-50.832-.23-1.966-2.03-3.626-4.84-3.624l-9.18-.473c-3.87.18-9.69-.955-9.79 2.718-.2 3.036-.37 1.993.16 4.134 5.68 66.95 1.95 133.93 7.19 201.04.17 2.157 1.97 3.376 4.83 3.624 4.35.38 6.93.18 11.31.34 2.26.09 3.22.15 5.41-.22 1.67-.47 3.37-1.51 3.36-3.17-.11-17.66-.29-32.18-.59-48.64"/>
    <path fill="#FECCCB" d="M167.752 347.225c-.315-13.49-1.004-27.644-1.888-41.126l-2.652-40.45c-.864-13.17-1.204-26.4-3.097-39.54-.22-1.53-2.134-3.77-4.86-3.77l-8.733.58c-3.754.14-9.404-.74-9.5 2.11-.196 2.36-.34 3.28-.187 6.43 2.538 50.7 6.24 93.61 7.318 153.14.03 1.68 1.91 2.62 4.69 2.81 4.22.29 6.73.13 10.972.26 2.193.06 3.128.11 5.252-.18 1.624-.37 3.268-1.18 3.258-2.47-.104-13.74-.274-25.04-.573-37.84"/>
    <path fill="#B8ECBC" d="M214.202 366.44c-.286-7.095-.91-14.538-1.713-21.628l-2.41-21.27c-.79-6.927-1.09-13.885-2.81-20.792-.2-.804-1.94-1.983-4.41-1.982l-7.92.306c-3.41.074-8.53-.39-8.62 1.112-.18 1.242-.31 1.728-.17 3.38 2.3 26.666 5.65 49.23 6.63 80.54.03.886 1.73 1.382 4.25 1.483 3.82.15 6.1.07 9.95.14 1.99.03 2.83.06 4.76-.1 1.47-.19 2.96-.62 2.95-1.3-.1-7.23-.25-13.17-.52-19.9"/>
    <path stroke="#231F1F" stroke-width="2" d="M15.273 72.145c1.96-3.493 3.61-7.16 4.924-10.945 1.505 3.174 3.508 6.112 5.914 8.673l-.35-.98" stroke-linecap="round" stroke-linejoin="round"/>
    <path fill="#FECCCB" d="M584.186 296.298L483.3 270.06c22.998-66.596 69.197-89.748 137.69-67.68l-36.804 93.918z"/>
    <path fill="#FBBC07" d="M584.186 296.298l36.805-93.92c42.31 15.98 61.83 46.68 62.98 89.368l-99.78 4.552z"/>
    <path fill="#2F4890" d="M584.186 296.298l99.78-4.552C674.93 371.323 631.42 404.138 554.53 393.44l29.656-97.142z"/>
    <path fill="#EB4235" d="M584.186 296.298L554.53 393.44c-10.48-2.872-20.335-7.112-29.372-13.147l59.028-83.995z"/>
    <path fill="#B8ECBC" d="M584.186 296.298l-59.028 83.995c-36.31-21.208-49.526-58.464-41.857-110.232l100.89 26.24z"/>
    <path stroke="#FBBC07" stroke-width="9" d="M398.15 134.173l40.105-44.898c11.483 25.31 21.964 51.075 31.41 77.213l67.53-119.218c10.72 29.968 21.444 59.935 32.167 89.903 3.6-16.117 10.037-31.596 18.925-45.513 5.617 18.59 13.564 36.472 23.596 53.1l51.142-101.626c4.196 10.62 10.654 20.34 18.82 28.322 6.05-8.647 13.43-16.36 21.804-22.783" stroke-linecap="round" stroke-linejoin="round"/>
    <path stroke="#231F1F" stroke-width="2" d="M366.637 270.507c-.13 4.67.158 9.355.858 13.975m-6.963-12.406c-.494 4.44-.75 8.905-.77 13.372m-7.528-13.72c-.323 4.662-.407 9.34-.25 14.01m-5.17-12.94c-.843 3.04-1.283 6.193-1.307 9.35m-5.922-9.78c.088 5.1-.693 10.21-2.3 15.05m-3.358-14.81l-2.707 10.412m-3.838-10.68c-.454 2.89-1.264 5.725-2.404 8.42m-1.623-8.772c-.308 2.61-1.025 5.174-2.117 7.566" stroke-linecap="round" stroke-linejoin="round"/>
    <path stroke="#231F1F" stroke-width="4" d="M296.54 458.986c-.734 6.267-.72 10.2-.464 16.506 2.587 3.71 4.667 5.035 7.54 8.513m16.99-23.963l.402 13.168c.007.22.062.5.278.538.216.04.17-.44.012-.288" stroke-linecap="round" stroke-linejoin="round"/>
    <path stroke="#231F1F" stroke-width="3" d="M224.754 389.8c3.526.982 6.925 2.422 10.084 4.27.154.09.328.222.305.398-.013.094-.082.17-.147.24l-7.6 8.028" stroke-linecap="round" stroke-linejoin="round"/>
    <path stroke="#231F1F" stroke-width="4" d="M404.017 332.5c26.482 16.775 46.387 34.16 73.522 36.844 2.29.227 4.07-.99 5.76-2.557 1.74-1.617 2.23-5.516 1.42-7.753-6.85-19.035-12.5-39.947-22.97-57.26-9.86-16.308-17.52-29.874-30.44-46.29" stroke-linecap="round" stroke-linejoin="round"/>
    <path stroke="#231F1F" stroke-width="4" d="M375.723 260.275c4.523 11.453 7.674 14.588 14.664 22.745 7.36 8.588 9.86 4.392 18.692 9.422 11.99 6.833 9.41 5.778 17.5 10.935 8.09 5.156 29.97 22.362 35.18 31.283-20.36-18.385-38.03-49.002-51.52-68.385m0 0c7.12 1.417 20.25-5.396 21.08-10.792m-21.82 9.447c-2.82-3.568-5.62-3.696-9.39-6.23-3.78-2.535-4.02-4.59-4.5-9.112 2.46-.853 4.69-.407 6.95.878 2.18 1.238 1.25 1.193 3.72 1.6 2.68.444 4.52-.965 6.36-2.97 2.46-2.677 1.41-6.988-.27-10.212-1.69-3.223-3.94-6.533-3.47-10.138l2.34.46c-.1-1.655-.19-3.31-.29-4.964 2.19 0 3.93 1.758 5.33 3.445 6.39 7.732 11.27 16.72 14.25 26.3-.08-.274-.15-.548-.23-.823" stroke-linecap="round" stroke-linejoin="round"/>
    <path fill="#231F1F" d="M417.616 258.32c-1.2-1.2-3.03-1.095-4.243 0-1.024.923-1.314 2.36-1.002 3.662.38 1.59 2.16 2.518 3.69 2.096 1.12-.307 1.86-1.198 2.1-2.24.59-1.123.36-2.62-.54-3.52"/>
    <path fill="#231F1F" d="M419.2 258.414c-.01-.184-.038-.365-.086-.538-.465-1.69-2.08-2.374-3.69-2.096-3.84.664-5.344 5.624-2.713 8.395 2.59 2.727 7.45 1.568 8.31-2.18.34-1.495-.38-3.026-1.81-3.58"/>
    <path fill="#231F1F" d="M419.228 257.162c-1.025-.468-2.037-.688-3.14-.334-1.09.35-2 1.094-2.558 2.093-.476.86-.602 1.76-.682 2.71-.077.92.197 1.82.86 2.48.35.35.852.65 1.265.94 1.085.77 2.748.43 3.635-.47l.76-.76c.648-.65.92-1.54.84-2.41.03-.04.068-.08.096-.13.764-1.3.412-3.42-1.076-4.1m5.908-13.37c.112-.64.023-1.31-.352-1.95-.782-1.33-2.752-2-4.104-1.07-1.008.69-1.885 1.54-2.43 2.65-.462.94-.86 2.03-.563 3.08.206.72.562 1.32 1.08 1.86 1.918 2.01 5.563 1.56 6.922-.84.69-1.23.44-2.77-.56-3.71"/>
    <path fill="#231F1F" d="M426.007 244.194c0-.792-.32-1.56-.88-2.12-.618-.62-1.288-.77-2.12-.88-2.072-.277-4.273 1.944-4.01 4.008.106.83.262 1.505.88 2.122.56.56 1.328.878 2.12.878.793 0 1.562-.318 2.122-.878.15-.157.3-.357.43-.57.21-.136.41-.282.57-.44.56-.56.88-1.328.88-2.12"/>
    <path stroke="#231F1F" stroke-width="4" d="M360.51 459.18c-.157 1.47 0 2.204.044 3.683l.21 6.777.295 9.563m26.24-22.495c.54 6.782 1.01 13.57 1.41 20.36m-27.49 2.514c2.27 2.47 3.69 4.236 5.73 6.36 2.3 2.39 3.83 4 7.21 7.37 5.58-5.953 9.95-10.328 14.54-16.243" stroke-linecap="round" stroke-linejoin="round"/>
    <path fill="#FBBC07" d="M192.766 95.118l54.48 2.02c-4.234 36.603-25.216 53.637-62.683 50.094l8.203-52.114z"/>
    <path fill="#EB4235" d="M192.766 95.118l-8.203 52.114c-23.408-3.39-36.84-16.865-42.238-38.536l50.44-13.578z"/>
    <path fill="#B8ECBC" d="M192.766 95.118l-50.44 13.578c-4.363-41.657 14.156-63.322 54.628-66.532l-4.188 52.954z"/>
    <path fill="#2F4890" d="M192.766 95.118l4.188-52.954c5.676.286 11.187 1.34 16.483 3.402l-20.67 49.552z"/>
    <path fill="#FECCCB" d="M192.766 95.118l20.67-49.552c20.936 6.735 31.887 24.27 33.81 51.572l-54.48-2.02z"/>
    <path stroke="#231F1F" d="M394.916 251.437c-.815-1.4-1.565-2.835-2.246-4.303 1.1-.035 2.204.172 3.217.6" stroke-linecap="round" stroke-linejoin="round"/>
    <path stroke="#231F1F" stroke-width="3" d="M361.57 466.394c1.315-.072 2.536.65 3.596 1.433 4.296 3.176 7.48 7.83 8.882 12.983.51-3.39 2.366-6.486 4.812-8.892 2.443-2.404 5.453-4.166 8.578-5.58m-91.195-1.098c1.728.037 3.104 1.394 4.283 2.66l6.662 7.148c1.737-2.475 3.858-4.682 6.263-6.516 1.79-1.36 3.87-2.556 6.11-2.5.16.003.34 0 .43-.128.09-.127-.11-.347-.2-.222" stroke-linecap="round" stroke-linejoin="round"/>
    <path fill="#231F1F" d="M323.735 182.038c-1.087-2.95-4.29-5.76-7.443-6.124-2.62-.303-4.435 1.12-5.288 3.167-2.382 1.02-3.143 4.43-2.844 6.77.428 3.35 2.53 5.74 5.677 6.84 6.368 2.23 12.086-4.7 9.898-10.64m15.025-13.35c-.475-.81-1.477-1.42-2.48-1.51.12-.86-.112-1.74-.815-2.44-1.084-1.08-3.185-1.25-4.242 0-1.744 2.06-2.696 4.8-1.135 7.28 1.76 2.79 5.22 2.59 7.596.77 1.294-.99 1.98-2.56 1.076-4.1m-20.627 64.15c-1.678-2.69-4.926-3.74-7.923-3.12-1.603.33-2.506 2.2-2.095 3.69.32 1.16 1.22 1.87 2.28 2.09.36.51.884.89 1.49 1.11-.11-.09-.146-.2-.067-.36.05.13.09.26.133.39.3.1.6.17.92.19-.42 0-.72-.05-.9-.14.11.31.2.62.3.92.26.83.48 1.66.69 2.5.53 2.06 3.55 3.07 5.02 1.32 2.03-2.41 1.81-5.95.17-8.57"/>
    <path fill="#231F1F" d="M311.885 236.61c.027.023.044.048.082.067l-.016-.045-.06-.022m45.1-31.058c-.64-1.402-2.09-2.264-3.46-2.794-1.1-.43-2.3.132-3.05.96-1.16.65-1.95 2.027-2.33 3.226-.49 1.535-.13 3.106.5 4.52.42.93 1.63 1.496 2.59 1.487h1.02c.27 0 .53-.05.78-.12h.06c1.58.42 2.97-.39 3.55-1.83.17-.2.32-.41.45-.64.88-1.53.61-3.26-.09-4.79m23.21 35.7c-1.23-1.06-2.71-1.44-4.14-1.3-.75-.25-1.59-.35-2.5-.21-3.16.5-3.54 5.48-2.6 7.77.17.41.39.8.63 1.15.78 1.32 1.88 2.18 3.39 2.81 1.04.43 2.14-.15 2.92-.77.02-.01.04-.03.06-.05.82-.16 1.62-.54 2.26-1.1 2.39-2.07 2.38-6.22-.01-8.28"/>
    <path stroke="#231F1F" stroke-width="2" d="M372.656 269.955c.67 4.425 2.608 8.65 5.526 12.043m-126.82 176.678c-.315 2.674-.253 5.392.186 8.048m3.43-8.03c.233 2.94.63 5.867 1.185 8.763m4.35-9.014c-.212 2.682.034 5.4.724 8m3.768-7.25c-.11 3.167-.034 6.34.23 9.5m152.442-197.956c1.493 2.296 3.202 4.45 5.098 6.428m-.035-7.218c1.486 1.916 3.043 3.775 4.67 5.574m-.643-7.59c1.53 2.18 3.252 4.23 5.132 6.11m-.71-7.8l5.55 7.21" stroke-linecap="round" stroke-linejoin="round"/>
    <path stroke="#231F1F" stroke-width=".5" d="M401.155 188.907l5.584-5.584m-5.17 8.5l2.39-2.392m.27 3.81l3.63-3.63" stroke-linecap="round" stroke-linejoin="round"/>
  </g>
</svg>
