<?xml version="1.0" encoding="UTF-8" standalone="no"?>
<svg width="157px" height="26px" viewBox="0 0 157 26" version="1.1" xmlns="http://www.w3.org/2000/svg" xmlns:xlink="http://www.w3.org/1999/xlink" xmlns:sketch="http://www.bohemiancoding.com/sketch/ns">
    <!-- Generator: Sketch 3.4 (15575) - http://www.bohemiancoding.com/sketch -->
    <title>logo-blog</title>
    <desc>Created with Sketch.</desc>
    <defs></defs>
    <g id="Marketing-Page" stroke="none" stroke-width="1" fill="none" fill-rule="evenodd" sketch:type="MSPage">
        <g id="blog" sketch:type="MSArtboardGroup" transform="translate(-50.000000, -24.000000)">
            <g id="Header" sketch:type="MSLayerGroup" transform="translate(50.000000, 19.000000)">
                <g id="logo-blog" transform="translate(0.000000, 5.000000)" sketch:type="MSShapeGroup">
                    <path d="M23.2416211,6.45621313 C23.0932994,6.22455786 22.9373333,5.99826739 22.7740787,5.77769757 C20.8738349,3.20024324 17.8579276,1.1240351 13.8195943,0.875028154 C13.5487286,0.856989519 13.2754344,0.847826087 13,0.847826087 C12.7413975,0.847826087 12.4846816,0.855903778 12.230091,0.87182061 C8.6539044,1.07648097 5.89405955,2.69856033 3.98941761,4.84604339 C2.86452443,6.08834969 1.99296385,7.56433717 1.45624739,9.19249431 C1.10176082,10.2302442 0.904174856,11.2639493 0.866419799,12.2263481 C1.47437468,14.9250917 5.3582097,21.1956522 13,21.1956522 C20.6417903,21.1956522 24.5635989,14.9309187 25.1443706,12.2263481 C25.1002907,10.4251102 24.4548768,8.34296448 23.2416211,6.45621313 Z M25.0856648,14.2790518 C24.4465219,20.3893074 19.2794745,25.1521739 13,25.1521739 C6.7205255,25.1521739 1.55347809,20.3893074 0.914335199,14.2790518 C3.00951276,18.8603743 7.6330295,22.0434783 13,22.0434783 C18.3669705,22.0434783 22.9904872,18.8603743 25.0856648,14.2790518 Z M13,26 C20.1797017,26 26,20.1797017 26,13 C26,5.82029825 20.1797017,0 13,0 C5.82029825,0 0,5.82029825 0,13 C0,20.1797017 5.82029825,26 13,26 Z M5.52196908,9.24092946 C5.45005894,9.03781781 5.55250254,8.80306361 5.7533931,8.72664242 C5.7533931,8.72664242 6.48135565,8.33695652 8.05434783,8.33695652 C9.62734,8.33695652 10.4861009,8.73785567 10.4861009,8.73785567 C10.6872247,8.812584 10.7808702,9.04375794 10.7006612,9.24092946 C10.6180358,9.44404112 10.3871534,9.54975236 10.1759738,9.48380056 C10.1759738,9.48380056 9.50678089,9.18478261 8.05434783,9.18478261 C6.60191476,9.18478261 6.01419319,9.47920435 6.01419319,9.47920435 C5.81425546,9.55072042 5.59177616,9.43810098 5.52196908,9.24092946 Z M15.4132734,9.24092946 C15.3413633,9.03781781 15.4438069,8.80306361 15.6446974,8.72664242 C15.6446974,8.72664242 16.37266,8.33695652 17.9456522,8.33695652 C19.5186444,8.33695652 20.3774053,8.73785567 20.3774053,8.73785567 C20.578529,8.812584 20.6721745,9.04375794 20.5919656,9.24092946 C20.5093401,9.44404112 20.2784577,9.54975236 20.0672782,9.48380056 C20.0672782,9.48380056 19.3980852,9.18478261 17.9456522,9.18478261 C16.4932191,9.18478261 15.9054975,9.47920435 15.9054975,9.47920435 C15.7055598,9.55072042 15.4830805,9.43810098 15.4132734,9.24092946 Z" id="Mask-Copy-38" fill="#4E3D1E"></path>
                    <path d="M44.4034337,7.167018 C44.4034337,7.42325843 44.2652113,7.55137672 43.9887623,7.55137672 L40.1184956,7.55137672 L40.1184956,20.5291356 C40.1184956,20.7853761 39.9956312,20.9134943 39.7498987,20.9134943 L38.7592948,20.9134943 C38.4828458,20.9134943 38.3446233,20.7853761 38.3446233,20.5291356 L38.3446233,7.55137672 L34.4973939,7.55137672 C34.2209449,7.55137672 34.0827225,7.42325843 34.0827225,7.167018 L34.0827225,6.2852539 C34.0827225,6.04408644 34.2132659,5.92350452 34.4743566,5.92350452 L44.0117996,5.92350452 C44.2728903,5.92350452 44.4034337,6.04408644 44.4034337,6.2852539 L44.4034337,7.167018 Z M54.2403616,14.6733176 C54.2557198,15.0350688 54.1981272,15.3402918 54.0675818,15.5889957 C53.9370364,15.8376996 53.6567521,15.9620497 53.2267203,15.9620497 L46.7302012,15.9620497 C46.7455595,16.6403332 46.8069917,17.2093291 46.9144996,17.6690546 C47.0220075,18.1287801 47.1986251,18.4980622 47.4443575,18.7769121 C47.69009,19.055762 48.0010905,19.2517076 48.3773683,19.3647548 C48.7536461,19.4778021 49.210548,19.5343248 49.7480877,19.5343248 C49.9784619,19.5343248 50.2395487,19.5230203 50.531356,19.5004108 C50.8231633,19.4778014 51.1149662,19.4551923 51.4067734,19.4325828 C51.6985807,19.4099734 51.9788651,19.3835961 52.247635,19.3534502 C52.5164048,19.3233042 52.750615,19.2931587 52.9502727,19.2630128 C53.1038554,19.2479398 53.2228803,19.2554762 53.3073508,19.2856221 C53.3918214,19.3157681 53.449414,19.4062045 53.4801306,19.5569342 L53.5722798,20.0543396 C53.6183546,20.2653611 53.5338854,20.4160885 53.3188695,20.5065263 C53.1038536,20.5969641 52.8427668,20.6798642 52.5356012,20.755229 C52.2284357,20.8305938 51.9059167,20.894653 51.5680346,20.9474083 C51.2301524,21.0001637 50.8922754,21.0416138 50.5543933,21.0717597 C50.2165112,21.1019056 49.9093502,21.1169784 49.6329012,21.1169784 C48.57318,21.1169784 47.7323269,20.9549464 47.1103167,20.6308776 C46.4883064,20.3068089 46.0160464,19.881004 45.6935226,19.3534502 C45.3709988,18.8258963 45.1598256,18.2192186 45.0599968,17.5333986 C44.960168,16.8475786 44.9102543,16.142928 44.9102543,15.4194257 C44.9102543,14.8767989 44.9563285,14.2701211 45.0484782,13.5993741 C45.1406278,12.9286271 45.3479615,12.3031084 45.6704853,11.7227992 C45.9930091,11.14249 46.4614296,10.6563942 47.0757607,10.264497 C47.6900918,9.87259993 48.5271054,9.67665431 49.5868266,9.67665431 C50.5697564,9.67665431 51.3606958,9.81984534 51.9596687,10.1062317 C52.5586415,10.392618 53.0232225,10.7694365 53.3534254,11.2366985 C53.6836284,11.7039604 53.9063201,12.2390427 54.0215072,12.8419614 C54.1366943,13.44488 54.209645,14.055326 54.2403616,14.6733176 L54.2403616,14.6733176 Z M52.3743401,14.5376616 C52.3743401,14.1457644 52.3397845,13.750105 52.2706723,13.3506714 C52.20156,12.9512378 52.0671771,12.5932602 51.8675195,12.276728 C51.6678619,11.9601957 51.383738,11.7039591 51.0151393,11.5080105 C50.6465406,11.312062 50.1550831,11.2140892 49.540752,11.2140892 C49.0339288,11.2140892 48.607743,11.293221 48.2621818,11.4514872 C47.9166205,11.6097533 47.6363361,11.8320762 47.4213202,12.1184626 C47.2063043,12.404849 47.0450448,12.751522 46.9375369,13.1584921 C46.830029,13.5654621 46.7609177,14.0251807 46.7302012,14.5376616 L52.3743401,14.5376616 Z M63.5704688,19.6925902 C63.0022125,20.0241954 62.368693,20.340723 61.6698914,20.6421823 C60.9710897,20.9436416 60.1609527,21.094369 59.239456,21.094369 C58.1183018,21.094369 57.3196833,20.8305961 56.8435767,20.3030423 C56.36747,19.7754885 56.1294203,18.9992423 56.1294203,17.9742807 C56.1294203,16.6930785 56.4596183,15.7397277 57.1200243,15.1141996 C57.7804302,14.4886715 58.8785306,14.1759122 60.4143584,14.1759122 L63.5935061,14.1759122 L63.5935061,13.4071948 C63.5935061,12.5781816 63.397691,12.0054175 63.0060549,11.6888852 C62.6144188,11.3723529 61.9117881,11.2140892 60.8981418,11.2140892 C60.6831259,11.2140892 60.4412366,11.2178573 60.1724668,11.2253938 C59.9036969,11.2329303 59.6234125,11.2480031 59.3316053,11.2706125 C59.039798,11.293222 58.7479951,11.3158311 58.4561878,11.3384405 C58.1643805,11.36105 57.8956147,11.3874273 57.6498822,11.4175732 C57.3887915,11.4627921 57.235211,11.3949648 57.1891362,11.2140892 L57.0509124,10.6262464 C57.0201958,10.5207357 57.0317144,10.4302992 57.0854683,10.3549344 C57.1392223,10.2795696 57.2505681,10.2042059 57.4195092,10.128841 C57.6498834,10.0534762 57.9263282,9.98564887 58.2488521,9.92535701 C58.5713759,9.86506514 58.909253,9.81607874 59.2624933,9.77839632 C59.6157337,9.74071391 59.9651293,9.71433661 60.3106906,9.69926364 C60.6562518,9.68419068 60.9672523,9.67665431 61.2437013,9.67665431 C62.165198,9.67665431 62.8985447,9.77462712 63.4437636,9.97057568 C63.9889825,10.1665242 64.4036498,10.4378336 64.6877779,10.7845118 C64.9719061,11.13119 65.1523631,11.5532267 65.2291545,12.0506346 C65.3059459,12.5480425 65.344341,13.0981975 65.344341,13.7011161 L65.344341,18.6977794 C65.344341,18.9238739 65.3558595,19.0972104 65.378897,19.2177941 C65.4019344,19.3383779 65.4403295,19.4288143 65.4940835,19.4891062 C65.5478374,19.549398 65.6284672,19.5908481 65.7359751,19.6134575 C65.8434831,19.636067 65.9893845,19.6549079 66.1736839,19.6699809 C66.4347746,19.6850538 66.565318,19.7830266 66.565318,19.9639022 L66.565318,20.5291356 C66.565318,20.6346464 66.5346019,20.7213146 66.4731688,20.789143 C66.4117357,20.8569713 66.2888713,20.9059577 66.104572,20.9361037 C65.828123,20.9813226 65.5593571,21.0039317 65.2982664,21.0039317 C64.7607267,21.0039317 64.365257,20.9059589 64.1118454,20.7100103 C63.8584338,20.5140618 63.6933348,20.1749251 63.6165434,19.6925902 L63.5704688,19.6925902 Z M63.5935061,15.6003004 L60.2070227,15.6003004 C59.5005419,15.6003004 58.9399732,15.7585641 58.5252997,16.0750964 C58.1106262,16.3916287 57.9032925,17.0020747 57.9032925,17.9064526 C57.9032925,18.5395172 58.0299964,18.9690903 58.283408,19.1951848 C58.5368196,19.4212793 59.0014005,19.5343248 59.6771648,19.5343248 C59.9689721,19.5343248 60.2876515,19.496643 60.6332128,19.4212782 C60.9787741,19.3459133 61.3281696,19.2441723 61.68141,19.1160521 C62.0346504,18.9879319 62.376367,18.8485091 62.70657,18.6977794 C63.0367729,18.5470497 63.3324154,18.3963223 63.5935061,18.2455927 L63.5935061,15.6003004 Z M84.2810031,20.5291356 C84.2810031,20.7853761 84.1504597,20.9134943 83.8893689,20.9134943 L82.9218023,20.9134943 C82.6607115,20.9134943 82.5301681,20.7853761 82.5301681,20.5291356 L82.5301681,13.7237255 C82.5301681,13.2564635 82.5032915,12.8645723 82.4495376,12.54804 C82.3957836,12.2315077 82.2997958,11.9752711 82.1615713,11.7793226 C82.0233468,11.583374 81.8390502,11.4439512 81.6086761,11.3610498 C81.3783019,11.2781485 81.086499,11.2366985 80.7332586,11.2366985 C80.4568096,11.2366985 80.1534882,11.2856849 79.8232852,11.3836592 C79.4930822,11.4816335 79.1590447,11.5984472 78.8211625,11.7341039 C78.4832804,11.8697606 78.1607614,12.0129516 77.8535959,12.1636813 C77.5464303,12.3144109 77.2930225,12.4425292 77.0933649,12.54804 C77.1087232,12.6384778 77.1202417,12.7892052 77.1279209,13.0002267 C77.1356,13.2112482 77.1394395,13.4674848 77.1394395,13.7689441 L77.1394395,20.5291356 C77.1394395,20.7853761 77.0088961,20.9134943 76.7478054,20.9134943 L75.7341641,20.9134943 C75.5037899,20.9134943 75.3886046,20.7853761 75.3886046,20.5291356 L75.4116419,13.5654601 C75.4116419,12.8268848 75.2964565,12.2541207 75.0660824,11.8471506 C74.8357082,11.4401805 74.3672877,11.2366985 73.660807,11.2366985 C73.3997162,11.2366985 73.1155923,11.2781485 72.8084268,11.3610498 C72.5012612,11.4439512 72.1825817,11.5494603 71.8523788,11.6775806 C71.5221758,11.8057008 71.1958173,11.9451236 70.8732934,12.0958533 C70.5507696,12.2465829 70.2589667,12.389774 69.997876,12.5254307 L69.997876,20.5291356 C69.997876,20.7853761 69.8673326,20.9134943 69.6062418,20.9134943 L68.6386752,20.9134943 C68.3929427,20.9134943 68.2700783,20.7853761 68.2700783,20.5291356 L68.2700783,10.2871064 C68.2700783,10.030866 68.3929427,9.90274767 68.6386752,9.90274767 L69.5832045,9.90274767 C69.8596535,9.90274767 69.997876,10.030866 69.997876,10.2871064 L69.997876,11.0558238 L69.997876,11.0784331 C69.997876,11.0784331 70.005555,11.0784331 70.0209133,11.0784331 C70.2512874,10.9427765 70.5085347,10.7920491 70.7926629,10.6262464 C71.076791,10.4604438 71.383952,10.3059482 71.714155,10.162755 C72.0443579,10.0195619 72.3860745,9.90274812 72.7393149,9.81231032 C73.0925553,9.72187253 73.4534694,9.67665431 73.8220681,9.67665431 C74.6667734,9.67665431 75.3233299,9.81607715 75.7917574,10.094927 C76.2601848,10.3737769 76.5942224,10.7769727 76.79388,11.3045265 C77.3928528,10.8975564 78.0417303,10.5245061 78.740532,10.1853644 C79.4393336,9.84622263 80.1803594,9.67665431 80.9636316,9.67665431 C81.6854707,9.67665431 82.265237,9.77462712 82.7029479,9.97057568 C83.1406588,10.1665242 83.4746964,10.4416017 83.7050705,10.7958164 C83.9354447,11.1500311 84.0890252,11.5758361 84.1658166,12.0732439 C84.2426079,12.5706518 84.2810031,13.1208068 84.2810031,13.7237255 L84.2810031,20.5291356 Z M96.3295119,15.3289883 C96.3295119,16.2635122 96.2565612,17.0887447 96.1106575,17.8047106 C95.9647539,18.5206765 95.7113461,19.1235861 95.3504266,19.6134575 C94.989507,20.1033289 94.5057285,20.4763792 93.8990766,20.7326197 C93.2924246,20.9888601 92.5283617,21.1169784 91.606865,21.1169784 C91.2536246,21.1169784 90.881192,21.1056738 90.4895559,21.0830644 C90.0979198,21.0604549 89.7101291,21.0265412 89.3261722,20.9813224 C88.9422152,20.9361035 88.5813011,20.8795807 88.243419,20.8117523 C87.9055369,20.743924 87.6060549,20.6647921 87.3449642,20.5743543 C87.0838735,20.4839165 86.9264535,20.35203 86.8726995,20.1786909 C86.8189455,20.0053518 86.792069,19.8357835 86.792069,19.6699809 L86.792069,5.40348979 C86.792069,5.23768716 86.8189455,5.1284098 86.8726995,5.07565442 C86.9264535,5.02289903 87.0301203,4.99652174 87.1837031,4.99652174 L88.1512698,4.99652174 C88.3202108,4.99652174 88.4315567,5.02666722 88.4853106,5.08695908 C88.5390646,5.14725095 88.5659412,5.25276013 88.5659412,5.40348979 L88.5659412,10.3097157 L88.5889785,10.3549344 C89.280101,10.098694 89.8944229,9.92158927 90.4319626,9.82361499 C90.9695024,9.72564071 91.4456018,9.67665431 91.8602753,9.67665431 C92.7510555,9.67665431 93.4882418,9.80854078 94.0718563,10.0723177 C94.6554709,10.3360946 95.1123728,10.7166813 95.4425758,11.2140892 C95.7727787,11.711497 96.0031495,12.3068703 96.1336948,13.0002267 C96.2642402,13.6935832 96.3295119,14.4698293 96.3295119,15.3289883 L96.3295119,15.3289883 Z M94.4865278,15.5324724 C94.4865278,14.7486781 94.4442931,14.0817094 94.3598226,13.5315461 C94.2753521,12.9813828 94.1332901,12.536737 93.9336325,12.1975953 C93.7339749,11.8584535 93.4728881,11.6135215 93.1503642,11.4627919 C92.8278404,11.3120622 92.4285312,11.2366985 91.9524246,11.2366985 C91.4609597,11.2366985 90.923428,11.2781485 90.3398134,11.3610498 C89.7561989,11.4439512 89.1725931,11.5683013 88.5889785,11.7341039 L88.5889785,19.2630128 C89.0343686,19.3383776 89.5143075,19.3949004 90.0288099,19.4325828 C90.5433122,19.4702652 91.0462882,19.4891062 91.5377531,19.4891062 C91.9831432,19.4891062 92.3901314,19.4476561 92.7587301,19.3647548 C93.1273288,19.2818535 93.4383293,19.1009806 93.6917408,18.8221308 C93.9451524,18.5432809 94.1409675,18.1438533 94.279192,17.6238359 C94.4174165,17.1038186 94.4865278,16.4067044 94.4865278,15.5324724 L94.4865278,15.5324724 Z M100.913935,6.96353398 C100.913935,7.24992033 100.856342,7.49108417 100.741155,7.68703273 C100.625968,7.88298129 100.353363,7.9809541 99.923331,7.9809541 C99.4779409,7.9809541 99.201496,7.87921311 99.0939881,7.67572807 C98.9864802,7.47224302 98.932727,7.23484737 98.932727,6.96353398 C98.932727,6.67714762 98.9979987,6.44352015 99.1285441,6.26264456 C99.2590894,6.08176897 99.5240157,5.99133253 99.923331,5.99133253 C100.338004,5.99133253 100.60677,6.07800078 100.729637,6.25133989 C100.852503,6.424679 100.913935,6.66207466 100.913935,6.96353398 L100.913935,6.96353398 Z M100.775711,20.5291356 C100.775711,20.7853761 100.652847,20.9134943 100.407114,20.9134943 L99.4625849,20.9134943 C99.1861359,20.9134943 99.0479135,20.7853761 99.0479135,20.5291356 L99.0479135,10.2871064 C99.0479135,10.1213038 99.0824691,10.0157946 99.1515814,9.97057568 C99.2206936,9.92535678 99.3243604,9.90274767 99.4625849,9.90274767 L100.407114,9.90274767 C100.652847,9.90274767 100.775711,10.030866 100.775711,10.2871064 L100.775711,20.5291356 Z M109.990632,20.2126049 C110.00599,20.4085535 109.936879,20.5517445 109.783296,20.6421823 C109.645072,20.7175471 109.464615,20.7816063 109.24192,20.8343617 C109.019225,20.887117 108.781175,20.9323353 108.527763,20.9700177 C108.274352,21.0077001 108.028623,21.0378456 107.79057,21.060455 C107.552516,21.0830645 107.349022,21.094369 107.180081,21.094369 C106.688616,21.094369 106.281628,21.0378463 105.959104,20.924799 C105.63658,20.8117518 105.383172,20.6497198 105.198873,20.4386983 C105.014574,20.2276768 104.88403,19.9752084 104.807239,19.6812855 C104.730448,19.3873627 104.692052,19.0595306 104.692052,18.6977794 L104.692052,11.3271358 L103.425001,11.3271358 C103.16391,11.3271358 103.033367,11.1990176 103.033367,10.9427771 L103.033367,10.3097157 C103.033367,10.0384023 103.16391,9.90274767 103.425001,9.90274767 L104.71509,9.90274767 L104.71509,7.46093937 C104.71509,7.32528268 104.749645,7.22730987 104.818758,7.167018 C104.88787,7.10672614 104.983858,7.06150792 105.106724,7.03136199 L106.028216,6.78265929 C106.289307,6.70729446 106.41985,6.82034001 106.41985,7.12179933 L106.41985,9.90274767 L108.976991,9.90274767 C109.145932,9.90274767 109.253438,9.93666133 109.299513,10.0044897 C109.345588,10.072318 109.368625,10.1665227 109.368625,10.2871064 L109.368625,10.9427771 C109.368625,11.0784338 109.345588,11.1764066 109.299513,11.2366985 C109.253438,11.2969904 109.145932,11.3271358 108.976991,11.3271358 L106.41985,11.3271358 L106.41985,18.1777647 C106.41985,18.4490781 106.439048,18.6676328 106.477443,18.8334354 C106.515839,18.999238 106.596469,19.1348927 106.719335,19.2404035 C106.842201,19.3459142 107.0073,19.4175097 107.214637,19.4551922 C107.421974,19.4928746 107.702258,19.5117155 108.055498,19.5117155 C108.178365,19.5117155 108.389538,19.5004109 108.689024,19.4778015 C108.988511,19.4551921 109.222721,19.4363511 109.391662,19.4212782 C109.575961,19.4062052 109.698826,19.4175097 109.760259,19.4551922 C109.821692,19.4928746 109.867766,19.5720065 109.898483,19.6925902 L109.990632,20.2126049 Z" id="Teambit-Copy-5" fill="#4E3D1E"></path>
                    <path d="M127.544997,16.814 C127.544997,17.4580032 127.433831,18.0368308 127.211497,18.5505 C126.989163,19.0641692 126.686332,19.5011649 126.302997,19.8615 C125.919662,20.2218351 125.478833,20.5016657 124.980497,20.701 C124.482161,20.9003343 123.949333,21 123.381997,21 L117.838997,21 C117.654996,21 117.528497,20.9693336 117.459497,20.908 C117.390497,20.8466664 117.355997,20.7470007 117.355997,20.609 L117.355997,6.142 C117.355997,5.89666544 117.493996,5.774 117.769997,5.774 L122.622997,5.774 C124.110338,5.774 125.225827,6.13432973 125.969497,6.855 C126.713167,7.57567027 127.084997,8.51866084 127.084997,9.684 C127.084997,9.92933456 127.058164,10.2053318 127.004497,10.512 C126.95083,10.8186682 126.851164,11.1253318 126.705497,11.432 C126.55983,11.7386682 126.360498,12.0299986 126.107497,12.306 C125.854496,12.5820014 125.528666,12.8119991 125.129997,12.996 L125.152997,13.019 C125.612999,13.1570007 125.996329,13.3754985 126.302997,13.6745 C126.609665,13.9735015 126.854996,14.2993316 127.038997,14.652 C127.222998,15.0046684 127.35333,15.3726647 127.429997,15.756 C127.506664,16.1393352 127.544997,16.4919984 127.544997,16.814 L127.544997,16.814 Z M125.198997,9.822 C125.198997,9.11666314 124.976666,8.5340023 124.531997,8.074 C124.087328,7.6139977 123.374335,7.384 122.392997,7.384 L119.126997,7.384 L119.126997,12.283 L122.737997,12.283 C123.075332,12.283 123.393495,12.217834 123.692497,12.0875 C123.991498,11.957166 124.252163,11.7846677 124.474497,11.57 C124.696831,11.3553323 124.873163,11.0985015 125.003497,10.7995 C125.133831,10.5004985 125.198997,10.1746684 125.198997,9.822 L125.198997,9.822 Z M125.658997,16.653 C125.658997,16.3003316 125.605331,15.955335 125.497997,15.618 C125.390663,15.280665 125.221998,14.9855013 124.991997,14.7325 C124.761996,14.4794987 124.466832,14.2763341 124.106497,14.123 C123.746162,13.9696659 123.312999,13.893 122.806997,13.893 L119.126997,13.893 L119.126997,19.367 L122.806997,19.367 C123.374333,19.367 123.841995,19.2941674 124.209997,19.1485 C124.577999,19.0028326 124.869329,18.8035013 125.083997,18.5505 C125.298665,18.2974987 125.448163,18.0100016 125.532497,17.688 C125.616831,17.3659984 125.658997,17.0210018 125.658997,16.653 L125.658997,16.653 Z M133.501997,20.471 C133.51733,20.6550009 133.440664,20.7853329 133.271997,20.862 C133.087996,20.938667 132.884831,20.9999998 132.662497,21.046 C132.440163,21.0920002 132.229331,21.115 132.029997,21.115 C131.646662,21.115 131.332332,21.0690005 131.086997,20.977 C130.841662,20.8849995 130.649998,20.7585008 130.511997,20.5975 C130.373996,20.4364992 130.278164,20.2371679 130.224497,19.9995 C130.17083,19.7618321 130.143997,19.5050014 130.143997,19.229 L130.143997,5.199 C130.143997,4.93833203 130.274329,4.808 130.534997,4.808 L131.454997,4.808 C131.592998,4.808 131.696497,4.83099977 131.765497,4.877 C131.834497,4.92300023 131.868997,5.03033249 131.868997,5.199 L131.868997,18.654 C131.868997,19.0526687 131.953329,19.2941662 132.121997,19.3785 C132.290664,19.4628338 132.589661,19.505 133.018997,19.505 C133.264332,19.505 133.394664,19.5816659 133.409997,19.735 L133.501997,20.471 Z M144.472997,15.204 C144.472997,15.87867 144.434664,16.5686631 144.357997,17.274 C144.28133,17.9793369 144.085832,18.6233304 143.771497,19.206 C143.457162,19.7886696 142.978,20.2639982 142.333997,20.632 C141.689994,21.0000018 140.800669,21.184 139.665997,21.184 C138.561991,21.184 137.6995,21.0000018 137.078497,20.632 C136.457494,20.2639982 135.993665,19.7925029 135.686997,19.2175 C135.380329,18.6424971 135.192497,17.9985036 135.123497,17.2855 C135.054497,16.5724964 135.019997,15.87867 135.019997,15.204 C135.019997,14.6519972 135.065996,14.0463366 135.157997,13.387 C135.249997,12.7276634 135.453162,12.1143362 135.767497,11.547 C136.081832,10.9796638 136.545661,10.5081685 137.158997,10.1325 C137.772333,9.75683145 138.607992,9.569 139.665997,9.569 C140.724002,9.569 141.57116,9.73383168 142.207497,10.0635 C142.843833,10.3931683 143.330662,10.8224974 143.667997,11.3515 C144.005332,11.8805026 144.22383,12.48233 144.323497,13.157 C144.423164,13.83167 144.472997,14.5139965 144.472997,15.204 L144.472997,15.204 Z M142.678997,15.365 C142.678997,14.6596631 142.640664,14.0425026 142.563997,13.5135 C142.48733,12.9844974 142.337831,12.5475017 142.115497,12.2025 C141.893163,11.8574983 141.586499,11.5968342 141.195497,11.4205 C140.804495,11.2441658 140.294667,11.156 139.665997,11.156 C139.067994,11.156 138.584999,11.2441658 138.216997,11.4205 C137.848995,11.5968342 137.557665,11.8613316 137.342997,12.214 C137.128329,12.5666684 136.982664,13.0036641 136.905997,13.525 C136.82933,14.0463359 136.790997,14.6596631 136.790997,15.365 C136.790997,16.0703369 136.82933,16.6836641 136.905997,17.205 C136.982664,17.7263359 137.128329,18.1633316 137.342997,18.516 C137.557665,18.8686684 137.848995,19.1331658 138.216997,19.3095 C138.584999,19.4858342 139.067994,19.574 139.665997,19.574 C140.294667,19.574 140.804495,19.4896675 141.195497,19.321 C141.586499,19.1523325 141.893163,18.8955017 142.115497,18.5505 C142.337831,18.2054983 142.48733,17.7685026 142.563997,17.2395 C142.640664,16.7104974 142.678997,16.0856703 142.678997,15.365 L142.678997,15.365 Z M151.372997,9.569 C151.725665,9.569 152.093662,9.58433318 152.476997,9.615 C152.860332,9.64566682 153.235995,9.68399977 153.603997,9.73 C153.971999,9.77600023 154.324662,9.83349965 154.661997,9.9025 C154.999332,9.97150034 155.305996,10.0443329 155.581997,10.121 C155.842665,10.197667 156.003663,10.3279991 156.064997,10.512 C156.126331,10.6960009 156.156997,10.8723325 156.156997,11.041 L156.156997,21.046 C156.156997,21.6593364 156.110997,22.2228308 156.018997,22.7365 C155.926996,23.2501692 155.727665,23.6948315 155.420997,24.0705 C155.114329,24.4461685 154.669667,24.737499 154.086997,24.9445 C153.504327,25.151501 152.722335,25.255 151.740997,25.255 C151.449662,25.255 151.135332,25.2473334 150.797997,25.232 C150.460662,25.2166666 150.127165,25.1898335 149.797497,25.1515 C149.467829,25.1131665 149.145832,25.0595003 148.831497,24.9905 C148.517162,24.9214997 148.237332,24.8333339 147.991997,24.726 C147.838663,24.6646664 147.750497,24.5918338 147.727497,24.5075 C147.704497,24.4231662 147.70833,24.3350005 147.738997,24.243 L147.830997,23.737 C147.861664,23.5989993 147.922996,23.5146668 148.014997,23.484 C148.106997,23.4533332 148.237329,23.4533332 148.405997,23.484 C148.896666,23.560667 149.440994,23.6143332 150.038997,23.645 C150.637,23.6756668 151.173661,23.691 151.648997,23.691 C152.185666,23.691 152.626495,23.6488338 152.971497,23.5645 C153.316499,23.4801662 153.592496,23.3460009 153.799497,23.162 C154.006498,22.9779991 154.152163,22.7441681 154.236497,22.4605 C154.320831,22.1768319 154.362997,21.8356687 154.362997,21.437 L154.362997,20.517 C153.65766,20.777668 153.0405,20.9578328 152.511497,21.0575 C151.982494,21.1571672 151.510999,21.207 151.096997,21.207 C150.207659,21.207 149.4755,21.0728347 148.900497,20.8045 C148.325494,20.5361653 147.869332,20.1490025 147.531997,19.643 C147.194662,19.1369975 146.960831,18.5313369 146.830497,17.826 C146.700163,17.1206631 146.634997,16.3310044 146.634997,15.457 C146.634997,14.521662 146.711663,13.689837 146.864997,12.9615 C147.018331,12.233163 147.278995,11.6160025 147.646997,11.11 C148.014999,10.6039975 148.501827,10.220668 149.107497,9.96 C149.713167,9.69933203 150.468326,9.569 151.372997,9.569 L151.372997,9.569 Z M148.474997,15.25 C148.474997,16.0626707 148.520996,16.7449972 148.612997,17.297 C148.704997,17.8490028 148.854496,18.3013316 149.061497,18.654 C149.268498,19.0066684 149.532995,19.2596659 149.854997,19.413 C150.176999,19.5663341 150.575661,19.643 151.050997,19.643 C151.480332,19.643 151.993994,19.5970005 152.591997,19.505 C153.19,19.4129995 153.780327,19.2826675 154.362997,19.114 L154.362997,11.455 C153.918328,11.3936664 153.439166,11.3361669 152.925497,11.2825 C152.411828,11.2288331 151.909666,11.202 151.418997,11.202 C151.004995,11.202 150.617832,11.2479995 150.257497,11.34 C149.897162,11.4320005 149.582832,11.6198319 149.314497,11.9035 C149.046162,12.1871681 148.839164,12.5934974 148.693497,13.1225 C148.54783,13.6515026 148.474997,14.3606622 148.474997,15.25 L148.474997,15.25 Z" id="Blog" fill="#30488F"></path>
                </g>
            </g>
        </g>
    </g>
</svg>