<?xml version="1.0" encoding="UTF-8"?>
<svg width="181px" height="180px" viewBox="0 0 181 180" version="1.1" xmlns="http://www.w3.org/2000/svg" xmlns:xlink="http://www.w3.org/1999/xlink">
    <!-- Generator: Sketch 43.2 (39069) - http://www.bohemiancoding.com/sketch -->
    <title>monkey</title>
    <desc>Created with Sketch.</desc>
    <defs></defs>
    <g id="Marketing-Page" stroke="none" stroke-width="1" fill="none" fill-rule="evenodd">
        <g id="monkey">
            <path d="M108.708746,152.37365 C108.715481,152.428404 108.72248,152.483158 108.729215,152.537912 C108.570482,152.183996 108.627531,152.001747 108.708746,152.37365 M116.519946,155.911755 C116.514531,155.866126 116.508721,155.82063 116.503306,155.775134 C116.66719,156.120851 116.605651,156.291593 116.519946,155.911755 M144.751984,156.881189 C144.671561,154.962688 143.128998,153.048683 141.054375,153.178029 C136.530218,153.459734 132.00342,153.695678 127.474509,153.885597 C125.210119,153.980557 122.945202,154.062555 120.679888,154.134106 C119.547231,154.169815 118.414442,154.201953 117.281653,154.231975 C116.964583,154.240307 116.645004,154.254591 116.324633,154.26861 C116.304164,154.092313 116.283827,153.915884 116.262962,153.739587 C116.121792,152.550212 116.137243,151.144863 115.733675,150.025054 C114.970647,147.907772 113.278991,146.853959 111.08512,146.711255 C110.012814,146.641424 108.880553,146.809521 107.806398,146.853694 C103.439521,147.033694 99.0677586,147.089109 94.6975808,147.034488 C90.3274029,146.979866 85.9589418,146.801057 81.598008,146.512078 C80.5822219,146.44476 79.5676244,146.354165 78.5515742,146.292533 C76.4571427,146.1657 74.4794501,147.585862 73.9665388,149.621938 C73.6752201,150.777721 73.8041082,152.090755 73.7946,153.273386 C73.7906383,153.766435 73.7963168,154.261997 73.7961847,154.757427 C73.3313424,154.851857 72.8659719,154.943775 72.399809,155.031857 C71.032486,155.290153 69.6580318,155.510226 68.2801442,155.704378 C60.1945294,156.725656 52.0896343,156.407713 43.9651946,156.190285 C43.4673379,155.94958 42.9170545,155.819705 42.3569987,155.819705 C40.5208717,155.819705 38.4222143,157.513503 38.6593896,159.522864 C39.3124138,165.054591 39.6238053,170.620439 39.5919794,176.190652 C39.5802263,178.251064 41.2841638,179.838529 43.2895886,179.893812 C48.8402282,180.046567 54.3538916,178.942497 59.8340125,178.180175 C76.8898951,175.915561 94.0806083,174.961336 111.255607,174.132489 C121.437766,173.641027 131.767169,173.530329 141.782143,171.433151 C143.480931,171.077383 144.356868,169.441115 144.496717,167.862247 C144.820258,164.21027 144.905567,160.544275 144.751984,156.881189" id="Fill-1" fill="#DBD7CE"></path>
            <path d="M121.655806,140.028745 C121.216319,139.426717 120.780397,139.209553 120.137541,139.673374 C117.195961,141.795417 115.228833,143.894976 113.700796,147.200971 C113.474449,147.690582 113.49505,147.605674 113.310434,148.872419 C113.248895,150.337151 113.227898,150.923308 113.118158,152.044704 C113.005645,153.194403 114.343256,154.088054 115.376605,153.767731 C116.625077,153.380883 117.944859,153.075373 119.151468,152.572536 C120.671846,151.939032 121.202321,150.718444 121.394332,149.169597 C121.545802,147.947819 121.442665,147.497885 121.635337,146.284704 C121.685255,145.969803 121.742436,144.773154 121.799352,144.459443 C121.946596,142.706658 122.067825,142.72319 121.963368,141.466497 C121.907111,140.78776 121.958482,140.443234 121.655806,140.028745" id="Fill-3" fill="#919CB7"></path>
            <path d="M148.18248,150.031177 C146.991718,151.113029 148.463103,149.419891 146.89043,151.06383 C146.769465,151.035791 145.525352,152.220538 145.027627,152.528694 C144.129637,153.084564 143.071328,153.73394 142.961456,154.701522 C142.284266,160.665461 142.215596,165.846842 142.575848,171.838422 C142.638708,172.883639 143.690281,174.020508 144.834295,173.561581 C146.676629,172.822404 147.239722,171.89225 148.18248,170.118172 C149.250561,168.108282 149.125635,165.80452 149.136728,163.586857 C149.166705,157.552558 148.933227,156.105549 149.198134,151.575791 C149.294536,149.928282 149.260069,149.05222 148.18248,150.031177" id="Fill-5" fill="#919CB7"></path>
            <path d="M90.7336117,138.887246 C90.4738547,138.273712 89.5881452,138.788716 88.8484913,138.950464 C88.7428453,138.973609 88.5591534,138.98247 88.5011802,139.062749 C88.3148471,138.936578 88.0887647,138.861853 87.8287435,138.861853 C87.1939433,138.861853 86.5262607,139.430288 86.5839698,140.108363 C86.6291335,140.639237 86.5069803,141.192066 86.1587448,141.594785 C85.2208726,141.973301 84.2695306,142.303807 83.4297771,142.906497 C83.4303054,142.907026 83.4307015,142.907687 83.4312298,142.908348 C83.3459207,142.969318 83.2614039,143.032669 83.1779436,143.101442 C82.6512984,143.535108 82.71944,144.199032 83.0590918,144.676607 C83.2797599,145.298473 83.9276338,145.593139 84.5608494,145.457974 C86.3055927,145.085409 88.0989331,144.662588 89.5816744,143.618165 C90.341401,143.082926 90.6245322,142.942073 90.9050223,142.042206 C91.1902664,141.126996 91.0854128,139.718341 90.7336117,138.887246" id="Fill-7" fill="#F1B628"></path>
            <path d="M103.866952,142.294814 C103.960448,142.144836 104.050776,141.993007 104.134104,141.836813 C104.889869,140.419164 102.740898,139.159825 101.984604,140.5784 C101.472089,141.539634 100.734548,142.299972 99.9727089,143.066394 C99.0829056,143.961633 98.0318602,144.852507 97.9866966,146.208921 C97.9572477,147.09186 98.7985859,147.529362 99.5622742,147.410993 C100.635373,147.244616 101.62422,146.550406 102.510589,145.957636 C103.465365,145.319105 104.313702,144.377312 104.217432,143.146144 C104.191813,142.819869 104.068075,142.519384 103.866952,142.294814" id="Fill-9" fill="#F1B628"></path>
            <path d="M109.068127,27.6816591 C109.066807,27.6802043 109.065486,27.6787494 109.064166,27.6771624 C109.018078,27.6249214 108.919959,27.5950316 108.853534,27.6214827 C108.847724,27.6238633 108.841781,27.6261117 108.835838,27.6284923 C108.690311,27.6864203 108.603813,27.9121807 108.758057,28.01005 C108.878229,28.178147 109.040792,28.3150316 109.181697,28.4652741 C109.353768,28.6487127 109.514086,28.8435253 109.664763,29.0449508 C109.791406,29.2143703 110.05671,29.1638486 110.068199,28.9354431 C110.09976,28.3015415 109.578794,27.9279192 109.068127,27.6816591" id="Fill-11" fill="#F5C8C1"></path>
            <path d="M111.263108,26.3507303 C111.186118,26.2879089 111.097111,26.2875121 111.024612,26.3203115 C110.710711,25.98954 110.324839,25.7465863 110.020447,25.4064247 C109.833717,25.1978575 109.528533,25.5056165 109.714205,25.7131256 C110.075383,26.1165055 110.550922,26.3766525 110.878556,26.8183865 C111.040855,27.0370051 111.116656,27.2962263 111.230753,27.5395768 C111.308535,27.7058222 111.505697,27.824191 111.651356,27.9199442 C111.781829,28.0057781 111.991272,27.8946833 111.97701,27.7328024 C111.928281,27.17918 111.696256,26.7041176 111.263108,26.3507303" id="Fill-13" fill="#F5C8C1"></path>
            <path d="M111.649521,24.8721514 C111.543479,24.7400279 111.328753,24.8242748 111.287683,24.9677722 C111.277515,25.0034813 111.273289,25.0362807 111.271837,25.0681543 C111.156682,25.0886539 111.061997,25.1846716 111.117065,25.3239368 C111.340903,25.890917 111.685176,26.7074636 112.227272,27.0403512 C112.353915,27.1179853 112.499179,27.0387641 112.545267,26.9107406 C112.833152,26.1109904 112.103402,25.4376767 111.649521,24.8721514" id="Fill-15" fill="#F5C8C1"></path>
            <path d="M111.319998,33.257493 C111.261232,32.7405055 111.127986,32.3861925 110.633959,32.1624159 C110.211243,31.9709096 109.662413,31.7637972 109.210908,31.9956414 C108.808133,32.2024893 108.959074,32.5880147 109.194929,32.8862513 C109.335702,33.0640029 109.617513,33.0958766 109.819561,33.1397855 C110.202792,33.2231065 110.579023,33.3393593 110.954595,33.4516444 C110.995004,33.4636796 111.031452,33.4634151 111.06407,33.4557443 C111.192034,33.488147 111.338882,33.4232094 111.319998,33.257493" id="Fill-17" fill="#F5C8C1"></path>
            <path d="M104.721139,47.6537237 C103.569466,44.2325334 99.0107098,43.9869346 96.0619986,44.688022 C94.3377242,45.0978824 92.7245101,45.5724159 90.9301132,45.4877722 C89.1913125,45.4057737 87.535708,44.8217325 85.7798719,45.0796312 C84.3529909,45.2891242 82.9440698,46.0550169 82.2767834,47.3816738 C81.5319792,48.8624085 81.9064942,50.691637 82.8900583,51.9672432 C83.006665,52.1184115 83.1428163,52.248022 83.2923053,52.3477428 C83.9704204,53.420601 85.7543848,53.5212476 86.9575604,53.6759868 C88.395138,53.8610125 89.8963673,54.0451124 91.2125841,54.690917 C91.9505213,55.0531653 92.5676258,55.5167215 93.4156989,55.5931653 C94.2944093,55.6722542 95.1007522,55.37005 95.8574415,54.9511962 C96.4580389,54.6187054 96.9503492,54.3901675 97.6476126,54.3668905 C98.4546158,54.3399104 99.2595061,54.4593373 100.067302,54.4373828 C103.51968,54.3430845 105.819329,50.9162072 104.721139,47.6537237" id="Fill-19" fill="#F5C8C1"></path>
            <path d="M80.4682167,22.9481484 C80.2744884,21.7168479 79.8243045,20.5342175 79.2114258,19.4523659 C78.6748763,18.5050184 77.9670482,17.6116312 76.9053062,17.2525569 C76.4007146,17.0818148 75.6243487,17.2615503 75.3822874,17.7871345 C75.3280117,17.9049743 75.287338,18.0146143 75.2569648,18.1259735 C74.5892823,17.7750992 73.6823116,17.6633431 73.0959764,18.0072079 C72.0882458,18.5985231 72.4186536,20.2991991 72.7744164,21.1744673 C73.2268453,22.2876635 74.1793759,23.1654445 74.9550815,24.0586995 C75.7108464,24.9290742 76.4243529,25.7893975 77.5383897,26.1942322 C77.9309965,26.3368038 78.458302,26.0375092 78.5370083,25.6263262 C78.5388571,25.6149522 78.5416303,25.6035783 78.5436111,25.5922043 C78.5453279,25.592601 78.5470446,25.5932623 78.5487614,25.5937913 C79.1090812,25.754482 79.5673206,25.2959515 79.5650757,24.7735415 C79.6634585,24.7392873 79.7599925,24.6959074 79.8546777,24.6469728 C80.4601612,24.3336591 80.5619775,23.5442248 80.4682167,22.9481484" id="Fill-21" fill="#DF4E4A"></path>
            <path d="M104.818096,121.402025 C104.373722,114.47143 103.223766,107.603788 102.933635,100.660761 C102.897716,99.7993799 102.911054,98.9340309 102.859155,98.0738398 C102.785599,96.8555004 102.262255,95.9392329 101.278427,95.2369552 C100.627912,94.7726054 99.7546159,94.6336047 98.9847209,94.5129875 C97.9293176,94.3475356 96.8666511,94.227712 95.8009473,94.1558971 C93.8639284,94.0252285 91.903007,94.0756179 89.9806464,94.3487259 C89.2984375,94.4455371 88.6689196,94.6863747 88.1352753,95.0392329 C87.980636,94.9302542 87.8047355,94.8436267 87.6066493,94.7891374 C86.7309762,94.547903 85.6819117,95.0775871 85.4762982,96.0004673 C83.9510344,102.847741 83.7017099,109.886918 83.9828602,116.874913 C84.122577,120.346889 84.3925025,123.812385 84.6818404,127.274575 C84.8304051,129.052356 84.9628587,130.831195 85.2150885,132.597999 C85.4539805,134.272223 85.7875576,136.379057 87.3125573,137.361055 C88.3884295,138.053943 90.014189,137.501643 90.3593872,136.245082 C90.492105,135.761819 90.3649337,135.2119 90.322015,134.721364 C90.2787001,134.225405 90.2422523,133.728917 90.2085776,133.232165 C90.0882733,131.459012 90.0354503,129.681628 90.0277909,127.904641 C90.0124723,124.344979 90.2153125,120.786639 90.5430792,117.243245 C90.8481319,113.946242 91.2048192,110.800938 91.7693648,107.599953 C92.0218587,106.167756 92.3422301,104.74733 92.7650782,103.355471 C93.214998,101.874339 93.5583474,101.024332 94.3153008,99.6771756 C94.559343,99.2429802 94.8299288,98.8246554 95.1157011,98.4170434 C95.1742026,98.5164996 95.2319117,98.6163527 95.2881682,98.716867 C95.7132612,99.4746921 95.8281512,99.7966025 96.1091695,100.619233 C96.6281553,102.138057 96.9598837,103.725655 97.2655967,105.298968 C97.9099051,108.615941 98.2202402,111.867976 98.4018192,115.325008 C98.5837944,118.790372 99.5389661,120.76733 99.5302503,124.236529 C99.5257603,125.972253 100.033257,127.856367 100.032861,129.592091 C100.032465,131.28999 100.358119,133.476044 100.728672,135.144714 C100.951057,136.145625 100.538113,135.904523 101.03795,137.132385 C101.480079,138.218733 103.100688,137.812179 103.702606,136.904641 C104.158733,136.217043 104.277452,135.424832 104.400134,134.628652 C104.549491,133.658557 104.669003,132.683303 104.764216,131.706463 C105.098189,128.28276 105.037839,124.830754 104.818096,121.402025" id="Fill-23" fill="#EEA29E"></path>
            <path d="M126.437462,45.8239662 C126.24545,43.5154431 125.627553,41.3496238 124.121042,39.5504173 C123.627147,38.9604247 122.649657,38.9112256 122.022516,39.2791609 C121.17616,39.7756488 120.969358,40.8113431 121.401186,41.6520926 C121.762891,42.3560896 121.885044,42.6601455 122.135954,43.4486539 C122.24741,43.7991315 122.338134,44.1559574 122.422254,44.5138413 C122.464249,44.69318 122.49964,44.8738413 122.535031,45.0545026 C122.545332,45.1071403 122.621397,45.5734739 122.62417,45.5632902 C122.71661,46.2781323 122.750153,46.9998516 122.749493,47.7202483 C122.749096,48.0918868 122.731005,48.4631286 122.707366,48.8338413 C122.695481,49.019396 122.677918,49.2044217 122.660486,49.3895797 C122.648205,49.512842 122.634603,49.6361043 122.619812,49.7591021 C122.642922,49.605421 122.638564,49.6358398 122.607135,49.8504908 C122.143085,53.048169 120.956548,55.7080955 119.342806,58.4275371 C118.951652,59.0865672 118.535011,59.730388 118.107012,60.3658766 C117.711104,60.9540176 117.133353,61.7679192 116.836487,62.1383674 C115.825191,63.400219 114.864473,64.0740617 113.381204,64.7736943 C112.793284,65.0509023 112.19995,65.2725628 111.455542,65.5272873 C110.650123,65.8027759 109.827933,66.0266848 108.998877,66.2179265 C107.395171,66.5877134 106.102328,66.7312109 104.399183,66.7694328 C103.220966,66.7957517 102.041957,66.7243336 100.872588,66.5818942 C99.6694125,66.4350904 99.0155959,67.7917693 99.2027214,68.7772065 C99.1269204,68.3780588 99.1974391,68.8232314 99.1979673,68.9064203 C99.1979673,68.9217619 99.1982314,68.9355165 99.1983635,68.9482131 C99.1929491,68.9687127 99.1868745,68.9938413 99.1797434,69.0258472 C99.1706314,69.0665819 99.0979998,69.2547818 99.0866428,69.2971036 C99.038838,69.3843924 98.985883,69.469036 98.9329279,69.5530184 C98.9264571,69.5630698 98.9224954,69.5698148 98.916949,69.578676 C98.8987251,69.5954724 98.8708609,69.6237752 98.8301872,69.6682131 C98.8053604,69.6953255 98.6190273,69.8564129 98.6115001,69.8730771 C98.5275115,69.9275665 98.4403536,69.9774269 98.3531957,70.0264938 C98.340122,70.0339001 98.3282368,70.0406451 98.317276,70.0469934 C98.2944301,70.0530771 98.2635286,70.062335 98.2227229,70.0756929 C98.1870674,70.0871991 98.0779879,70.1046569 98.0044319,70.1169566 C97.9262539,70.1141793 97.8339457,70.1098148 97.8146653,70.1136503 C97.7065102,70.0868024 97.6000719,70.0522836 97.49469,70.0177649 C97.8137409,70.1223791 97.3411072,69.9284923 97.3076967,69.9098442 C97.297,69.9038927 97.0324889,69.7205863 97.0289233,69.7289184 C96.9265788,69.6421587 96.8280639,69.55077 96.7311338,69.458191 C96.4884121,69.2262145 96.2847795,68.9582645 96.0440387,68.7245687 C95.1496135,67.8560456 94.011014,67.8097561 92.9368585,68.3264791 C92.6811953,68.4494769 92.4454727,68.6124159 92.1932429,68.7453328 C92.1812257,68.7420265 91.9113002,68.85246 91.8892466,68.859734 C91.733815,68.910917 91.5740254,68.9476841 91.4146321,68.9845834 C91.389277,68.9905349 91.1748157,69.0202924 91.1097114,69.0316664 C90.9854453,69.0406598 90.8610472,69.0455533 90.736649,69.0484629 C90.5726336,69.0522983 90.4086183,69.0421146 90.2449991,69.0317987 C90.2151541,69.0299471 90.1901952,69.0284923 90.1686698,69.0274342 C90.1418622,69.0217472 90.1050181,69.0147377 90.0557607,69.0058766 C89.764706,68.9535033 89.9379654,68.5375591 89.6601165,68.4375738 C89.7800247,68.476457 89.2607747,68.2063909 89.2363441,68.1936943 C89.0422196,68.0927832 88.6036568,68.00523 88.4245868,67.8803806 C88.0276221,67.6034372 87.7720909,67.7661117 87.1258016,67.5974857 C86.5186014,67.3526804 86.2379792,67.3405129 85.5292268,67.1909317 C84.766859,67.0301087 84.0854425,66.872989 83.3438077,66.6347965 C81.9165306,66.1766627 80.4723501,65.7732829 79.0648816,65.254576 C78.4105368,65.0134739 78.0901654,64.8765893 77.3635852,64.5027024 C77.0475717,64.3400279 76.7410663,64.1598957 76.4389188,63.9727539 C76.2870527,63.8785878 76.1394125,63.7779412 75.9919043,63.6771624 C75.8874468,63.604554 75.7843099,63.5303586 75.6823616,63.454576 C75.7802161,63.5335327 75.7469377,63.5069493 75.5825261,63.3744291 C74.3369601,62.3728567 73.2910649,61.1387788 72.2660348,59.9200426 C70.2481967,57.5206598 68.8527454,55.0601749 68.0386111,52.0577061 C67.6357037,50.5722101 67.3915295,49.0775885 67.2507562,47.7838633 C67.0829112,46.24282 67.0130528,44.692122 66.9821513,43.143011 C66.921669,40.0998075 67.032069,37.3979559 67.7869095,34.583687 C68.2088332,33.2555753 68.7154056,31.9781176 69.3187762,30.7933711 C69.7476989,29.9510345 69.545915,28.9181176 68.6974458,28.4204394 C67.9187029,27.963496 66.7567292,28.2010272 66.3280707,29.0425702 C66.2325931,29.230241 66.1394926,29.4185731 66.048505,29.607831 C66.0454677,29.613518 66.041506,29.618676 66.0384686,29.6244952 C65.3806904,30.8682278 64.8856069,32.1648626 64.5139972,33.4960162 C63.006165,38.2285217 62.569451,43.2817472 62.3761188,48.2402777 C62.2492116,51.4956194 62.6258395,54.6812623 63.80815,57.7294916 C64.954673,60.6852741 66.6312746,63.3240397 68.5631433,65.8216885 C70.3801221,68.1706819 72.438898,70.3772359 74.6445219,72.3641132 C76.8059065,74.3111815 79.2567611,76.0085511 82.0536063,76.865568 C81.6188731,83.2368538 81.591141,89.6306231 81.9714665,96.0054798 C82.034722,97.065906 83.0399435,98.0628494 84.1636205,97.677853 C89.7872879,95.7514166 95.8039583,95.3189405 101.513067,96.4544879 C102.604522,96.6716517 103.706145,95.9714901 103.705089,94.7821146 C103.699674,88.6429375 103.09221,82.5060088 101.918087,76.4805716 C107.605538,74.82764 113.101902,72.452989 117.666469,68.599058 C119.925047,66.6921954 121.886761,64.3822175 123.366201,61.8200279 C125.054028,58.8967803 125.907251,55.6632608 126.299197,52.3310786 C126.551295,50.1869493 126.616532,47.9766921 126.437462,45.8239662" id="Fill-25" fill="#CCD4E3"></path>
            <path d="M99.0587259,87.8950051 C97.6627464,87.8950051 97.6627464,90.0629405 99.0587259,90.0629405 C100.454705,90.0629405 100.454705,87.8950051 99.0587259,87.8950051" id="Fill-27" fill="#30407A"></path>
            <path d="M102.630497,83.1254813 C101.234518,83.1254813 101.234518,85.2934166 102.630497,85.2934166 C104.026477,85.2934166 104.026477,83.1254813 102.630497,83.1254813" id="Fill-29" fill="#30407A"></path>
            <path d="M97.2187295,79.1147612 C95.82275,79.1147612 95.82275,81.2826965 97.2187295,81.2826965 C98.6147091,81.2826965 98.6147091,79.1147612 97.2187295,79.1147612" id="Fill-31" fill="#30407A"></path>
            <path d="M98.3010858,73.9116503 C96.9051063,73.9116503 96.9051063,76.0795856 98.3010858,76.0795856 C99.6970653,76.0795856 99.6970653,73.9116503 98.3010858,73.9116503" id="Fill-33" fill="#30407A"></path>
            <path d="M101.656389,70.1177237 C100.260409,70.1177237 100.260409,72.2856591 101.656389,72.2856591 C103.052368,72.2856591 103.052368,70.1177237 101.656389,70.1177237" id="Fill-35" fill="#30407A"></path>
            <path d="M107.068157,72.2856855 C105.672177,72.2856855 105.672177,74.4536209 107.068157,74.4536209 C108.464136,74.4536209 108.464136,72.2856855 107.068157,72.2856855" id="Fill-37" fill="#30407A"></path>
            <path d="M109.232882,66.4321807 C107.836903,66.4321807 107.836903,68.6001161 109.232882,68.6001161 C110.628862,68.6001161 110.628862,66.4321807 109.232882,66.4321807" id="Fill-39" fill="#30407A"></path>
            <path d="M117.242313,63.0718413 C115.846334,63.0718413 115.846334,65.2397766 117.242313,65.2397766 C118.638293,65.2397766 118.638293,63.0718413 117.242313,63.0718413" id="Fill-41" fill="#30407A"></path>
            <path d="M115.943488,65.8901969 C114.547509,65.8901969 114.547509,68.0581323 115.943488,68.0581323 C117.339468,68.0581323 117.339468,65.8901969 115.943488,65.8901969" id="Fill-43" fill="#30407A"></path>
            <path d="M123.195266,54.074817 C121.799286,54.074817 121.799286,56.2427524 123.195266,56.2427524 C124.591245,56.2427524 124.591245,54.074817 123.195266,54.074817" id="Fill-45" fill="#30407A"></path>
            <path d="M122.437613,43.5601984 C121.041633,43.5601984 121.041633,45.7281337 122.437613,45.7281337 C123.833592,45.7281337 123.833592,43.5601984 122.437613,43.5601984" id="Fill-47" fill="#30407A"></path>
            <path d="M94.1881295,79.656745 C92.7921499,79.656745 92.7921499,81.8246804 94.1881295,81.8246804 C95.584109,81.8246804 95.584109,79.656745 94.1881295,79.656745" id="Fill-49" fill="#30407A"></path>
            <path d="M90.1834207,90.3881572 C88.7874411,90.3881572 88.7874411,92.5560926 90.1834207,92.5560926 C91.5794002,92.5560926 91.5794002,90.3881572 90.1834207,90.3881572" id="Fill-51" fill="#30407A"></path>
            <path d="M89.5340016,76.5131991 C88.1380221,76.5131991 88.1380221,78.6811345 89.5340016,78.6811345 C90.9299812,78.6811345 90.9299812,76.5131991 89.5340016,76.5131991" id="Fill-53" fill="#30407A"></path>
            <path d="M91.2657637,73.1528597 C89.8697842,73.1528597 89.8697842,75.320795 91.2657637,75.320795 C92.6617432,75.320795 92.6617432,73.1528597 91.2657637,73.1528597" id="Fill-55" fill="#30407A"></path>
            <path d="M79.9010299,68.383349 C78.5050504,68.383349 78.5050504,70.5512843 79.9010299,70.5512843 C81.2970094,70.5512843 81.2970094,68.383349 79.9010299,68.383349" id="Fill-57" fill="#30407A"></path>
            <path d="M71.3504275,67.0825746 C69.954448,67.0825746 69.954448,69.2505099 71.3504275,69.2505099 C72.7464071,69.2505099 72.7464071,67.0825746 71.3504275,67.0825746" id="Fill-59" fill="#30407A"></path>
            <path d="M66.6962865,53.4244232 C65.300307,53.4244232 65.300307,55.5923586 66.6962865,55.5923586 C68.092266,55.5923586 68.092266,53.4244232 66.6962865,53.4244232" id="Fill-61" fill="#30407A"></path>
            <path d="M66.2633493,41.2838398 C64.8673698,41.2838398 64.8673698,43.4517752 66.2633493,43.4517752 C67.6593288,43.4517752 67.6593288,41.2838398 66.2633493,41.2838398" id="Fill-63" fill="#30407A"></path>
            <path d="M66.0468807,34.7799677 C64.6509012,34.7799677 64.6509012,36.947903 66.0468807,36.947903 C67.4428602,36.947903 67.4428602,34.7799677 66.0468807,34.7799677" id="Fill-65" fill="#30407A"></path>
            <path d="M74.8139648,64.5894225 C73.4179853,64.5894225 73.4179853,66.7573578 74.8139648,66.7573578 C76.2099444,66.7573578 76.2099444,64.5894225 74.8139648,64.5894225" id="Fill-67" fill="#30407A"></path>
            <path d="M80.0851444,49.0062498 C79.930373,48.9131418 80.2825703,48.5711286 80.1090468,48.6320985 C78.2922001,48.3775062 76.8712618,46.8018119 75.0310409,46.5322748 C73.9361524,46.3719809 73.2091761,46.9795636 72.9661903,48.0258384 C72.7317883,49.0352138 73.0783071,50.1447068 73.7103342,50.9391668 C75.0021203,52.5627377 76.9098225,52.9628112 78.8055075,51.9911286 C79.6317911,51.5675136 80.1152535,51.3422821 80.293399,50.4445305 C80.3309034,50.2558016 80.1148573,49.8783439 80.1061415,49.6418707 C80.3279981,49.3667788 80.1559272,49.5781234 80.0851444,49.0062498" id="Fill-69" fill="#F5C8C1"></path>
            <path d="M111.735556,48.5640529 C111.05414,48.5950007 110.384476,48.9233916 109.756807,49.1601293 C109.421381,49.2865658 109.082126,49.3914445 108.731249,49.4644497 C108.580307,49.4957943 107.837616,49.5822895 107.761023,49.390122 C107.530979,48.8133549 106.588484,49.064773 106.821698,49.6494754 C106.831602,49.6743395 106.842563,49.6977487 106.853392,49.7212902 C106.85326,49.727374 106.851675,49.7326642 106.851675,49.7388802 C106.851543,50.2612902 106.851543,50.783568 106.851411,51.305978 C106.851279,51.591518 107.074324,51.7676826 107.338439,51.793737 C107.621966,51.8216429 107.720217,52.5495783 107.795622,52.752194 C107.894929,53.0192182 108.365186,53.1723703 108.63762,53.2617752 C109.297775,53.4786745 109.836966,53.1403644 110.409963,52.9636708 C111.681941,52.5715327 112.479832,52.1955298 113.00727,50.9744129 C113.486638,49.8642586 113.153721,48.4996444 111.735556,48.5640529" id="Fill-71" fill="#F5C8C1"></path>
            <path d="M126.514491,35.2677531 C126.863519,35.2677531 126.863519,34.7257693 126.514491,34.7257693 C126.165463,34.7257693 126.165463,35.2677531 126.514491,35.2677531" id="Fill-73" fill="#FFFFFF"></path>
            <path d="M80.7087066,46.5786172 C79.5277166,48.757662 80.0803771,51.6838193 81.8598515,53.40764 C82.7896682,54.3083012 83.6757738,54.999734 84.8438221,55.556266 C86.1937136,56.1992932 87.8572415,56.7222322 89.3010259,57.1102704 C90.5180675,57.4373387 91.7786881,57.5854651 93.0383843,57.6197193 C96.4215646,57.711637 99.8545306,56.9617472 102.782245,55.261468 C104.209918,54.4323571 105.543831,53.344025 106.321385,51.8860382 C106.595272,51.3726216 106.797848,50.8106672 106.825448,50.2291389 C106.904287,48.5681396 106.785699,46.33077 105.516759,45.2584409 C104.273174,44.2075371 104.037583,43.5963835 101.223438,42.729183 C100.444828,42.4892711 97.8134504,42.0833784 97.0022213,42.0079927 C94.1714374,41.7449361 93.8995311,41.893856 90.7967088,42.0787494 C89.1659311,42.1759574 85.9673671,42.9882719 84.4349722,43.5553843 C82.9024453,44.1223644 81.4881098,45.140601 80.7087066,46.5786172 Z" id="Stroke-75" stroke="#0A0A08" stroke-width="0.5" stroke-linecap="round" stroke-linejoin="round"></path>
            <path d="M106.85429,48.4625599 C107.396253,48.9029713 108.20088,48.8224276 108.844132,48.5510389 C109.487384,48.2796503 110.057079,47.8466451 110.715914,47.6161234 C111.374881,47.3854695 112.205126,47.4132432 112.655838,47.9471594 C113.129264,48.5079236 112.981624,49.3718178 112.636162,50.0197384 C111.857947,51.47918 110.168008,52.39677 108.522043,52.2535371 C108.307978,52.2348891 108.085858,52.1960059 107.913919,52.0670566 C107.620223,51.8467186 107.555515,51.4352711 107.342506,51.1358442 C107.196583,50.9307157 107.220221,50.8419721 106.976443,50.7795474" id="Stroke-77" stroke="#0A0A08" stroke-width="0.5" stroke-linecap="round" stroke-linejoin="round"></path>
            <path d="M80.1516353,48.2512682 C79.1428483,48.1852726 78.1418527,47.4644791 77.3069854,46.8935312 C76.471986,46.3225834 75.364552,45.8705334 74.4808235,46.3623924 C73.8071983,46.737205 73.4942221,47.5804673 73.565269,48.3488729 C73.6363159,49.1174107 74.0262816,49.8200852 74.4763335,50.4465805 C75.0396907,51.2308567 75.8288661,51.9917237 76.7935459,51.9910625 C77.7088363,51.9905334 78.5225744,51.2957943 79.4374685,51.3211874 C79.8784084,51.3334871 80.0978879,51.4119148 80.4177311,51.1078589" id="Stroke-79" stroke="#0A0A08" stroke-width="0.5" stroke-linecap="round" stroke-linejoin="round"></path>
            <path d="M90.1887954,49.0844791 C89.4836085,48.1379251 88.3069765,47.5630096 87.1280994,47.5890639 C85.9492224,47.614986 84.7988698,48.2412168 84.1359413,49.2177928 C84.9881081,49.6418046 85.2754652,49.9138545 86.0874866,50.3543982 C86.8301778,50.7573813 87.9925476,50.7741778 88.7414455,50.3828332 C89.3096888,50.0857869 89.783379,49.5816282 90.1887954,49.0844791" id="Fill-81" fill="#FFFFFF"></path>
            <path d="M90.1887954,49.0844791 C89.4836085,48.1379251 88.3069765,47.5630096 87.1280994,47.5890639 C85.9492224,47.614986 84.7988698,48.2412168 84.1359413,49.2177928 C84.9881081,49.6418046 85.2754652,49.9138545 86.0874866,50.3543982 C86.8301778,50.7573813 87.9925476,50.7741778 88.7414455,50.3828332 C89.3096888,50.0857869 89.783379,49.5816282 90.1887954,49.0844791 Z" id="Stroke-83" stroke="#0A0A08" stroke-width="0.5" stroke-linecap="round" stroke-linejoin="round"></path>
            <path d="M102.779973,48.8396738 C102.004928,47.8391594 100.728593,47.2494313 99.465595,47.3084173 C98.2024653,47.3674034 96.9864801,48.0735165 96.3078367,49.141878 C96.5170158,49.2982043 96.6963498,49.4418339 96.9060571,49.5974989 C98.3477285,50.667183 100.438726,50.6667862 101.693272,49.646698 C102.007437,49.3913123 102.434379,49.169784 102.779973,48.8396738" id="Fill-85" fill="#FFFFFF"></path>
            <path d="M102.779973,48.8396738 C102.004928,47.8391594 100.728593,47.2494313 99.465595,47.3084173 C98.2024653,47.3674034 96.9864801,48.0735165 96.3078367,49.141878 C96.5170158,49.2982043 96.6963498,49.4418339 96.9060571,49.5974989 C98.3477285,50.667183 100.438726,50.6667862 101.693272,49.646698 C102.007437,49.3913123 102.434379,49.169784 102.779973,48.8396738 Z" id="Stroke-87" stroke="#0A0A08" stroke-width="0.5" stroke-linecap="round" stroke-linejoin="round"></path>
            <path d="M88.0204249,47.7160029 C87.9885991,47.7383542 87.9567732,47.7608376 87.9258718,47.7843791 C87.528907,48.0875092 87.3025605,48.5955033 87.3236897,49.0949008 C87.3448189,49.5944306 87.6064248,50.0745187 88.0032575,50.3779133 C88.142314,50.4842469 88.3118758,50.4308156 88.4851352,50.4058193" id="Stroke-89" stroke="#0A0A08" stroke-width="0.5" stroke-linecap="round" stroke-linejoin="round"></path>
            <path d="M100.703779,47.4819633 C100.285817,47.9274004 100.110841,48.5581278 100.100673,49.1692814 C100.097107,49.3840647 100.112426,49.6018898 100.180171,49.8056958 C100.263367,50.0564526 100.29176,50.0981132 100.504768,50.2537781" id="Stroke-91" stroke="#0A0A08" stroke-width="0.5" stroke-linecap="round" stroke-linejoin="round"></path>
            <path d="M94.4851531,53.476651 C93.6317978,53.7268788 92.5664901,53.6153872 92.0976861,52.918532 C91.8964305,52.6195018 91.7931616,52.2748435 91.7123424,51.9317722 C93.4758379,52.0243512 94.5196201,51.8274225 96.0801432,51.4298619 C96.0587499,52.3998251 95.4980339,53.1796047 94.4851531,53.476651" id="Fill-93" fill="#FFFFFF"></path>
            <path d="M94.4851531,53.476651 C93.6317978,53.7268788 92.5664901,53.6153872 92.0976861,52.918532 C91.8964305,52.6195018 91.7931616,52.2748435 91.7123424,51.9317722 C93.4758379,52.0243512 94.5196201,51.8274225 96.0801432,51.4298619 C96.0587499,52.3998251 95.4980339,53.1796047 94.4851531,53.476651 Z" id="Stroke-95" stroke="#0A0A08" stroke-width="0.5" stroke-linecap="round" stroke-linejoin="round"></path>
            <path d="M92.956403,50.3834813 C93.0341849,50.086435 92.7365273,49.7597634 92.4341157,49.8100206 C92.4154956,50.0191168 92.4613196,50.2335033 92.5636641,50.4166774 C92.6060546,50.4925922 92.6703666,50.5702263 92.7571283,50.5734004 C92.8563035,50.5769713 92.9313121,50.4794989 92.956403,50.3834813 Z" id="Stroke-97" stroke="#0A0A08" stroke-width="0.5" stroke-linecap="round" stroke-linejoin="round"></path>
            <path d="M94.1126058,50.3061249 C94.2245905,50.4145746 94.393492,50.5170727 94.5255495,50.4344129 C94.659852,50.3502983 94.6377984,50.1470213 94.5746749,50.00154 C94.5218519,49.8796003 94.4473715,49.7603057 94.3326135,49.6933843 C94.2179877,49.6264629 94.0560852,49.6272564 93.9650976,49.7240676 C93.8889004,49.8052726 93.8801847,49.9332961 93.9180851,50.0381749 C93.9558536,50.1429214 94.032579,50.2287553 94.1126058,50.3061249 Z" id="Stroke-99" stroke="#0A0A08" stroke-width="0.5" stroke-linecap="round" stroke-linejoin="round"></path>
            <path d="M84.6092881,49.5610228 C84.3273454,49.8086054 83.9835998,50.1578927 83.7414064,50.4446231" id="Stroke-101" stroke="#0A0A08" stroke-width="0.5" stroke-linecap="round" stroke-linejoin="round"></path>
            <path d="M85.2467823,49.8556223 C85.0653353,50.0594284 84.6947821,50.5055268 84.5133351,50.7093328" id="Stroke-103" stroke="#0A0A08" stroke-width="0.5" stroke-linecap="round" stroke-linejoin="round"></path>
            <path d="M101.693233,49.6467509 C101.921956,49.944723 102.383233,50.4668685 102.611957,50.7648406" id="Stroke-105" stroke="#0A0A08" stroke-width="0.5" stroke-linecap="round" stroke-linejoin="round"></path>
            <path d="M102.268871,49.2410434 C102.498783,49.4925937 102.984887,50.022939 103.250322,50.2366642" id="Stroke-107" stroke="#0A0A08" stroke-width="0.5" stroke-linecap="round" stroke-linejoin="round"></path>
            <path d="M83.4488066,48.3522851 C84.1916299,47.3995151 85.2686906,46.677399 86.4640748,46.5095665 C87.659327,46.341734 89.2467898,46.7556943 89.9797088,47.7160029" id="Stroke-109" stroke="#0A0A08" stroke-width="0.5" stroke-linecap="round" stroke-linejoin="round"></path>
            <path d="M96.1516656,48.0488773 C96.7327184,46.9660999 97.9109352,46.2304938 99.137485,46.1847333 C100.364167,46.1388406 101.774276,46.7648068 102.4343,47.8012946" id="Stroke-111" stroke="#0A0A08" stroke-width="0.5" stroke-linecap="round" stroke-linejoin="round"></path>
            <path d="M108.185574,50.8556605 C108.416411,50.6551609 108.647247,50.4546613 108.878084,50.2540294 C108.972241,50.1722954 109.080132,50.0856679 109.204398,50.092942 C109.292612,50.0980999 109.370262,50.1503409 109.440913,50.2035077 C109.585119,50.3122219 109.720742,50.4323101 109.846065,50.5623174 C109.924903,50.1125158 110.121141,49.6837428 110.40995,49.3303556" id="Stroke-113" stroke="#0A0A08" stroke-width="0.5" stroke-linecap="round" stroke-linejoin="round"></path>
            <path d="M75.6459929,48.7676076 C76.0742553,49.2718986 76.5025177,49.7761896 76.9307801,50.2804805 C76.9618136,50.3169831 76.9998461,50.3566598 77.0476509,50.3542792 C77.0974366,50.3518986 77.1317715,50.3050801 77.1585792,50.2628905 C77.3527037,49.9575121 77.5468282,49.6521337 77.7409526,49.3467553 C78.1519155,49.4485922 78.5295998,49.6814945 78.8054679,50.0032726" id="Stroke-115" stroke="#0A0A08" stroke-width="0.5" stroke-linecap="round" stroke-linejoin="round"></path>
            <path d="M92.0115582,57.5404188 C92.2198129,58.8276635 92.0487985,60.3160691 91.7933993,61.5948494 C91.5230777,62.9483542 91.2518316,64.3395518 90.8019118,65.6491477" id="Stroke-117" stroke="#0A0A08" stroke-width="0.5" stroke-linecap="round" stroke-linejoin="round"></path>
            <path d="M96.487633,57.4581293 C96.3182032,58.9089743 96.1485094,60.3677546 96.2184999,61.8267994 C96.2884903,63.2858442 96.5178741,64.5976885 97.2692811,65.8497531" id="Stroke-119" stroke="#0A0A08" stroke-width="0.5" stroke-linecap="round" stroke-linejoin="round"></path>
            <path d="M91.6987141,66.5586569 C91.2748096,66.1683703 90.995244,65.9624482 90.6415941,65.4186128 C90.0816704,65.9653578 89.9060339,66.7846819 89.7566769,67.5533519 C89.6408625,68.1494284 89.5521199,68.8481352 89.9669124,69.2910595 C90.1878446,69.5270037 90.5117816,69.6363791 90.8287195,69.6984071 C91.2720364,69.7851668 91.7360864,69.7954827 92.1710837,69.6736752 C93.1086917,69.4110154 93.8319705,68.1375253 94.4019305,67.3470331 C94.6878349,68.0523527 94.9259345,69.2336605 95.4661817,69.7691639 C96.0064288,70.3046672 96.8559545,70.6036973 97.5454265,70.283374 C97.9656334,70.0880323 98.2684412,69.6902072 98.4275704,69.2545569 C98.5865676,68.8189067 98.6152241,68.3459603 98.5999054,67.8822719 C98.571381,67.0152035 98.3937637,66.1531609 98.077222,65.3454754 C97.1739489,66.1510448 96.2170604,66.984917 95.0383155,67.2561734 C94.5312148,67.3728229 94.0035131,67.3785099 93.486112,67.3236238 C93.1543836,67.2883115 92.8185614,67.2261514 92.5253939,67.0667832 C92.2974627,66.9429919 91.8895371,66.7344247 91.6987141,66.5586569" id="Fill-121" fill="#FFFFFF"></path>
            <path d="M91.6987141,66.5586569 C91.2748096,66.1683703 90.995244,65.9624482 90.6415941,65.4186128 C90.0816704,65.9653578 89.9060339,66.7846819 89.7566769,67.5533519 C89.6408625,68.1494284 89.5521199,68.8481352 89.9669124,69.2910595 C90.1878446,69.5270037 90.5117816,69.6363791 90.8287195,69.6984071 C91.2720364,69.7851668 91.7360864,69.7954827 92.1710837,69.6736752 C93.1086917,69.4110154 93.8319705,68.1375253 94.4019305,67.3470331 C94.6878349,68.0523527 94.9259345,69.2336605 95.4661817,69.7691639 C96.0064288,70.3046672 96.8559545,70.6036973 97.5454265,70.283374 C97.9656334,70.0880323 98.2684412,69.6902072 98.4275704,69.2545569 C98.5865676,68.8189067 98.6152241,68.3459603 98.5999054,67.8822719 C98.571381,67.0152035 98.3937637,66.1531609 98.077222,65.3454754 C97.1739489,66.1510448 96.2170604,66.984917 95.0383155,67.2561734 C94.5312148,67.3728229 94.0035131,67.3785099 93.486112,67.3236238 C93.1543836,67.2883115 92.8185614,67.2261514 92.5253939,67.0667832 C92.2974627,66.9429919 91.8895371,66.7344247 91.6987141,66.5586569 Z" id="Stroke-123" stroke="#0A0A08" stroke-width="0.5" stroke-linecap="round" stroke-linejoin="round"></path>
            <path d="M90.641528,65.4185731 C90.147369,66.0105496 89.8140559,66.2672579 89.3894911,66.3446275 C87.7032493,66.6519897 85.9566572,66.5625849 84.2842814,66.1865819 C80.2743563,65.2848626 76.7441961,62.751108 74.1618122,59.5491976 C68.9652187,53.1062292 67.5903684,44.5826143 68.8203517,36.3924159 C69.1705681,34.061277 70.2680977,31.7177061 71.6177251,29.7235547 C70.418115,29.874194 69.1576265,29.224554 68.5825162,28.1594989 C65.4637149,33.2672138 63.8487841,39.0282719 63.8709698,45.0153549 C63.8931554,51.0023057 65.0969913,58.587831 68.6083994,63.4331506 C70.7193381,66.34595 72.8210327,68.2686833 74.6633665,69.7037899 C79.8587715,73.7506819 80.4177708,73.1889919 85.4570838,74.5259647 C84.8469783,77.022291 84.2683025,79.5010272 83.9076535,82.0454945 C83.7881415,82.8880955 83.6824955,83.7328126 83.596262,84.5795136 C83.2048437,88.4191609 83.2128992,92.299543 83.6201644,96.137471 C87.7275479,95.7096238 90.6561864,95.904701 94.7843029,95.7921514 C96.3560509,95.7491683 98.0870602,95.6286833 99.1128827,95.591255 C101.978926,95.486773 102.791211,95.6591021 104.917733,95.3978971 C105.073165,94.6006598 105.096275,93.7839809 105.098916,92.9716664 C105.112518,88.6430698 105.004891,85.0576179 104.254012,80.7948846 C103.948827,79.0619383 103.143937,76.5616444 102.202631,75.0756194" id="Stroke-125" stroke="#0A0A08" stroke-width="0.5" stroke-linecap="round" stroke-linejoin="round"></path>
            <path d="M98.2997652,65.9181822 C100.168114,66.3780353 101.003906,66.4468082 102.441087,66.6176826 C104.201414,66.8267788 106.117303,66.3547583 107.792981,65.7753461 C111.950282,64.3377267 115.788664,61.8288361 118.480524,58.3453534 C121.172251,54.8618707 122.650238,50.376022 122.183547,45.9961102 C122.060338,44.8405922 121.807183,43.703061 121.530787,42.5745231 C121.275916,41.5335386 120.998992,40.4921572 120.564126,39.5128038 C120.11381,38.4985349 119.495781,37.5591227 118.74279,36.7445599" id="Stroke-127" stroke="#0A0A08" stroke-width="0.5" stroke-linecap="round" stroke-linejoin="round"></path>
            <path d="M118.742856,36.744507 C119.483038,36.4317223 120.176736,35.7552344 120.820516,35.2739559 C123.05757,37.7095768 124.443777,40.8613622 125.017831,44.1204071 C125.591884,47.3794519 125.381517,50.7448303 124.696403,53.9821852 C123.523336,59.5264761 120.869509,64.8792608 116.665064,68.6723542 C112.299508,72.6109287 107.353031,74.2240514 101.69318,75.1040808" id="Stroke-129" stroke="#0A0A08" stroke-width="0.5" stroke-linecap="round" stroke-linejoin="round"></path>
            <path d="M85.8658281,96.1374842 C84.8607387,102.85237 84.6126027,109.865096 84.8718315,116.950563 C85.1199675,123.734222 85.8901267,130.170181 86.7558954,137.252209 C87.8539533,137.236867 89.4394353,137.092047 90.5373611,137.076573 C90.6523831,130.892826 90.6286128,126.63816 91.2116465,121.173223 C91.6463797,117.098425 91.6525864,114.475001 92.0956392,111.164508 C92.4970939,108.164024 92.9306386,106.075574 93.4034044,102.853957 C93.6915538,100.891018 94.110308,98.5284026 94.6543848,97.1629949 C96.6504334,100.225243 96.7587206,103.666933 97.3630155,107.045273 C98.3546351,112.589035 98.8362487,117.928461 99.4533532,123.526448 C99.9670568,128.18542 100.29971,132.945699 101.111863,137.561952 C102.211373,137.625963 103.288434,137.638131 104.29009,137.179997 C106.112087,123.444582 105.336646,109.275897 103.781933,95.5075503" id="Stroke-131" stroke="#0A0A08" stroke-width="0.5" stroke-linecap="round" stroke-linejoin="round"></path>
            <path d="M87.0948738,138.405399 C86.9801158,138.384899 86.902466,138.545722 86.9526479,138.65113 C87.0026976,138.75667 87.1211532,138.808647 87.2316853,138.845943 C88.1151498,139.144179 89.0793014,139.052658 89.9993458,138.901622 C90.1096137,138.883503 90.2307104,138.85811 90.2977956,138.768573 C90.3889153,138.646898 90.3276406,138.460682 90.2083927,138.366384 C90.0891448,138.272085 89.9316003,138.245634 89.7814509,138.222489" id="Stroke-133" stroke="#0A0A08" stroke-width="0.5" stroke-linecap="round" stroke-linejoin="round"></path>
            <path d="M101.872871,138.621703 C101.827179,138.638632 101.464945,138.774723 101.429818,138.808184 C101.313739,138.918617 101.385975,139.137765 101.538105,139.187493 C102.214371,139.408625 102.93382,139.405318 103.645214,139.303481 C103.949738,139.259837 104.282523,139.208918 104.578728,139.140145 C104.713691,139.108801 104.873216,139.015164 104.983352,138.930917 C105.093356,138.846802 105.153046,138.679102 105.07368,138.565494 C104.957205,138.398588 104.138977,138.381527 103.89335,138.381527" id="Stroke-135" stroke="#0A0A08" stroke-width="0.5" stroke-linecap="round" stroke-linejoin="round"></path>
            <path d="M86.9366821,138.570652 C86.954774,138.866773 86.9728659,139.163026 86.9909577,139.459146 C86.9958439,139.540351 87.0003338,139.624863 86.9690362,139.699984 C86.9365501,139.778015 86.869861,139.835678 86.8050208,139.889771 C86.0278626,140.536369 85.1828269,141.101101 84.2881375,141.571137 C83.7710004,141.842791 83.2003801,142.118544 82.9402269,142.642144 C82.6743952,143.177251 82.8492393,143.892754 83.3319094,144.244289 C83.4157658,144.305259 83.5095267,144.356971 83.6121353,144.371652 C83.742344,144.3903 83.8726847,144.34811 83.997479,144.30645 C85.261269,143.884554 86.534303,143.458691 87.692315,142.799396 C88.5307478,142.322085 89.2968132,141.729051 90.0598413,141.138265 C90.1885973,141.038411 90.3218433,140.933268 90.3926261,140.786332 C90.4548252,140.656986 90.4616922,140.508727 90.4648615,140.36523 C90.4770108,139.810021 90.4484864,139.254018 90.3796845,138.702908" id="Stroke-137" stroke="#0A0A08" stroke-width="0.5" stroke-linecap="round" stroke-linejoin="round"></path>
            <path d="M101.386675,139.042501 C101.624642,139.886954 101.695161,140.802295 101.399352,141.473361 C101.225697,141.867218 100.87548,142.245337 100.614667,142.587615 C100.197497,143.134889 99.6930375,143.546469 99.3022795,144.11292 C99.1461876,144.339209 98.9640803,144.568409 98.882865,144.831068 C98.7929338,145.121899 98.8456248,145.339856 98.8567176,145.644044 C98.8596228,145.722604 99.0114889,145.922046 99.0114889,145.922046 C99.0743483,146.067395 99.3492919,146.195154 99.5052518,146.222001 C99.9393247,146.296726 100.349495,146.342883 100.736424,146.131803 C101.840028,145.529907 102.71755,144.511671 103.821154,143.909643 C104.119604,143.746836 104.487252,143.458783 104.713995,143.205117 C104.976261,142.911641 105.177516,142.469114 105.241696,142.080414 C105.345625,141.45101 105.080322,140.895007 105.110035,140.332523 C105.136711,139.830877 105.163122,139.223162 105.106866,138.724029" id="Stroke-139" stroke="#0A0A08" stroke-width="0.5" stroke-linecap="round" stroke-linejoin="round"></path>
            <path d="M82.9190053,143.706974 C82.9767144,144.072265 83.2527145,144.704182 83.5630495,144.903359 C83.6993329,144.990913 83.9716354,145.075556 84.1331416,145.086666 C84.3203991,145.099494 84.6154155,145.063389 84.7897314,144.99369 C86.4144344,144.343124 87.9293977,143.655924 89.4748663,142.833954 C89.7756932,142.674057 90.1524532,142.422904 90.3415595,142.139215 C90.5716036,141.794292 90.4580342,140.819832 90.4637126,140.405079" id="Stroke-141" stroke="#0A0A08" stroke-width="0.5" stroke-linecap="round" stroke-linejoin="round"></path>
            <path d="M99.0114757,145.922046 C99.0569035,146.023882 99.1667753,146.319077 99.2218433,146.416153 C99.4324749,146.787791 99.8909785,146.964749 100.31726,146.94544 C100.743542,146.926131 101.1446,146.742957 101.519511,146.539018 C102.350945,146.086704 102.997498,145.531494 103.766997,144.98012 C104.165811,144.694316 104.528573,144.227321 104.808799,143.909643 C105.01362,143.677402 105.144357,143.476638 105.265982,143.191494 C105.389191,142.902648 105.299128,142.337916 105.256077,141.972097" id="Stroke-143" stroke="#0A0A08" stroke-width="0.5" stroke-linecap="round" stroke-linejoin="round"></path>
            <g id="Group-156" transform="translate(88.966102, 138.910801)">
                <path d="M0.059505096,0.181944159 C0.0696735212,0.172157237 0.0643912224,0.151657605 0.050789303,0.148086701 C0.0120964642,0.512318883 0.0839357279,0.887660544 0.254421922,1.21168699 C0.302622898,1.30320794 0.371556898,1.39975459 0.474033494,1.41324467 C0.595526367,1.42937987 0.698399136,1.31868185 0.744751308,1.20507421 C0.830192491,0.994919912 0.801271905,0.758711242 0.802196307,0.53176047 C0.802856594,0.390511389 0.815666169,0.249262307 0.840360916,0.110261572" id="Fill-153" fill="#0A0A08"></path>
                <path d="M0.059505096,0.181944159 C0.0696735212,0.172157237 0.0643912224,0.151657605 0.050789303,0.148086701 C0.0120964642,0.512318883 0.0839357279,0.887660544 0.254421922,1.21168699 C0.302622898,1.30320794 0.371556898,1.39975459 0.474033494,1.41324467 C0.595526367,1.42937987 0.698399136,1.31868185 0.744751308,1.20507421 C0.830192491,0.994919912 0.801271905,0.758711242 0.802196307,0.53176047 C0.802856594,0.390511389 0.815666169,0.249262307 0.840360916,0.110261572" id="Stroke-155" stroke="#0A0A08" stroke-width="0.5" stroke-linecap="round" stroke-linejoin="round"></path>
            </g>
            <g id="Group-160" transform="translate(103.624481, 139.175312)">
                <path d="M0.12674876,0.154620132 C0.104431047,0.649785452 0.145368863,1.14772814 0.248241632,1.63244526 C0.272936379,1.74869802 0.313742137,1.87989566 0.422821607,1.92658193 C0.52186471,1.96890375 0.641244663,1.91864658 0.710178662,1.83585452 C0.779112661,1.7529302 0.80842942,1.6448773 0.832463879,1.53973402 C0.944052441,1.05078472 0.980104131,0.544509919 0.939166315,0.0447156503" id="Fill-157" fill="#0A0A08"></path>
                <path d="M0.12674876,0.154620132 C0.104431047,0.649785452 0.145368863,1.14772814 0.248241632,1.63244526 C0.272936379,1.74869802 0.313742137,1.87989566 0.422821607,1.92658193 C0.52186471,1.96890375 0.641244663,1.91864658 0.710178662,1.83585452 C0.779112661,1.7529302 0.80842942,1.6448773 0.832463879,1.53973402 C0.944052441,1.05078472 0.980104131,0.544509919 0.939166315,0.0447156503" id="Stroke-159" stroke="#0A0A08" stroke-width="0.5" stroke-linecap="round" stroke-linejoin="round"></path>
            </g>
            <path d="M89.4483624,102.699536 C88.5313553,106.583356 88.3286471,110.595597 88.1295044,114.581652 C87.7565741,122.047882 87.3847003,129.55379 88.2255102,136.981931" id="Stroke-161" stroke="#0A0A08" stroke-width="0.5" stroke-linecap="round" stroke-linejoin="round"></path>
            <path d="M100.785245,103.289436 C102.047979,114.64319 102.673667,126.057253 103.298827,137.464043" id="Stroke-163" stroke="#0A0A08" stroke-width="0.5" stroke-linecap="round" stroke-linejoin="round"></path>
            <path d="M94.3948918,67.4624658 C93.8238753,76.7612314 94.5497953,86.4279324 95.1216041,95.726698" id="Stroke-165" stroke="#0A0A08" stroke-width="0.5" stroke-linecap="round" stroke-linejoin="round"></path>
            <g id="Group-170" transform="translate(68.893366, 19.616165)">
                <path d="M0.119261101,9.09212932 C0.427087064,8.40334166 0.870668105,7.78570757 1.31134388,7.17362821 C2.90065553,4.96509037 4.50753083,2.73684644 6.53963118,0.928646583 C6.9820237,0.534921381 7.48859616,0.14423806 8.07994951,0.119638501 C8.22283569,0.317096253 8.04918012,0.583459221 7.88384416,0.762533431 C6.79040831,1.94556062 5.69697246,3.1285878 4.60366867,4.31161499 C5.39125942,3.86168112 6.04018982,3.2097928 6.72794513,2.61794857 C7.41570043,2.02610434 8.18136964,1.47406907 9.06945613,1.29076267 C8.55073439,2.14341514 7.75337138,2.78273916 6.97251556,3.40354739 C6.53606562,3.75058633 6.09961569,4.09749302 5.66316575,4.44453196 C6.97264762,3.63697869 8.28873237,2.82585452 9.70729371,2.23123292 C8.98520346,3.04275386 6.88033945,4.76273916 6.06488457,5.4802263 C6.68634703,5.16664805 8.67341578,3.96497281 9.34585241,3.7858986 C9.37054716,4.01800735 9.16902746,4.2050169 8.98625992,4.3501014 C6.60486757,6.24003527 4.22334315,8.12996914 1.84181874,10.019903" id="Fill-167" fill="#FFFFFF"></path>
                <path d="M0.119261101,9.09212932 C0.427087064,8.40334166 0.870668105,7.78570757 1.31134388,7.17362821 C2.90065553,4.96509037 4.50753083,2.73684644 6.53963118,0.928646583 C6.9820237,0.534921381 7.48859616,0.14423806 8.07994951,0.119638501 C8.22283569,0.317096253 8.04918012,0.583459221 7.88384416,0.762533431 C6.79040831,1.94556062 5.69697246,3.1285878 4.60366867,4.31161499 C5.39125942,3.86168112 6.04018982,3.2097928 6.72794513,2.61794857 C7.41570043,2.02610434 8.18136964,1.47406907 9.06945613,1.29076267 C8.55073439,2.14341514 7.75337138,2.78273916 6.97251556,3.40354739 C6.53606562,3.75058633 6.09961569,4.09749302 5.66316575,4.44453196 C6.97264762,3.63697869 8.28873237,2.82585452 9.70729371,2.23123292 C8.98520346,3.04275386 6.88033945,4.76273916 6.06488457,5.4802263 C6.68634703,5.16664805 8.67341578,3.96497281 9.34585241,3.7858986 C9.37054716,4.01800735 9.16902746,4.2050169 8.98625992,4.3501014 C6.60486757,6.24003527 4.22334315,8.12996914 1.84181874,10.019903" id="Stroke-169" stroke="#0A0A08" stroke-width="0.5" stroke-linecap="round" stroke-linejoin="round"></path>
            </g>
            <path d="M76.6303229,25.0468611 C77.0967499,25.4060676 77.6039826,25.6927979 78.1797532,25.7815415 C78.2011465,25.5511521 78.2224078,25.3208949 78.243669,25.0906378 C78.2564786,24.9522983 78.3023025,24.777853 78.4400385,24.7614533 C78.498672,24.7544438 78.5554567,24.781424 78.6084117,24.8078751 C78.8200999,24.9130184 79.0316559,25.0182939 79.2433441,25.1235694 C79.1837861,24.9310051 79.1235679,24.7316958 79.1461498,24.5313284 C79.1688636,24.3310933 79.2970914,24.1282131 79.4934609,24.0841719 C79.8053806,24.0144732 80.0642133,24.352122 80.3808871,24.3948406 C80.6060451,24.0228053 80.4854766,23.5466848 80.3587014,23.1306084 C80.0269731,22.0422763 79.6952447,20.9540764 79.3636484,19.8657443 C79.2486264,19.4885511 79.132944,19.1095062 78.9607411,18.7549287 C78.7688616,18.359881 78.5089725,18.00041 78.2150125,17.6742675 C77.7662813,17.176457 77.1565719,16.7278457 76.4906061,16.7980735 C76.0924528,16.8401308 75.7197866,17.0792491 75.5152296,17.4240397 C75.3108047,17.7688303 75.2792429,18.2109611 75.4328258,18.581277 C74.7720102,18.2245834 73.9894376,17.8603512 73.3027388,18.1642748 C72.7105931,18.4261411 72.4102944,19.1339735 72.4579671,19.7804394 C72.5055078,20.4269052 72.8352553,21.0184849 73.2110909,21.5463174 C73.3663905,21.7645393 73.5305379,21.9756194 73.7015523,22.1811447" id="Stroke-171" stroke="#0A0A08" stroke-width="0.5" stroke-linecap="round" stroke-linejoin="round"></path>
            <path d="M120.605262,35.4400955 C118.045196,32.8936444 116.613561,29.6763924 114.167461,27.0577296 C113.377097,26.2116899 112.489935,25.3747759 111.416704,24.8599045 C111.258499,25.0246951 111.406007,25.3258413 111.553383,25.5695885 C111.809971,25.9943938 112.210501,26.3205364 112.534042,26.7223292 C112.941571,27.2284717 113.393868,27.6690154 113.832827,28.1595518 C114.271918,28.6499559 114.565878,29.3165246 114.656734,29.8635342 C113.758082,29.1875753 113.0731,28.331881 112.343879,27.5222116 C111.614658,26.7125422 110.781639,25.9037987 109.757666,25.4451359 C109.503455,25.5300441 110.555425,26.5222263 110.954238,27.0607715 C111.218353,27.4173328 111.61096,27.8248126 111.920767,28.1595518 C112.592807,28.8860323 113.37921,29.5056503 113.643457,30.3329096 C112.096271,29.227781 108.799985,27.3185378 108.663966,27.5784203 C108.570997,27.646532 108.69315,27.8069581 108.805927,27.9073402 C109.737065,28.7352608 110.692104,29.5433431 111.669197,30.3297355 C112.218689,30.7721308 112.786272,31.2187583 113.188255,31.7550551 C113.249925,31.8374504 113.309087,31.9254004 113.322953,32.0126892 C113.350157,32.1848861 113.400075,32.3307641 113.147449,32.4312785 C112.972208,32.5011095 112.572603,32.4853711 112.371743,32.4312785 C111.369691,32.1618736 110.571404,31.9777737 109.452349,31.9011976 C109.242509,31.8867818 109.013654,31.9522483 108.941815,32.1113519 C108.868126,32.2744232 109.109263,32.6263556 109.336138,32.7157605 C109.768758,32.8859735 109.879158,32.8861058 110.116862,32.9191697 C111.828327,33.1565687 113.109416,33.8921749 114.618173,34.3463409 C116.126929,34.8006392 118.073985,35.3956576 119.075641,36.5789493" id="Stroke-173" stroke="#0A0A08" stroke-width="0.5" stroke-linecap="round" stroke-linejoin="round"></path>
            <path d="M71.7491355,15.2235165 C71.6873326,15.3786525 71.798525,15.5455591 71.9103776,15.6694827 C72.7731091,16.6266172 74.0149775,17.1508788 74.9745071,18.0105408 C74.5465088,17.1506143 74.3456494,16.1785349 74.3979442,15.2190198 C74.9057052,16.2094827 75.2404708,17.2886892 75.3825647,18.392892 C75.2606756,18.3760955 75.1762909,18.266191 75.1059043,18.1651477 L74.1874446,16.8474842 C73.6906444,16.1347583 73.1402288,15.3801073 72.3198878,15.0962866 C72.1158591,15.025662 71.8291623,15.0226201 71.7491355,15.2235165 Z" id="Stroke-175" stroke="#0A0A08" stroke-width="0.5" stroke-linecap="round" stroke-linejoin="round"></path>
            <path d="M102.602013,48.8191609 C102.529909,48.5501528 102.357838,48.3750463 102.1031,48.2708288 C101.893921,48.1851271 101.857209,48.1086833 101.758298,47.8981323 C101.665461,47.7006745 101.450472,47.6418207 101.254762,47.6739589 C101.046244,47.4972652 100.650732,47.5766187 100.493451,47.8056855 C100.262086,48.1428053 100.181003,48.5194695 100.136632,48.919543 C100.097411,49.2714754 100.063472,49.6973387 100.258389,50.0086686 C100.369713,50.1864203 100.598305,50.3038633 100.808408,50.232842 C101.427758,50.0230845 101.766617,49.6591168 102.268832,49.2410566 C102.399569,49.1322101 102.644007,48.9754871 102.602013,48.8191609" id="Fill-177" fill="#0A0A08"></path>
            <path d="M89.9114615,48.8617737 C89.7901007,48.6780705 89.6111628,48.567637 89.4327532,48.4442425 C89.2213292,48.2980999 89.1724679,48.0629493 88.880885,48.0220823 C88.825685,48.0142792 88.7737864,48.0138824 88.7240007,48.0174533 C88.5931318,47.6824497 88.074278,47.5189816 87.8475353,47.9251389 C87.5243907,48.5042866 87.2153762,48.9554107 87.4459485,49.6259471 C87.5304653,49.8714137 87.5703467,50.0801132 87.7920712,50.2449037 C87.8710415,50.3036253 87.9538416,50.3389375 88.0383584,50.3567921 C88.2067316,50.5397017 88.5116523,50.5861234 88.7414323,50.3828464 C89.1085521,50.0578942 89.6355935,49.756748 89.9114615,49.3541616 C90.0040338,49.2189963 90.0009965,48.9973358 89.9114615,48.8617737" id="Fill-179" fill="#0A0A08"></path>
            <path d="M95.0540171,70.7319721 C94.6352629,70.7319721 94.6352629,71.3824056 95.0540171,71.3824056 C95.4727713,71.3824056 95.4727713,70.7319721 95.0540171,70.7319721" id="Fill-181" fill="#0A0A08"></path>
            <path d="M95.3426551,72.6108758 C94.9239009,72.6108758 94.9239009,73.2613093 95.3426551,73.2613093 C95.7614093,73.2613093 95.7614093,72.6108758 95.3426551,72.6108758" id="Fill-183" fill="#0A0A08"></path>
            <path d="M95.4869543,74.9956312 C95.0682001,74.9956312 95.0682001,75.6460647 95.4869543,75.6460647 C95.9057085,75.6460647 95.9057085,74.9956312 95.4869543,74.9956312" id="Fill-185" fill="#0A0A08"></path>
            <path d="M95.4869543,77.452651 C95.0682001,77.452651 95.0682001,78.1030845 95.4869543,78.1030845 C95.9057085,78.1030845 95.9057085,77.452651 95.4869543,77.452651" id="Fill-187" fill="#0A0A08"></path>
            <path d="M95.4869543,78.9702322 C95.0682001,78.9702322 95.0682001,79.6206657 95.4869543,79.6206657 C95.9057085,79.6206657 95.9057085,78.9702322 95.4869543,78.9702322" id="Fill-189" fill="#0A0A08"></path>
            <path d="M95.4147981,80.5600647 C94.9960439,80.5600647 94.9960439,81.2104982 95.4147981,81.2104982 C95.8335523,81.2104982 95.8335523,80.5600647 95.4147981,80.5600647" id="Fill-191" fill="#0A0A08"></path>
            <path d="M95.4869543,82.3666907 C95.0682001,82.3666907 95.0682001,83.0171242 95.4869543,83.0171242 C95.9057085,83.0171242 95.9057085,82.3666907 95.4869543,82.3666907" id="Fill-193" fill="#0A0A08"></path>
            <path d="M95.6312667,84.3901234 C95.2125125,84.3901234 95.2125125,85.0405569 95.6312667,85.0405569 C96.0500209,85.0405569 96.0500209,84.3901234 95.6312667,84.3901234" id="Fill-195" fill="#0A0A08"></path>
            <path d="M95.7034229,87.4252726 C95.2846687,87.4252726 95.2846687,88.0757061 95.7034229,88.0757061 C96.1221771,88.0757061 96.1221771,87.4252726 95.7034229,87.4252726" id="Fill-197" fill="#0A0A08"></path>
            <path d="M95.7755923,89.2319118 C95.3568381,89.2319118 95.3568381,89.8823453 95.7755923,89.8823453 C96.1943465,89.8823453 96.1943465,89.2319118 95.7755923,89.2319118" id="Fill-199" fill="#0A0A08"></path>
            <path d="M96.0642039,91.9779897 C95.6454497,91.9779897 95.6454497,92.6284232 96.0642039,92.6284232 C96.4829581,92.6284232 96.4829581,91.9779897 96.0642039,91.9779897" id="Fill-201" fill="#0A0A08"></path>
            <path d="M101.548141,48.1309816 C101.199113,48.1309816 101.199113,48.6729655 101.548141,48.6729655 C101.897169,48.6729655 101.897169,48.1309816 101.548141,48.1309816" id="Fill-203" fill="#FFFFFF"></path>
            <path d="M88.9567388,48.3477752 C88.6077109,48.3477752 88.6077109,48.889759 88.9567388,48.889759 C89.3057667,48.889759 89.3057667,48.3477752 88.9567388,48.3477752" id="Fill-205" fill="#FFFFFF"></path>
            <path d="M115.903105,31.1680382 C115.559756,31.0183248 115.116175,30.8434827 114.804783,31.1553417 C114.627166,31.3332256 114.611583,31.539809 114.675367,31.7376635 C114.591114,31.9348567 114.65054,32.1571785 114.789861,32.336914 C115.206502,32.8742689 115.673985,33.4971932 116.409281,33.5305217 C116.654908,33.5416312 116.860654,33.3556796 116.931041,33.1325643 C117.169932,32.376194 116.590993,31.4679941 115.903105,31.1680382" id="Fill-207" fill="#F5C8C1"></path>
            <path d="M104.249509,51.2261352 C103.858751,51.1528655 103.47103,51.1737619 103.084762,51.262241 C102.933424,51.296892 102.826326,51.371881 102.756863,51.4676341 C102.684232,51.5153784 102.622825,51.5796547 102.582679,51.6613887 C102.556664,51.714291 102.530649,51.7671932 102.504634,51.8200955 C102.340618,52.1537766 102.46528,52.5996106 102.860396,52.6958927 C103.479218,52.8467965 104.739178,52.9146436 104.95945,52.1125129 C105.095997,51.6152314 104.676187,51.3060176 104.249509,51.2261352" id="Fill-209" fill="#F1B628"></path>
            <path d="M84.4349458,51.4596326 C83.9785552,51.2411462 83.5266545,51.1818957 83.0293261,51.2754004 C82.9573548,51.2888905 82.8931748,51.3194416 82.8369183,51.3608376 C82.6950886,51.4046143 82.5619747,51.4370169 82.4465565,51.5524761 C82.3228186,51.6763997 82.24332,51.8780896 82.2637889,52.0538575 C82.3138387,52.4814401 82.6244379,52.7135489 83.0430601,52.7245261 C83.6221321,52.7398677 84.5094262,52.8472594 84.7085689,52.1329464 C84.7756541,51.8919765 84.6722531,51.5732403 84.4349458,51.4596326" id="Fill-211" fill="#F1B628"></path>
            <path d="M96.0619457,41.8977311 C96.1675917,41.3519118 95.8991189,40.7533226 95.4213349,40.4700309 C95.7712872,40.5344394 96.1579515,40.6217281 96.3592071,40.915468 C96.5966464,40.491853 96.5517469,39.9416694 96.3000453,39.5263865 C96.0483438,39.1111036 95.6130824,38.8266216 95.1455989,38.6968788 C95.6202135,38.771471 96.1052606,38.8496341 96.5277124,39.0784364 C96.9502963,39.3073711 97.3055309,39.7200088 97.3319424,40.2003615 C97.5361033,39.7779368 97.7852957,39.3773343 98.0739733,39.0076796 C98.1854298,38.8649758 98.620163,38.5869743 98.7881401,38.5196561 C98.9404024,38.4586863 99.3007872,38.3338369 99.4646706,38.3434916 C99.0045823,38.8313828 98.514385,39.6775547 98.449941,40.2360705 C98.6964923,40.0839765 99.1343948,40.1363497 99.327859,40.352191 C98.9253479,40.5561293 98.5592845,40.8317502 98.2515906,41.1621249 C98.3368998,41.1667539 98.9963948,41.2947774 99.045256,41.3651374 C98.7536731,41.4821837 97.9932862,41.8156003 97.9679312,42.1290463" id="Stroke-213" stroke="#0A0A08" stroke-width="0.5" stroke-linecap="round" stroke-linejoin="round"></path>
            <path d="M105.162079,139.48524 C110.546062,139.428767 115.978774,139.365284 120.404812,139.448076 C118.128406,141.343168 115.113666,144.459509 112.847295,147.148929 C100.481698,147.172073 88.1161006,147.195086 75.7505032,147.218231 C77.8300122,145.089179 79.1780548,144.160347 80.9397015,142.747195 C82.9938554,141.099421 83.3057752,140.151809 85.3974334,139.673308 C85.7920212,139.583109 86.2797094,139.526372 86.8129575,139.492514" id="Stroke-215" stroke="#0A0A08" stroke-width="0.5" stroke-linecap="round" stroke-linejoin="round"></path>
            <path d="M90.4193942,139.481656 C90.7855895,139.501473 91.1226002,139.521025 91.4131266,139.531858 C94.3956446,139.643094 97.8353455,139.621957 101.409217,139.561715" id="Stroke-217" stroke="#0A0A08" stroke-width="0.5" stroke-linecap="round" stroke-linejoin="round"></path>
            <path d="M75.7080731,147.218257 C75.8988396,150.393584 75.9141643,153.571424 75.7537831,156.747148" id="Stroke-219" stroke="#0A0A08" stroke-width="0.5" stroke-linecap="round" stroke-linejoin="round"></path>
            <path d="M112.869072,147.135148 C112.868545,149.8206 113.030283,152.506184 113.353496,155.186742" id="Stroke-221" stroke="#0A0A08" stroke-width="0.5" stroke-linecap="round" stroke-linejoin="round"></path>
            <path d="M75.6458741,156.846134 C64.0009143,157.55477 52.4409996,157.289494 40.7951154,156.647969" id="Stroke-223" stroke="#0A0A08" stroke-width="0.5" stroke-linecap="round" stroke-linejoin="round"></path>
            <path d="M113.111503,155.186702 C122.873191,155.359428 132.626692,154.553065 142.38838,154.725924" id="Stroke-225" stroke="#0A0A08" stroke-width="0.5" stroke-linecap="round" stroke-linejoin="round"></path>
            <path d="M40.7215367,156.748391 C40.9872364,163.633226 40.8496325,170.521896 40.3089892,177.40263 C40.2936705,177.59665 40.3673586,177.850845 40.7487406,177.886554 C41.1298584,177.922263 40.9658431,177.497325 40.7413454,177.655768" id="Stroke-227" stroke="#0A0A08" stroke-width="0.5" stroke-linecap="round" stroke-linejoin="round"></path>
            <path d="M142.388433,154.725897 C142.388433,161.544868 142.964148,168.413436 142.964148,175.232407" id="Stroke-229" stroke="#0A0A08" stroke-width="0.5" stroke-linecap="round" stroke-linejoin="round"></path>
            <path d="M40.7904802,177.664576 C76.3534248,176.482475 108.592087,176.423224 142.676648,175.300373" id="Stroke-231" stroke="#0A0A08" stroke-width="0.5" stroke-linecap="round" stroke-linejoin="round"></path>
            <path d="M40.5143348,156.748391 C45.7337743,154.193343 49.7440955,152.803865 54.5768707,150.956517" id="Stroke-233" stroke="#0A0A08" stroke-width="0.5" stroke-linecap="round" stroke-linejoin="round"></path>
            <path d="M113.111503,155.186702 C117.011424,153.271904 116.623043,153.491052 120.404773,151.796195" id="Stroke-235" stroke="#0A0A08" stroke-width="0.5" stroke-linecap="round" stroke-linejoin="round"></path>
            <path d="M142.388433,154.725897 C144.703532,152.761636 145.276001,152.31104 147.83686,150.331437" id="Stroke-237" stroke="#0A0A08" stroke-width="0.5" stroke-linecap="round" stroke-linejoin="round"></path>
            <path d="M54.5768707,150.956504 C61.6313807,150.78153 68.6858908,150.606555 75.7404008,150.431581" id="Stroke-239" stroke="#0A0A08" stroke-width="0.5" stroke-linecap="round" stroke-linejoin="round"></path>
            <path d="M120.404812,151.796248 C128.77237,151.745859 139.469289,150.381774 147.836846,150.331384" id="Stroke-241" stroke="#0A0A08" stroke-width="0.5" stroke-linecap="round" stroke-linejoin="round"></path>
            <path d="M120.440637,139.44801 C120.688739,143.146409 120.192535,148.097929 120.440637,151.796195" id="Stroke-243" stroke="#0A0A08" stroke-width="0.5" stroke-linecap="round" stroke-linejoin="round"></path>
            <path d="M147.836794,150.331437 C147.784367,156.745838 147.945609,164.036963 148.537491,170.424119" id="Stroke-245" stroke="#0A0A08" stroke-width="0.5" stroke-linecap="round" stroke-linejoin="round"></path>
            <path d="M142.738134,175.304275 C144.900839,173.378103 146.637131,171.875546 148.537438,170.42404" id="Stroke-247" stroke="#0A0A08" stroke-width="0.5" stroke-linecap="round" stroke-linejoin="round"></path>
            <path d="M91.5111793,154.950454 C92.0003202,153.849029 92.432016,152.722078 92.804286,151.575818 C92.9095358,154.997934 93.0147856,157.433026 93.1200354,160.855142" id="Stroke-249" stroke="#2F407A" stroke-width="0.861619573" stroke-linecap="round" stroke-linejoin="round"></path>
            <path d="M55.38773,165.545206 C55.4538907,164.997932 55.6913301,164.462297 56.0976709,164.090262 C56.5040117,163.718359 57.085989,163.527646 57.623595,163.646147 C57.8871817,163.704207 58.1316201,163.831702 58.3522881,163.987367 C59.1059401,164.519167 59.5973259,165.584222 59.1361812,166.38384 C59.0257812,166.575346 58.8702175,166.736434 58.7097677,166.888528 C58.1927627,167.378799 57.6082763,167.797653 56.977966,168.12935 C56.2364633,168.519769 54.5669928,169.602943 53.958604,170.179843 L59.6188513,170.179843" id="Stroke-251" stroke="#2F407A" stroke-width="0.861619573" stroke-linecap="round" stroke-linejoin="round"></path>
            <path d="M125.964379,159.726789 C127.388091,159.659603 128.814179,159.645716 130.238815,159.684864 C129.616296,160.252373 128.993777,160.81975 128.371258,161.387259 C129.348087,161.571756 130.303919,162.266627 130.716203,162.999985 C131.128486,163.733343 131.123204,164.633475 130.96249,165.459544 C130.902536,165.767436 130.821057,166.075459 130.665889,166.347906 C130.525248,166.594827 130.327558,166.805643 130.108078,166.985907 C129.366972,167.59468 128.35277,167.85615 127.410144,167.681572 C126.467518,167.506995 125.613898,166.899412 125.139152,166.065408" id="Stroke-253" stroke="#2F407A" stroke-width="0.861619573" stroke-linecap="round" stroke-linejoin="round"></path>
            <path d="M136.992221,15.0734328 C136.781193,15.1522572 136.597765,15.1789728 136.438768,15.165086 C136.60516,14.7457032 136.832035,14.3531683 137.088095,13.9813975 C137.318931,13.6465261 138.182587,12.8937267 138.500845,13.4538295 C138.135839,14.1066436 137.718405,14.8023086 136.992221,15.0734328 M138.884472,12.5745937 C138.130292,11.9999427 137.136956,12.5448361 136.596973,13.122529 C136.216383,13.529612 135.914896,14.0015004 135.685248,14.5106848 C135.581583,14.2392961 135.537872,13.9161954 135.5384,13.6048655 C135.541438,11.653036 135.98832,9.68824541 136.746462,7.89485819 C136.975978,7.35181631 136.179935,6.87953123 135.948307,7.42759882 C135.453355,8.59845849 135.083858,9.7960338 134.856852,11.0477017 C134.661935,12.123205 134.451567,13.400266 134.674744,14.4848949 C134.775636,14.9751668 134.991154,15.3583115 135.308356,15.6285099 C135.031828,16.8128597 135.083462,18.0897884 135.426151,19.201662 C135.601392,19.7702292 136.493836,19.52754 136.317539,18.9555342 C136.018957,17.9866289 135.981189,17.0112432 136.184161,16.0387671 C136.256529,16.053712 136.330481,16.066673 136.40747,16.0756664 C137.347323,16.1851741 138.224581,15.5115959 138.742114,14.7974151 C138.978629,14.4710081 139.473713,13.9103762 139.473713,13.4875547 C139.473713,13.0906554 139.17315,12.7945349 138.884472,12.5745937" id="Fill-255" fill="#EEE75F"></path>
            <path d="M159.183369,40.3241925 C159.602388,40.5327597 159.503741,41.0403571 159.247549,41.3121425 C159.00047,41.5744056 158.574188,41.6238692 158.241404,41.5704379 C158.176563,41.5599897 158.11344,41.5450448 158.051109,41.5279838 C158.282341,40.9168303 158.687626,40.0774034 159.183369,40.3241925 M157.032021,32.5332741 C157.280289,32.3606804 158.089009,32.1584614 158.153585,32.6687039 C158.193995,32.9875724 158.005417,33.2781381 157.796238,33.495302 C157.379861,33.9279104 156.76368,33.792745 156.282331,33.5098501 C156.453213,33.124986 156.686163,32.7738472 157.032021,32.5332741 M160.014803,41.8463233 C160.989784,40.8120838 160.000937,39.1698648 158.67442,39.3781675 C157.931465,39.494817 157.526048,40.4146554 157.251633,41.0920691 C156.462721,40.421665 155.986918,39.2158898 155.78289,38.3369184 C155.487081,37.0627671 155.635249,35.7006657 155.967902,34.4509816 C155.972128,34.4349787 155.976618,34.4187112 155.980976,34.402576 C156.20138,34.5131418 156.440932,34.5992403 156.705047,34.6496297 C157.938068,34.8847803 159.409452,33.7360073 159.041672,32.3895121 C158.615522,30.8287627 156.526109,31.4229875 155.835713,32.4368597 C155.743537,32.5722895 155.659548,32.7143321 155.580446,32.8598134 C155.240794,32.3441484 155.115735,31.6632961 155.05697,31.0767421 C154.898369,29.4931124 155.298767,27.8974475 156.080283,26.5243688 C156.376092,26.0048685 155.577276,25.5386672 155.282128,26.0571095 C154.376742,27.6476165 153.970269,29.4559486 154.153036,31.2810771 C154.245345,32.2034284 154.571526,33.1317311 155.174237,33.7894386 C154.811475,34.8488068 154.693019,36.0322307 154.711904,37.0933181 C154.739768,38.6612094 155.258754,40.1719662 156.278501,41.3659706 C156.467079,41.5867054 156.686955,41.7850889 156.926243,41.9523924 C156.646942,42.8004159 156.493887,43.6887774 156.42284,44.5772711 C156.253278,46.698388 156.777414,48.8639427 157.824762,50.7058677 C158.119647,51.2244423 158.918462,50.758241 158.622918,50.2386084 C157.259688,47.8412094 156.984084,45.0012829 157.768902,42.3753461 C158.541042,42.6227965 159.376305,42.523737 160.014803,41.8463233" id="Fill-257" fill="#EEA29E"></path>
            <path d="M51.8785932,16.1127112 C51.4350122,15.4428361 51.0410847,14.685011 51.2606963,13.8877737 C51.3582868,13.5338575 51.6612266,13.1866863 52.0198947,13.0750625 C52.2863867,14.12795 52.448025,15.2853196 51.8785932,16.1127112 M55.5732971,16.8901102 C55.2201754,15.7710948 54.7323551,14.6924173 54.1548678,13.6725937 C53.8137634,13.070169 53.3682015,12.4527994 52.7376271,12.2208229 C52.1203904,9.86944893 51.4777988,7.52442322 50.8484129,5.17635562 C50.6940377,4.60038207 49.8023857,4.84505511 49.957025,5.42248347 C50.5240797,7.53804555 51.0910025,9.65360764 51.6580572,11.769302 C51.6931845,11.9003674 51.7322735,12.0383101 51.7733434,12.181543 C50.9762445,12.3957972 50.4249046,13.2062601 50.2916586,13.9915944 C50.0993829,15.1243644 50.8159268,16.2058193 51.4270887,17.0850551 C51.6090639,17.3467891 51.9105511,17.3762821 52.1530086,17.1786921 C53.2140904,16.3138722 53.2744407,14.9415871 53.0656578,13.66241 C53.1347239,13.7660985 53.1958665,13.8684644 53.2492177,13.9560176 C54.2253865,15.5580309 54.846981,17.3609405 55.2060453,19.1962528 C55.931569,22.9048347 55.3209353,26.8688024 53.5268025,30.1873622 C53.2428789,30.7122851 54.0410343,31.1796767 54.3249578,30.6546216 C56.5951578,26.4557678 57.0063848,21.4330933 55.5732971,16.8901102" id="Fill-259" fill="#EEE75F"></path>
            <path d="M42.6518658,62.2093226 C42.3097049,61.1030037 41.6936568,60.1091021 40.8635435,59.3060456 C40.159149,58.6247965 38.1637606,57.2804173 39.2793821,56.1272799 C39.6941746,55.698507 39.0411504,55.04318 38.6258297,55.4726143 C37.8070734,56.3187862 37.9952553,57.5671477 38.6461665,58.4563027 C39.0349437,58.9873093 39.5677956,59.3905569 40.0577288,59.8215783 C40.5628487,60.2659574 40.9661522,60.7821514 41.296692,61.3668538 C42.6263787,63.7194181 42.2613718,66.7837825 41.9544703,69.3471624 C41.8835554,69.9391389 42.8088821,69.9322616 42.8788726,69.3471624 C43.1618717,66.9837531 43.3660326,64.5187715 42.6518658,62.2093226" id="Fill-261" fill="#EEA29E"></path>
            <path d="M9.62390957,16.3472535 C9.42608748,15.9010228 9.17385772,15.5096782 8.86550352,15.1326172 C8.51911678,14.7091345 8.04793573,14.4097076 7.74908967,13.9448288 C7.20831433,13.1034181 7.7070954,11.9264747 8.52439908,11.5004791 C9.0534213,11.2247259 8.58593786,10.4259015 8.05784004,10.7011256 C7.27513541,11.1090022 6.7578663,11.8871947 6.64839066,12.7623306 C6.52214372,13.7721029 6.93429508,14.547518 7.65070686,15.2274445 C8.54301918,16.07441 9.02133134,17.0119706 9.16527398,18.2408905 C9.30723576,19.4522204 9.14374861,20.6952917 8.96111313,21.8927348 C8.8721064,22.4765114 9.76270198,22.7275327 9.85250106,22.1388626 C10.1399902,20.2536899 10.4232534,18.1506921 9.62390957,16.3472535" id="Fill-263" fill="#BBDBB0"></path>
            <path d="M147.099305,28.0131315 C146.867016,27.089061 146.315412,26.3307068 145.843307,25.5190536 C145.436834,24.8202145 145.039473,23.5676209 145.834063,22.9735283 C146.305772,22.6209346 145.845684,21.8165555 145.367504,22.1741749 C144.494472,22.8268567 144.351586,23.8236679 144.568028,24.8446819 C144.834388,26.1023012 145.894941,27.0143365 146.207918,28.2592594 C146.353445,28.837878 147.244965,28.5922792 147.099305,28.0131315" id="Fill-265" fill="#BBDBB0"></path>
            <path d="M136.887869,35.4059603 C136.600248,34.8830213 135.801828,35.3500162 136.089714,35.8732197 C136.952049,37.4409787 137.291041,39.229737 137.025869,41.0038148 C136.938711,41.5875915 137.829307,41.838745 137.917257,41.2499427 C138.220989,39.2179662 137.879621,37.2088699 136.887869,35.4059603" id="Fill-267" fill="#F1B628"></path>
            <path d="M166.026667,6.3598457 C165.68992,5.56684056 163.547948,3.64106539 164.711771,2.81843497 C165.194573,2.47708303 164.733428,1.67376194 164.245212,2.0189493 C163.057619,2.85850845 163.472015,4.31398237 164.213122,5.30603233 C164.693679,5.94932403 165.144787,6.51947832 165.398866,7.29449669 C165.675658,8.13842028 165.64753,9.04423953 165.408242,9.89067597 C165.245547,10.4662528 166.137595,10.7102645 166.29963,10.1368038 C166.661467,8.85670096 166.543804,7.57739162 166.026667,6.3598457" id="Fill-269" fill="#EEA29E"></path>
            <path d="M64.9736628,7.14771932 C64.3177334,5.96826304 64.3425602,4.44996767 64.9471193,3.26217928 C65.2173089,2.73156943 64.4198138,2.26298751 64.1489639,2.79491991 C63.5919455,3.88920353 63.4583034,5.0638986 63.6846499,6.26610287 C63.7963705,6.85860838 64.0520338,7.42876267 64.3652741,7.93979868 C64.6696666,8.43628655 65.7072421,9.14702866 65.5746564,9.7636047 C65.4493339,10.3457943 66.3404577,10.5932447 66.4660443,10.0097325 C66.7265937,8.79774137 65.4977989,8.0901734 64.9736628,7.14771932" id="Fill-271" fill="#EEA29E"></path>
            <path d="M4.71965881,42.8301734 C4.4799745,42.9474842 4.20450262,43.0023703 3.9443494,43.0505114 C3.6270153,43.1092329 3.29938072,43.1002395 2.97914135,43.0485276 C3.39948028,42.5533622 3.95689486,42.2497032 4.70262339,42.4241484 C4.84524546,42.4654122 4.97162446,42.5359045 5.08189245,42.6356253 C5.07317665,42.6283512 4.74527795,42.8176091 4.71965881,42.8301734 M3.22159887,51.2552579 C3.37267261,51.211349 3.5254631,51.204604 3.67970623,51.2350228 C4.04312839,51.2965217 3.78640867,51.4324805 3.64708803,51.5898648 C3.37016352,51.902914 2.93886382,51.873421 2.60053259,51.7069111 C2.59260914,51.7029434 2.58534598,51.69805 2.57742253,51.69395 C2.74262642,51.4997987 2.95154134,51.344795 3.22159887,51.2552579 M6.02966891,42.4818119 C5.78021235,41.810482 5.16548482,41.5417384 4.4933123,41.4547142 C3.43090996,41.3171683 2.61836034,41.9537149 2.04721179,42.7690713 C0.862524223,42.1819882 0.938457268,40.8325834 1.17140664,39.6176826 C1.48240199,37.9964923 2.10452473,36.4532006 2.94388201,35.0367421 C3.24893476,34.5221352 2.4495909,34.0567274 2.14572666,34.5694827 C1.18315976,36.1938472 0.523532697,37.9630316 0.197086631,39.8238692 C-0.0626704119,41.3043395 0.118380379,42.6574475 1.46880007,43.4964776 C1.5065685,43.5198868 1.54592163,43.5407832 1.58461447,43.5624732 C1.50934171,43.7176091 1.44159623,43.8724805 1.38151008,44.023781 C0.727297373,45.6732741 0.271963217,47.5741852 0.447071422,49.3540823 C0.525909732,50.1552873 0.828453395,51.1838398 1.40277133,51.9001367 C1.21208035,52.3655445 1.1051138,52.8715547 1.01373003,53.375978 C0.584939421,55.7411065 0.526173847,58.1636341 0.790817016,60.5503204 C0.855789292,61.1368744 1.78098393,61.1432226 1.71521931,60.5503204 C1.52888622,58.8702763 1.5090776,57.1873226 1.65434081,55.5033108 C1.72723654,54.6575356 1.8530873,53.8137443 2.02925197,52.9834431 C2.06107782,52.8334651 2.09911037,52.6820323 2.14533049,52.5337737 C2.36599852,52.6510845 2.60924838,52.7284541 2.8774571,52.7515988 C3.47897888,52.8037076 4.14190737,52.5471315 4.48340799,52.0260441 C4.86954403,51.4371095 4.85963972,50.7845599 4.20014472,50.4429434 C3.55570427,50.1089978 2.63645222,50.3385937 2.12459746,50.8185496 C2.05077734,50.8877193 1.98342803,50.96046 1.91964427,51.0350522 C1.70359825,50.6742586 1.56771111,50.2485276 1.47051681,49.8816503 C1.04912143,48.2920691 1.5382623,46.5510551 2.0120845,45.0313049 C2.12156014,44.6804306 2.2623334,44.2802248 2.44576123,43.8984026 C3.30571947,44.1094827 4.2635323,44.0270874 5.04518047,43.6903644 C5.4602371,43.5114225 6.250469,43.07564 6.02966891,42.4818119" id="Fill-273" fill="#BBDBB0"></path>
            <path d="M153.707765,64.4176356 C153.514169,63.2951815 153.169103,62.227349 152.690922,61.1946965 C152.440409,60.6535062 151.643839,61.124072 151.892767,61.6619559 C152.336612,62.6205452 152.636911,63.6233079 152.816377,64.6637634 C152.917665,65.2512432 153.808525,65.0014122 153.707765,64.4176356" id="Fill-275" fill="#F1B628"></path>
            <path d="M97.7625554,12.2359398 C97.600785,12.2637134 97.4506357,12.3084159 97.3084098,12.3720309 C97.3048442,12.3631697 97.3014107,12.3541763 97.2978452,12.3453152 C97.4588232,11.753471 97.7165994,11.1871521 98.0681364,10.6787612 C98.1607087,11.2117517 98.0508369,11.7510904 97.7625554,12.2359398 M98.6251548,9.51570463 C98.4868906,9.25740926 98.0986417,9.20913593 97.8992349,9.4220676 C97.4565783,9.89501396 97.0984384,10.4235077 96.8265321,10.9867847 C95.8493068,7.62246436 96.0912361,3.98701984 96.451885,0.5301205 C96.51382,-0.0633108009 95.5888895,-0.0573592946 95.5274827,0.5301205 C95.1125582,4.50691697 94.9189619,8.62311095 96.3393721,12.4066819 C96.0624475,13.6920749 96.183016,15.0601278 96.7256402,16.3164247 C96.961891,16.8630375 97.7579334,16.3911492 97.5239276,15.8491653 C97.2013112,15.1025819 97.0705743,14.298335 97.1116441,13.5044041 C97.2275906,13.4956752 97.3428768,13.4517663 97.426073,13.3783644 C97.7449918,13.0970566 98.1868561,13.2425378 98.4328791,12.9005246 C98.6880142,12.5456826 98.8541425,12.1678281 98.9592602,11.7438163 C99.1469139,10.987446 98.9867282,10.1907377 98.6251548,9.51570463" id="Fill-277" fill="#EEE75F"></path>
            <path d="M121.705077,5.00566642 C121.30349,4.51645261 120.860173,4.08728288 120.56344,3.52017046 C120.316888,3.04881117 120.383709,2.22591624 120.960669,2.0427421 C121.526667,1.86313887 121.284738,0.96922263 120.71491,1.15001616 C119.642075,1.49057458 119.311799,2.69476267 119.63983,3.69435121 C120.069413,5.00315356 122.174145,6.04188979 121.604581,7.57460103 C121.396194,8.13523292 122.289959,8.37501249 122.495969,7.82072888 C122.88052,6.78569581 122.355856,5.79853931 121.705077,5.00566642" id="Fill-279" fill="#EEA29E"></path>
            <path d="M109.777421,13.6869434 C109.646288,13.1046216 108.755164,13.351543 108.886033,13.9330713 C109.360252,16.03964 109.276263,18.1914401 108.656518,20.2587289 C108.484711,20.8319251 109.377023,21.0751433 109.547905,20.5048567 C110.214928,18.2799192 110.287295,15.9519544 109.777421,13.6869434" id="Fill-281" fill="#F1B628"></path>
            <path d="M128.821403,24.2404188 C128.404233,22.4714989 127.987064,20.7027112 127.569894,18.9337913 C127.43295,18.3529243 126.541563,18.5993167 126.678506,19.1799192 L127.930015,24.4865467 C128.066958,25.0674137 128.958346,24.8210213 128.821403,24.2404188" id="Fill-283" fill="#F1B628"></path>
            <path d="M33.7840259,22.5930683 C33.1280964,21.6522013 33.4105673,20.4496003 33.5485674,19.3903644 C33.6819454,18.3665731 33.7128469,17.3023115 33.1096084,16.4142145 C32.7765594,15.9236782 31.9751026,16.3863086 32.311453,16.8814739 C32.9552332,17.8293505 32.6685364,19.0357869 32.5311966,20.0958163 C32.3990071,21.1165658 32.3731238,22.1814886 32.9858705,23.0603277 C33.3243338,23.5459706 34.1261868,23.0838692 33.7840259,22.5930683" id="Fill-285" fill="#BBDBB0"></path>
            <path d="M28.1728054,58.39841 C27.9150292,56.8589537 27.8692053,55.3068009 28.0112991,53.7533255 C28.0657068,53.1585716 27.1409084,53.1638619 27.0868968,53.7533255 C26.9368796,55.3926348 27.0097753,57.0217605 27.2814175,58.6445378 C27.3798003,59.2322821 28.2705279,58.9821866 28.1728054,58.39841" id="Fill-287" fill="#EEE75F"></path>
            <path d="M52.3839639,39.2889743 C50.78937,37.7204217 50.2660262,35.3589963 51.0151883,33.2556018 C51.2159156,32.6917957 50.3225468,32.4513549 50.1238003,33.0094739 C49.2682,35.4117663 49.9171304,38.1599074 51.7302795,39.94364 C52.1557686,40.362097 52.8097172,39.7078281 52.3839639,39.2889743" id="Fill-289" fill="#F1B628"></path>
            <path d="M134.832672,53.4153328 C134.554955,52.8868391 133.757196,53.3547597 134.034517,53.8825922 C135.081732,55.87595 135.374108,58.1576253 134.864894,60.3512182 C134.730063,60.9320852 135.621319,61.1787421 135.756282,60.5972138 C136.323073,58.1557737 135.998079,55.6333931 134.832672,53.4153328" id="Fill-291" fill="#EEE75F"></path>
            <path d="M173.102712,64.0401117 C173.292083,63.8242704 173.526485,63.688576 173.786902,63.7281205 C173.644544,63.9307362 173.37343,64.0215959 173.102712,64.0401117 M174.579907,63.0677678 C173.749926,62.4796267 172.704031,62.9529699 172.170387,63.722169 C171.824264,63.3580691 171.673454,62.7462542 171.594088,62.3099427 C171.306071,60.7264453 171.760612,58.9189067 172.423013,57.4873711 C172.671941,56.9494871 171.875238,56.4789214 171.624857,57.0201117 C170.705869,59.0061954 170.003324,61.9129111 171.19884,63.9356297 C171.351762,64.1943218 171.559621,64.4046084 171.797985,64.5660926 C171.557376,65.5912065 171.913931,66.6954093 171.706205,67.7603321 C171.592371,68.3434475 172.483363,68.5920882 172.597593,68.00646 C172.77587,67.0921763 172.611855,66.1981278 172.613968,65.2777605 C172.614232,65.1706334 172.631795,65.0464453 172.664017,64.9160411 C173.633848,65.0898251 174.673404,64.6360558 174.808763,63.4675768 C174.828043,63.3008024 174.703777,63.1555856 174.579907,63.0677678" id="Fill-293" fill="#EEE75F"></path>
            <path d="M150.006168,6.74214401 C149.708906,6.22502425 148.910091,6.69109331 149.208012,7.20940338 C150.361798,9.21664805 151.838069,11.3183233 151.856029,13.7211447 C151.860519,14.3178824 152.784921,14.3182792 152.780431,13.7211447 C152.761151,11.1348846 151.248961,8.9042601 150.006168,6.74214401" id="Fill-295" fill="#BBDBB0"></path>
            <path d="M24.6794628,33.4061352 C24.8222169,32.6980382 25.0575433,32.0080602 25.3817444,31.3516752 C25.4439435,32.0960103 25.1862993,32.8529096 24.6794628,33.4061352 M25.9171054,29.9484423 C25.750845,29.6201837 25.2986802,29.6771859 25.118818,29.9484423 C24.383654,31.0579353 23.9093036,32.3024614 23.7054069,33.5904996 C22.3401967,32.9288244 21.9222348,31.1850331 21.9070482,29.7068112 C21.8971439,28.7315577 22.0089966,27.7479721 22.1193966,26.7803894 C22.1805393,26.2446216 22.260302,25.7113666 22.3461393,25.1791697 C22.4101872,24.7825349 22.4583882,24.0769508 22.9094965,23.9212858 C23.4696843,23.7281925 23.2289435,22.833615 22.6637375,23.0285599 C21.9766425,23.2655621 21.6862481,23.8428582 21.5279112,24.5193461 C21.3001121,25.4936738 21.2154633,26.5284423 21.1152316,27.5224761 C20.9265215,29.3960103 20.7745234,31.4535121 21.8383783,33.1088244 C22.2323058,33.7219618 22.830262,34.2582586 23.5115465,34.5256796 C23.5407312,34.5371859 23.5720288,34.5496179 23.6038547,34.5621822 C23.5544652,35.5166716 23.6507351,36.4822704 23.8996634,37.4232697 C24.0520577,37.9999045 24.9438418,37.7549669 24.7910513,37.1771418 C24.574213,36.357421 24.4883756,35.5231521 24.5229747,34.6984056 C24.8314609,34.5887656 25.130307,34.2851065 25.3472774,34.0633137 C26.4005678,32.9872814 26.5822788,31.2625349 25.9171054,29.9484423" id="Fill-297" fill="#EEA29E"></path>
            <path d="M22.4157864,60.9716341 C22.1840256,60.0962337 21.5753727,59.466432 20.9318566,58.8642719 C20.0012476,57.9935004 19.3100589,57.2622586 19.6701796,55.8942057 C19.9963615,54.6551021 20.7588614,53.5856826 20.4201339,52.2508259 C20.1760917,51.2885334 19.1377239,50.6332065 18.1877024,50.8971888 C17.6140448,51.0565569 17.8579549,51.9496796 18.4334614,51.7899148 C19.0620549,51.615205 19.5146159,52.2223909 19.588436,52.7880485 C19.6647652,53.3726187 19.4056685,53.9844335 19.1986023,54.5163659 C18.8085046,55.5180705 18.4052011,56.5238751 18.7695476,57.5980558 C19.278233,59.0973064 21.1197744,59.6895474 21.5243985,61.2177619 C21.6770569,61.7942645 22.568709,61.5494592 22.4157864,60.9716341" id="Fill-299" fill="#EEA29E"></path>
            <path d="M63.6361848,78.7095959 C63.1171989,77.1112858 62.967974,75.4697281 63.1799262,73.8030419 C63.2550669,73.2118589 62.3297402,73.219133 62.2555239,73.8030419 C62.0341956,75.5436591 62.2030971,77.2873181 62.7447969,78.9557237 C62.9283568,79.5208523 63.8210652,79.2789566 63.6361848,78.7095959" id="Fill-301" fill="#EEA29E"></path>
            <path d="M146.204827,48.4809037 C145.974519,48.1168038 145.743683,47.6923953 145.820012,47.2453711 C145.959729,46.4280309 147.036129,46.883784 147.408663,47.2809478 C147.271323,47.6260029 147.087367,47.9423586 146.841212,48.2093828 C146.775184,48.2810654 146.31153,48.649662 146.204827,48.4809037 M148.747462,51.7108523 C148.446899,50.4392138 149.040101,48.3798604 148.417979,47.0629904 C148.505797,46.6818295 148.55928,46.2907494 148.605368,45.9103821 C148.905271,43.4315136 148.400943,40.8896914 147.334447,38.6479574 C147.078123,38.1091477 146.281289,38.5791844 146.536292,39.1152168 C147.24029,40.5950257 147.639896,42.180507 147.741316,43.8155841 C147.786348,44.5439162 147.812099,45.4138942 147.683211,46.2349375 C147.55736,46.1570389 147.418303,46.0878692 147.261287,46.030338 C146.546988,45.7687362 145.696538,45.8528508 145.194324,46.4724688 C144.580653,47.2296326 144.953847,48.5827406 145.594062,49.2239162 C146.170228,49.8010801 147.189712,49.1950845 147.607146,48.742241 C147.68123,48.6618295 147.748315,48.5773181 147.811174,48.4906907 C147.832436,48.8321749 147.810778,49.1793461 147.790441,49.4941146 C147.73643,50.3304996 147.661157,51.1321014 147.856074,51.9569802 C147.993414,52.5377149 148.884802,52.2914548 148.747462,51.7108523" id="Fill-303" fill="#BBDBB0"></path>
            <path d="M177.279778,45.7772843 C177.377368,45.6068068 177.287965,44.9095547 177.324413,44.68882 C177.388725,44.2987979 177.532007,43.9213402 177.716492,43.574169 C177.853303,43.3167994 178.002924,43.2830742 178.151357,43.3779015 C178.000415,44.2104511 177.711738,45.0230301 177.279778,45.7772843 M180.352359,46.8439265 C180.189004,45.6411932 179.898213,44.2796209 179.273185,43.2251462 C179.23304,43.1574313 179.188932,43.0944776 179.14324,43.0340367 C179.403526,40.9313035 178.869617,38.7496135 177.636201,37.0256605 C177.292455,36.5449111 176.490074,37.0064835 176.838045,37.4929199 C177.876677,38.9446907 178.361064,40.7039559 178.262813,42.4384893 C177.913521,42.36641 177.538874,42.4499956 177.193412,42.7393711 C176.449004,43.3629566 176.236127,44.9280705 176.368053,45.8193417 C176.487433,46.6258369 177.406949,47.2525966 177.978758,46.3934636 C178.355122,45.8282028 178.631914,45.1949625 178.828812,44.5391065 C178.945947,44.8469978 179.029011,45.1166672 179.055554,45.2056752 C179.572823,46.9439118 179.689826,48.7753887 179.498607,50.5734048 C179.435484,51.1668361 180.360546,51.1607524 180.423009,50.5734048 C180.555991,49.323324 180.521392,48.0884526 180.352359,46.8439265" id="Fill-305" fill="#BBDBB0"></path>
            <path d="M88.2829816,26.5711345 C88.0878007,26.0112961 87.1945639,26.2521337 87.3915937,26.8172623 C87.97608,28.4938677 88.2454773,30.2237722 88.1937108,31.9991727 C88.1764112,32.5964394 89.1008135,32.5947201 89.118113,31.9991727 C89.1721246,30.148122 88.8924268,28.319687 88.2829816,26.5711345" id="Fill-307" fill="#BBDBB0"></path>
            <path d="M86.6250133,10.237543 C85.9084694,9.56343571 84.3063482,8.56583101 84.8123924,7.36997502 C85.0423045,6.82693314 84.2462621,6.35464805 84.0142371,6.90271565 C83.5793718,7.93021014 83.9651117,8.82743277 84.6280402,9.65522116 C85.3575257,10.5659339 86.8477942,11.1692843 86.9296699,12.4764996 C86.966778,13.0694019 87.8914444,13.0729728 87.8540722,12.4764996 C87.7957028,11.5434357 87.2864891,10.8599383 86.6250133,10.237543" id="Fill-309" fill="#BBDBB0"></path>
        </g>
    </g>
</svg>