<?xml version="1.0" encoding="UTF-8"?>
<svg width="14px" height="14px" viewBox="0 0 14 14" version="1.1" xmlns="http://www.w3.org/2000/svg" xmlns:xlink="http://www.w3.org/1999/xlink">
    <!-- Generator: Sketch 41.2 (35397) - http://www.bohemiancoding.com/sketch -->
    <title>Shape 2</title>
    <desc>Created with Sketch.</desc>
    <defs>
        <path d="M13.6849222,1 L9.73974091,1 C9.01641712,1 8.00620288,1.41844136 7.49476568,1.92987881 L1.3835779,8.04106958 C0.872140701,8.55250702 0.872140701,9.38944443 1.3835779,9.90088188 L6.09914151,14.6163931 C6.6105787,15.1278579 7.44748836,15.1278579 7.95892556,14.6163931 L14.0701133,8.50522968 C14.5815505,7.99376489 14.9999917,6.98352281 14.9999917,6.26025336 L14.9999917,2.31507017 C14.9999917,1.59177338 14.4081913,1 13.6849222,1 L13.6849222,1 Z M10.363592,6.19852887 C10.0057085,6.19852887 9.71559464,5.90841491 9.71559464,5.55053119 C9.71559464,5.19264747 10.0057085,4.9025335 10.363592,4.9025335 C10.7214756,4.9025335 11.0115894,5.19264747 11.0115894,5.55053119 C11.0115894,5.90841491 10.7214756,6.19852887 10.363592,6.19852887 L10.363592,6.19852887 Z" id="path-1"></path>
        <mask id="mask-2" maskContentUnits="userSpaceOnUse" maskUnits="objectBoundingBox" x="0" y="0" width="13.9999917" height="13.9999917" fill="white">
            <use xlink:href="#path-1"></use>
        </mask>
    </defs>
    <g id="Blog" stroke="none" stroke-width="1" fill="none" fill-rule="evenodd">
        <g id="blog-article-768" transform="translate(-130.000000, -2473.000000)" stroke="#30488F" stroke-width="2" fill="#9BADE3">
            <g id="Post-snippet" transform="translate(109.000000, 384.000000)">
                <g id="tags" transform="translate(20.000000, 2087.000000)">
                    <g id="tag" transform="translate(0.000000, 1.000000)">
                        <use id="Shape-2" mask="url(#mask-2)" xlink:href="#path-1"></use>
                    </g>
                </g>
            </g>
        </g>
    </g>
</svg>