<svg xmlns="http://www.w3.org/2000/svg" viewBox="0 0 1356 1009">
  <g fill="none" fill-rule="evenodd">
    <path fill="#FBBC05" d="M1037.872 939.534c-15.847.763-25.45-2.754-40.412 3.123-14.826 5.824-29.73 11.796-42.703 21.212-.964.69-1.633 1.53-2.046 2.42-1.57.8-2.94 1.62-4.02 2.36-5.78 4.01-.29 13.55 5.55 9.5 3.82-2.65 7.72-4.31 12.27-5.27 2.07-.44 4.23-.38 6.33-.29.08.16.18.35.3.57.41.68.94 1.26 1.58 1.73 2.74 2.36 6.7 2.06 9.72.35 1.98-1.13 3.85-2.14 6.03-2.85.6.02 1.02-.03 1.31-.12.15 1.2-.07 2.59-.18 3.56-.5 4.72 5.05 5.37 9.39 3.89 23.49-8.05 33.26-27.41 50.57-34.47 5.33-2.17-6.96-6.07-13.66-5.75m144.1 21.49c-9.06.42-17.87-1.09-26.12-4.92-4.08-1.89-7.6-3.53-12.13-3.98-4.38-.44-9.09 1.54-13.12 2.97-17.42 6.18-34.96 12.7-50.02 23.67-1.61 1.17-2.32 2.78-2.38 4.39-.61.38-1.22.76-1.82 1.17-5.86 3.92-.36 13.46 5.56 9.49 6.26-4.2 13-7.14 20.08-8.81-1.08 4.18 3.13 9.1 7.92 6.26 3.55-2.1 7.17-3.82 11.07-5.15 2.54-.87 6.12-2.11 9.37-2.55-.88 1.47 1.42 2.84.19 4.13-.56.56-3.06 4.94-3.69 6.12-3.3 6.27 3.62 11.17 8.57 6.06 6.41-6.73 9.64-12.63 18.38-16.06 9.63-3.79 17.29-11.94 27.07-15.32 5.62-1.95 7.62-7.81 1.12-7.5M895.31 231.4c-6.774-3.925-13.462-8.072-20.663-11.186-7.69-3.325-15.652-4.296-23.94-4.894-7.082-.51-7.032 10.493 0 11 6.91.5 13.553 1.303 19.97 4.078 6.643 2.873 12.836 6.884 19.082 10.504 6.15 3.565 11.68-5.943 5.55-9.498"/>
    <path fill="#FBBC05" d="M961.476 186.14c-23.437-3.876-34.995-.53-58.062-3.106-5.91-.66-22.266-3.22-28.125-4.225-4.78-.82-11.64-.77-16.5 0-8.6 1.35-16.24 13.08-12.6 21.25.02.05.05.1.07.15.2 1.4 1.02 2.72 2.69 3.61 14.1 7.5 25.4 16.09 37.5 26.65 5.26 4.59 11.51 9.53 15.45 15.3 3.82 5.6 6.84 12.09 11.24 17.16 4.61 5.31 12.09 1.88 15.81-2.36 5.55-6.31 12.04-15.45 16.15-22.75 4.53-8.05 6.45-13.78 10.98-21.83 3.81-6.77 8.56-16.65 9.08-24.54.18-2.8-.89-4.88-3.72-5.34"/>
    <path fill="#30488F" d="M996.47 915.375c-3.062-13.273-6.537-26.438-10.426-39.49-1.934-6.495-3.86-12.936-4.666-19.688-.83-6.942-.755-13.99-.754-20.968 0-3.23-2.52-5.2-5.5-5.5-4.59-.47-9.14-.61-13.748-.4-1.58.07-2.805.68-3.68 1.57-2.347.38-4.363 2.12-4.215 5.22 1.5 31.23 13.4 60.91 33.8 84.59 3.81 4.42 10.35-.34 9.2-5.35m293.71-124.03c-13.81 5.76-28 10.39-42.55 13.89-4.85 1.16-4.83 6.76-2 9.4-.03.59.03 1.23.23 1.9 11.85 41.8 4.39 87.46-19.93 123.43-3.41 5.05 3 9.53 7.53 7.52 23.85-10.58 46.03-25.72 56.13-49.73 12.84-30.5 2.52-67.9 7.37-99.67.55-3.56-2.42-8.58-6.76-6.77M988.7 454.16c-.6-7.01-11.603-7.07-11 0 .097 1.126.19 2.25.288 3.375-.27.39-.512.82-.703 1.315-10.54 27.17-26.107 51.966-39.76 77.605-6.74 12.656-12.91 25.61-17.98 39.03-5.443 14.407-8.81 29.44-11.71 44.533-11.684 60.797-23.92 124.636-7.806 185.79 1.83 6.965 4.15 13.79 6.79 20.49 2.15 5.45 4.35 13.304 10.5 15.503 13.85 4.96 17.39-16.73 20.58-25.26 5.37-14.37 12.43-27.94 20.22-41.14 7.79-13.19 14.71-26.3 18.17-41.34 3.5-15.21 4.28-31.07 5.72-46.57l4.53-48.95c3.01-32.5 6.94-65.05 7.04-97.72.09-28.94-2.44-57.83-4.9-86.64m358.6 344.11c-1.2-7.28-1.24-17.25-1.5-26.25-.32-11.04-1.78-29.42-3.5-37.5-3.36-15.69-7.07-20.21-7.53-36.24-.44-15.3-8.62-30.98-8.7-46.28-.09-14.92-1.53-29.95-6.18-44.19-4.54-13.86-12.59-26.25-19.72-38.86-15.74-27.85-25.71-59.11-37.26-88.85-8.83-22.71-17.78-45.38-24.46-68.84-6.7-23.49-11.31-47.51-15.97-71.47-.5-2.55-2.24-3.76-4.18-3.94-2.89-1.68-7.04-1.08-7.88 3.09-6.35 31.59-12.16 63.38-14.21 95.58-2.05 32.18.94 63.96 9.33 95.1 8.44 31.35 19.53 62.09 29.69 92.92 4.93 14.99 9.68 30.06 15.33 44.79 5.55 14.46 12.66 27.96 20.38 41.35 5.65 9.82 11 19.72 15.23 30.25 3.83 9.55 7.02 19.35 10.39 29.06 6.64 19.1 14.25 37.85 27.34 53.51 1.59 1.91 17.68 21.92 19.7 20.8 11.18-6.22 5.63-32.05 3.67-43.98"/>
    <path fill="#30488F" d="M1213.855 323.256c-5.76-12.423-8.516-30.302-15.314-42.182-12.47-21.797-13.7-27.836-28.75-47.968-14.25-19.057-46.6-46.295-67.47-58.068-21.08-11.894-45.66-17.375-69.78-16.523-21.63.764-58.61 4.473-65.48 26.267-3.5 11.127-6.46 19.293-10.41 30.248-4.14 11.506-11.03 20.684-18.45 30.104-13.83 17.556-36.87 31.326-21.71 54.783 3.09 4.767 9.62 16.454 13.05 20.955 3.74 4.907 7.2 10.02 10.49 15.24 6.88 10.924 10.03 11.614 14.68 23.65 1.14 2.937 5.11 8.226 9.06 14.36 2.95 6.304 7.69 14.785 11.07 20.856 3.29 5.916 4.25-10.024 1.61-16.262-10.84-25.554-13.56-40.386-22.52-66.317-8.18-23.67-4.71-52.8 12.49-72.71 8.12-9.4 19.64-15.22 30.98-19.78 11.66-4.69 23.94-8.31 36.49-9.38 12.61-1.08 24.98 1.06 36 7.39 10.33 5.93 19.24 14.65 26.64 23.9 9.12 11.37 15.3 25.09 17.65 39.46 2.72 16.56-2.71 32.93-7.25 48.65-4.97 17.27-11.27 34.8-17.92 51.51-6.02 15.16-12.45 29.99-8.66 46.88.48 2.12.78 5.67 3 5.48 13.2-1.16 22.43-1.68 34.31-7.07 12.2-5.53 26.53-10.88 38.45-16.98 11.89-6.09 26.86-18.62 37.24-26.47 9.04-6.84 20.16-14.46 25.57-24.8 6.21-11.88.1-24.26-4.99-35.26"/>
    <path fill="#FFCDCA" d="M1268.085 697.473c-12.346-26.35-23.207-52.732-33.476-80.03-20.57-54.687-32.63-111.464-29.68-170.148 1.1-22.01 8.63-46.563 12.85-68.136 1.17-6.01 10.51-29.65 5-32.88-4.96-2.91-15.36 26.14-20.13 30-27.45 22.2-57.68 37.34-89.98 49.72-16.11 6.17-34.88 10.84-50.65 12.65-10.29 1.17-20.15 1.59-29.34-.34-.58-.97-.94-2.66-2.21-2.84-11.29-1.57-14.48-5.13-22.81-3.72-2.34-3.06-8.68-5.47-13.15-5.47-6.83 0-11.52 2.73-10.83 10.07 3.11 32.82 5.65 65.69 7.61 98.6 1.85 30.99 3.65 62.1 2.71 93.16-.9 29.4-.08 63.97-10.49 91.64-9.8 26.05-15.52 48.23-30.07 74.59-4.04 7.32-10.59 14.55-10.56 22.91.02 7.25 6.12 13.64 13.5 13.5 109.03-2.14 217.84-13.46 325.02-33.56 5.99-1.13 9.7-7.38 9.91-13.02 1.13-30.74-10.47-59.42-23.27-86.74"/>
    <path stroke="#000" stroke-width="4" d="M987.6 453.488c13.332-47.396-34.81-102.1-65.952-153.167-4.798-7.86-5.584-21.39-5.1-30.64m371.37 471.96l4.47 43.15c4.39 42.42 7.643 89.81-15.34 122.51-11.675 16.61-28.65 26.94-45.165 36.86-12.61 7.57-25.566 15.27-39.816 17.22-18.478 2.54-36.977-4.81-55.264-9.78-28.79-7.82-58.384-9.86-87.793-10.86-9.705-.33-19.512-.57-28.976-3.34-23.144-6.79-41.727-28.39-52.334-53.07-10.608-24.68-14.242-52.3-16.222-79.47-.14-1.92-.273-3.84-.397-5.77m17.18-613.04c43-39.33 116.69-28.42 164.68 5.76 48 34.18 73.91 84.21 89.36 146.16 6.07 24.32 9.99 49.29 17.3 73.19 5.42 17.71 12.66 34.73 17.16 52.74 1.93 7.72 3.02 14.39 6.99 22.99" stroke-linecap="round" stroke-linejoin="round"/>
    <path stroke="#000" stroke-width="4" d="M841.744 192.696c.187-2.547 5.43-7.41 7.622-8.256 10.277-3.954 14.728-2.416 22.83-1.26 10.526 1.5 13.827 2.968 22.008 3.766 24.388 2.38 50.168-3.16 73.772-1.143 1.494.126-3.48 2.9-2.634 4.314 1.297 2.17.338 5.04-.647 7.344-5.96 13.94-11.966 27.96-20.07 40.34-8.103 12.39-15.805 24.26-28.478 29.79-15.333-26.89-40.335-49.71-65.89-62.69-4.552-2.31-8.925-6.58-8.513-12.19zM987.6 453.488c4.418 67.566 8.664 163.773.24 230.414-2.052 16.242-4.862 32.334-8.414 48.185-2.5 11.158-5.39 22.26-9.85 32.524-6.095 14.03-14.984 26.18-21.336 40.05-6.335 13.84-10.027 29.12-15.68 43.35-1.075 2.71-2.336 5.52-4.58 7-5.512 3.64-12.21-2.95-15.363-9.49-5.317-11.03-7.505-23.57-9.12-35.93-11.35-86.84 2.608-176.95 39.113-252.54 16.346-33.84 37.337-65.63 44.99-103.54m299.182 284.95l25.033 60.66c6.11 14.8 12.627 30.2 23.945 40.27 2.28 2.03 5.168 3.89 7.858 2.92 1.596-.58 2.79-2.06 3.764-3.61 5.342-8.47 6.057-19.68 6.163-30.27 1.16-116.83-43.954-224.05-92.563-328.39m-36.41-132.5c-15.257 60.53-29.887 126-15.942 187.9 6.76 30.01 18.44 58.36 30.05 86.49l48.102 116.55" stroke-linecap="round" stroke-linejoin="round"/>
    <path stroke="#000" stroke-width="4" d="M916.147 267.577c-12.113-22.58-39.81-35.517-61.967-42.573-4.236-1.35-8.566-2.574-12.41-5.075 3.537-3.48 8.796-3.3 13.5-2.64 7.283 1.02 14.505 2.78 21.557 5.24m176.616 47.39c-1.854 1.58-6.812 4.51-9.836 6.83-5.677 4.34-10.966 5.32-18.403 3.17-7.436-2.16-13.833-7.49-17.083-14.23.12-1.08.13-1.88 1.02-2.55 6.86-5.09 15.5-8.33 24.23-7.73 8.73.6 16.42 6.88 20.08 14.5zm-28.238 9.99c6.343-5.75 6.952-16.25 3.953-24.5m-39.626 166.94c7.884 7.65 19.038 10.14 29.672 11.56 54.887 7.33 112.018-6.42 158.22-38.08 19.245-13.19 37.327-30.45 44.653-53.32" stroke-linecap="round" stroke-linejoin="round"/>
    <path stroke="#000" stroke-width="4" d="M990.043 442.507c26.314 10.575 55.11 13.485 83.08 10.426 27.972-3.058 55.158-11.952 80.7-24.208 27.103-13.006 54.084-31.716 65.194-60.736M951.652 807.16c40.186-1.913 79.288 2.383 119.522 2.948 71.406 1.004 142.9-9.675 211.106-31.532 2.37-.76 4.88-1.54 7.294-.925" stroke-linecap="round" stroke-linejoin="round"/>
    <path stroke="#000" stroke-width="4" d="M953.8 828.928c77.29 1.567 153.093-2.113 229.892-10.947 19.15-2.2 38.318-4.73 57.018-9.55 17.436-4.49 34.344-10.93 51.176-17.46M981.94 397.59c.2-26.45-13.37-50.58-21.434-75.682-2.988-9.302-5.24-18.86-6.726-28.544-1.416-9.226-2.126-18.743-.158-27.84 3.253-15.03 13.515-27.403 25.194-36.716 21.768-17.357 50.32-26.07 77.26-20.69 26.94 5.38 51.43 25.798 59.985 53.15 4.35 13.893 4.62 28.84 3.32 43.372-.73 8.15-1.94 16.285-4.31 24.075-3.59 11.818-9.74 22.55-15.22 33.53-10.4 20.843-18.7 44.186-15.53 67.54" stroke-linecap="round" stroke-linejoin="round"/>
    <path stroke="#000" stroke-width="4" d="M980.033 829.153c-2.97 22.883 9.004 44.855 12.14 67.743 1.375 10.042 1.304 21.06 7.295 29.043m241.366-116.44c6.936 17.2 12.046 34.01 12.758 52.64.333 8.74-.058 17.63-2.53 25.97-1.996 6.73-5.292 12.94-8.565 19.1-7.294 13.71-14.48 29.73-21.774 43.44" stroke-linecap="round" stroke-linejoin="round"/>
    <path fill="#000" d="M1030.175 259.166c-.887-2.042-3.908-3.09-5.928-2.412-4.313 1.446-8.627 2.895-12.94 4.342-6.12 2.053-3.854 11.45 2.014 10.322.43.63.99 1.202 1.64 1.676.24.17.46.35.68.538.79 1.06 1.83 1.925 2.98 2.764.53.385 1.14.596 1.78.688 2.57 2.48 7.67 2.058 8.82-2.214 1.45-5.368 3.3-10.324.96-15.704"/>
    <path fill="#FFF" d="M1025.894 262.517c-3.88-.74-3.95 5.67 0 5.67s3.735-4.957 0-5.67"/>
    <path stroke="#000" stroke-width="4" d="M1045.872 289.117c1.35-2.91 6.768-6.717 9.667-8.09 2.89-1.375 8.89-3.218 12-2.42" stroke-linecap="round" stroke-linejoin="round"/>
    <path fill="#CDD9FC" d="M1085.003 290.232c-4.638-3.29-10.837-3.443-16.155-2.015-.77.207-1.307.617-1.66 1.124-4.248.89-9.29 3.16-8.95 7.63.41 5.38 4.69 7.36 9.616 7.83 5.233.5 13.35-.69 17.75-3.66 3.926-2.64 2.903-8.42-.6-10.9"/>
    <path stroke="#000" stroke-width="4" d="M1021.3 937.736c-22.872.068-43.126 9.773-61.56 23.313-6.147 4.51-12.41 10.06-13.726 17.57 9.546 2.94 18.724-7.06 28.698-6.5-2.418 1.98.397 6.28 3.525 6.23 3.127-.05 5.617-2.48 7.927-4.59 2.31-2.11 5.33-4.17 8.334-3.3l-.072 14.06c12.995-13.36 27.907-24.85 44.135-34.01 7.31-4.13 15.5-8.51 23.85-9.26m87.13 14.49c-24.06-1.52-48.61 7.22-66.3 23.61-4.31 3.99-8.32 8.58-10.18 14.16 4.27.47 8.02-2.52 11.7-4.74 7.33-4.42 16.21-6.21 24.68-4.95-3.36 2.35-5.61 6.22-6 10.3 9.02-7.05 20.7-10.61 32.12-9.77-5.84 3.03-9.18 10.24-7.72 16.66 4.75-3.04 7.96-7.91 11.87-11.97 9.8-10.15 23.76-14.94 37.2-19.24 3.29-1.05 6.6-2.1 9.61-3.77 2.32-1.28 4.44-2.91 6.27-4.83m-332.7-766.3c.09.51.2 1.05.55 1.44.35.38 1.03.52 1.38.13.15-.17.22-.4.26-.63.18-.89.2-1.81.07-2.71-1.34-.43-2.78 1.27-2.14 2.52.42.53 1.4.44 1.71-.17.31-.61-.18-1.46-.86-1.49v1.11" stroke-linecap="round" stroke-linejoin="round"/>
    <path stroke="#FFF" stroke-width="3" d="M1158.38 237.443c2.436 2.8 4.288 6.108 5.402 9.65m5.308 6.324l4.66 7.003m-16.83-11.904c1.6 2.865 3.198 5.73 4.796 8.595m-178.3-74.93c3.7-2.53 7.585-4.78 11.616-6.74m8.058-2.86c3.168-1.23 6.552-1.91 9.952-2m-18.992 12.89c2.516-1.58 5.374-2.62 8.32-3.03m21.682-2.88l9.968-1.25M927.675 281.12c.246 3.753 1.055 7.47 2.39 10.986m7.355-1.673l2.28 6.02m-1.995-21.336v-8.667m160.01 146c-.236-4.46.117-8.952 1.045-13.32m4.214-9.68c-.03-3.685 1.204-7.37 3.45-10.292m1.27 21.96c.23-4.074 1.375-8.094 3.32-11.68m2.703 21.678c-.148-1.78-.044-3.583.307-5.335m1.206-31.36c.922-3.5 2.103-6.94 3.53-10.27m81.903-27.35c.255 2.83.82 5.63 1.68 8.34m5.315-7.33l1.436 6.65m-7.784-31.3l1.757 5.98m24.893 226.71l5.828 12.6m.254-17.29c.73 3.85 2.092 7.58 4.01 11m-8.744-31.31c.334 1.92.81 3.81 1.42 5.65m50.102 26.76c1.426 3.35 3.187 6.56 5.248 9.55m-11.126-22.92l2.42 4.62m9.458 165.79c2.4 4.07 4.856 8.11 7.366 12.11m.182-9.9c1.542 1.53 2.79 3.35 3.656 5.34m-15.51-29.27c.794 2.48 1.76 4.91 2.89 7.26m8.05-3.69l5.61 12.03m-5.684-34.66l3.665 10.67m29.185 122.4c.895 1.95 1.96 3.82 3.176 5.58M1259.84 914.4c2.685-1.43 5.025-3.5 6.772-5.988m6.198-8.005c1.046-3.5 2.61-6.843 4.628-9.89m-14.208 9.914c.927-2.9 2.214-5.69 3.823-8.28m15.053-21.32c.98-4.39 1.646-8.85 1.994-13.34m-321.722-16.01c-.16 3.47.17 6.96.975 10.34m4.687-8.34v5.67m.4 10.99l1.337 8m-56.452-56.33c-.79-4.89-1.582-9.77-2.373-14.66m-.247-10.68V771.8m6.438 18.34c-.16-4.44-.186-8.89-.08-13.34m5.81 24.353c-.476-4.1-.74-8.225-.79-12.353m-1.477-24.658c-.328-4.33-.394-8.675-.193-13.01m7.527 13.32l.75-7.99m44.687-130.334c-.167 4.137-.612 8.26-1.33 12.337m8.325-31.67v8.337m-7.972-27.67c-.058 5.5-.745 10.99-2.04 16.33m-17.51-34.38c1.338-4.63 2.677-9.26 4.014-13.9" stroke-linecap="round" stroke-linejoin="round"/>
    <path stroke="#000" stroke-width="2" d="M1001.3 435.786c-.268 1.734-.354 3.496-.257 5.248m6.504-4l-.288 5.498m7.53-3.498v5m8.25-3.75v7m8.43-5.994l.49 6m6.17-5.266l.63 6.51m8.51-6.25c-.07 1.92.02 3.843.28 5.746m9.26-6.25c.16 1.61.48 3.204.95 4.753m6.25-5.25c-.09 2.01.06 4.035.44 6.01m7.5-6.753l.57 6.242m6.2-7.242l1.31 6.49m7.49-7.996c-.12 2.31.28 4.642 1.16 6.78m6.07-8.28c.08 2.443.41 4.878.99 7.253m5.01-9.753c.4 2.48.62 4.99.66 7.5m5.31-7.994l.77 5.246m7.06-8.246c-.29 2.516-.11 5.088.54 7.536m5.44-8.796l1.19 8.007m4.95-10.74l1.36 7.73m7.68-11.992c.07 2.43.34 4.856.83 7.24m6.18-9.24c.02 2.103.27 4.204.73 6.257m5.54-9.258c-.08 2.343.07 4.694.43 7.01m4.97-9.744l1.07 6.238m4.5-8.75c.28 2.328.56 4.66.85 6.988m6.26-10.718c.28 1.95.72 3.878 1.32 5.757m5.59-10.28c-.06 2.353.19 4.714.72 7.01m4.95-10.748l1.08 6.737m4.96-10.744l.88 7.232m5.14-12.737l.94 6.01m4.81-10.51v6m5.494-12l.61 6.24m3.886-11.24c.27 1.65.355 3.33.26 4.998m5.31-11.993l-.55 5.995m-253.23 438.5c-.17 3.493.376 7.02 1.59 10.3m3.63-11.05c.425 3.48 1.13 6.926 2.1 10.295m4.82-10.282c.64 4.06 1.533 8.083 2.67 12.034m2.433-10.302l2.63 10.28m3.28-10.267c.42 3.38 1.08 6.73 1.98 10.016m3.82-10.53c.543 3.46 1.263 6.89 2.16 10.27m4.51-11.01l1.8 10.49m4.325-11.24c.345 3.91 1.12 7.79 2.3 11.53m4.12-9.3c.355 3.41 1.13 6.77 2.3 10m2.994-9.76c-.02 3.67.65 7.34 1.98 10.76m3.77-9.82c.09-.11-.13-.25-.24-.15-.11.09-.094.26-.08.4.45 3.21 1.07 6.4 1.86 9.55m4.286-9.76c.77 3.14 1.41 6.32 1.92 9.51m3.668-8.98c.57 2.45.967 4.95 1.18 7.46m5.95-7.49c.14 2.47.597 4.93 1.36 7.29m4.254-8.26l1.927 7.77m4.35-8.54c.51 3.52 1.39 6.98 2.62 10.32m2.82-9.31l1.55 8.74m3.63-8.77c-.02 3.04.37 6.08 1.16 9.01m4.297-8.76c.14 2.19.45 4.37.91 6.52m4.88-6.77c.06 2.56.49 5.12 1.29 7.55m4.166-6.81c.04 2.44.35 4.89.92 7.27m3.34-7.27c.18 2.28.573 4.55 1.17 6.77m4.09-7.27c.01 2.2.306 4.4.874 6.53m3.23-7.07c.683 2.36 1.01 4.82.96 7.28m4.2-6.71c.223 2.28.643 4.54 1.25 6.75m4.094-6.756c-.165 2.14.21 4.32 1.09 6.29m4.577-6.8c.263 2.19.666 4.37 1.206 6.51m4.08-7.77l1.206 7.26m4.25-6.51c.18 2.2.61 4.39 1.27 6.5m3.66-6.98l1.38 6.73m4.2-6.99c.2 2.2.623 4.38 1.263 6.5m4.96-7.5l1.016 6.75m4.1-6.27l1.35 6.78m3.88-7.54c1.19 2.16 1.93 4.57 2.174 7.02m4.21-9.25c.28 2.41.57 4.83.85 7.24m7.8-7.01l.84 6.27m5.57-7.01c.05 2.03.4 4.06 1.02 6m4.12-6.77c-.23 2.76.28 5.58 1.47 8.09m2.76-7.37c.87 2.01 1.48 4.13 1.82 6.3m2.77-7c.44 2.35.98 4.672 1.62 6.98m2.74-7.25c.69 2.2 1.16 4.47 1.41 6.76m2.71-7.71c.67 1.746 1.06 3.594 1.15 5.46m4.44-7.495c.74 2.39 1.4 4.81 1.97 7.25m3.53-9.51c.55 2.78 1.2 5.54 1.96 8.267m4.01-8.76c.78 2.67 1.22 5.45 1.3 8.23m3.72-8.495c.19 2.497.73 4.967 1.6 7.315m2.59-7.64c.97 2.32 1.78 4.69 2.45 7.11m2.86-7.53l1.57 6.49m3.87-8.97l1.43 6.92c.05.24.17.54.42.54.25-.01.07-.53-.06-.31m3.97-7.67l.98 7.75m4.09-9c.98 2.243 1.71 4.6 2.16 7.01m2.98-8.81l2.134 7.28m2.96-8.24l2.05 8.24m3.815-9.27c.78 2.39 1.425 4.82 1.94 7.27m3.09-8.79c.84 1.9 1.31 3.97 1.375 6.048m4-7.75c.36 2.57.96 5.11 1.79 7.572m2.78-8.346c.706 2.35 1.41 4.7 2.11 7.04m3.49-9.74c.73 2.43 1.13 4.95 1.19 7.48m2.73-8.78l2.14 6.79m3.787-8.76l1.12 7.27" stroke-linecap="round" stroke-linejoin="round"/>
    <path stroke="#000" stroke-width="3" d="M607.735 355.787c1.69-8.95 2.44-18.11 1.723-27.19-.18-2.287-.51-4.702-1.954-6.48-1.445-1.78-4.382-2.532-6.046-.956-1.014.96-1.283 2.47-1.273 3.87.01 1.43.384 3.05 1.63 3.74 1.174.66 2.723.19 3.68-.75.957-.94 1.44-2.25 1.826-3.54 2.2-7.34 2.02-15.37-.51-22.61m33.84 53.23c4.82-8.76 6.88-19 5.81-28.94-.17-1.66-.46-3.36-1.37-4.75-.91-1.39-2.62-2.38-4.24-1.99-2.47.6-3.24 3.93-2.37 6.32.28.76.71 1.52 1.45 1.84 1.56.69 3.12-.93 3.99-2.4 3.88-6.53 6.27-14.36 4.6-21.77-.73-3.22-2.75-6.67-6.04-7.01-1.09 1.52-.99 3.78.24 5.19 4.58-6.49 6.07-15.07 3.94-22.73" stroke-linecap="round" stroke-linejoin="round"/>
    <path stroke="#000" stroke-width="2" d="M913.54 196.81c2.597-.05 5.19-.317 7.745-.795m10.255-1.24c1.75.103 3.514.026 5.25-.23m-14 6.497c1.834-.108 3.68-.03 5.5.23m10.498-1.482l5.75.278m1.252-6.534h3.75m-22.034 12.14c3.782.863 7.77.808 11.528-.157m-25.994.243c1.77.08 3.53.342 5.247.782m-13.247-5.998c.508-.09 1.045-.008 1.502.23m-13.502-6.73c1.5-.112 3.018-.04 4.503.213m47.747 16.277h4.75m25.492 753.696c9.77-7.63 20.838-13.59 32.583-17.553m-8.08 13.77c8.347-6.422 17.59-11.68 27.374-15.57m83.29 31.79c-.41-.256.08-.844.52-1.036 11.38-4.98 22.86-9.76 34.43-14.31m-7.31 13.77c6.15-3.96 12.51-7.6 19.05-10.91" stroke-linecap="round" stroke-linejoin="round"/>
    <path fill="#FFF" d="M1028.065 258.865c-1.99-.382-2.027 2.926 0 2.926s1.917-2.55 0-2.92"/>
    <path fill="#FBBC05" d="M641.52 371.445h-37.067c-9.404 0-9.404 14.583 0 14.583h37.067c9.404 0 9.404-14.583 0-14.583"/>
    <path fill="#9BADE3" d="M616.213 152.275c-6.418-18.1-13.18-36.703-20.928-54.266-7.278-16.5-17.072-33.14-29.17-46.79-11.595-13.08-35.085-25.39-51.04-31.6-16.388-6.38-29.507-11.46-46.79-14.74-18.474-3.51-39.952 1.78-58.455 5.39-17.67 3.44-33.263 12.64-46.923 24.04-13.117 10.94-23.68 24.77-33.797 38.43-10.49 14.15-20.017 29.01-28.736 44.32-17.667 31.01-31.542 64.34-41.52 98.6-2.09 7.18 1.31 12.63 6.364 15.35.01.02.003.06.022.08 29.197 31.96 37.944 33.91 66.7 48.8 33.3 17.24 67.58 42.74 104.36 46.35 37.156 3.65 74.396 5.73 111.388-.63 17.528-3.01 32.213-17.29 47.597-26.4 17.12-10.15 27.126-18.12 29.528-36.9 4.73-37 3.696-75.38-8.6-110.06m33.364 266.17c2.54-3.45 3.432-8.19 2.317-12.24-2.185-7.95-9.676-10.96-17.192-9.76-13.718 2.19-26.418 4.76-40.274 3.85-5.773-1.71-11.175-6.5-11.545-8.14-3.04-13.46 4.572-24.9-7.736-17.32-7.033 4.33-14.066 8.66-21.1 12.98-4.84 2.98-6.743 7.43-6.605 11.83-.67 1.08-1.238 2.3-1.65 3.69-3.354 11.34-6.282 22.85-6.258 34.76.025 12.24 4.16 28.16 18.758 29.17 5.286.36 10.723-1.68 15.86-2.77 5.392-1.14 10.813-1.87 16.296-2.37 11.944-1.08 23.99-.69 35.886.72 4.628.55 9.928-3.02 12.068-6.92 1.348-2.46 2.206-5.04 2.477-7.62.97-2.37 1.49-4.98 1.63-7.66.05-.99 0-1.96-.15-2.89.66-.58 1.29-1.19 1.83-1.81 3.23-3.72 4.75-7.64 5.34-12.48.26-1.22.3-2.45.11-3.69-.03-.52-.06-.96-.09-1.36m-54.04 187.23c-.09-6.89-8.09-6.59-15.73-5.63-90.96 11.38-178.3 12.83-270.26-11.71-7.36-1.96-22.83.16-19.1 7.44 4.62 9 8.66 25.36 16.18 26.64.39.07-5.64-9.32-5.24-9.26 18.35 32.04 35.11 64.96 50.21 98.67 7.54 16.83 14.63 33.88 21.15 51.13 6.22 16.47 11.67 33.6 12.57 51.29.79 15.67-2.38 30.97-11.12 44.14-8.07 12.16-21.66 20.17-34.31 26.71-14.19 7.33-30.17 14.79-46.31 15.74-13.83.81-27.43-4.75-37.43-14.28-12.84-12.24-21.48-37.65-17.1-54.54 3.57-13.76-15.73 12.47-24.61 21.82 2.51-13.06 2.91-54.23 8.11-66.71 5.55-13.31-9.67-15.7-18.74-6.15-9.56 10.07-14.58 24.3-26.33 27.4-2.88-1.04-6.42 17.12-9.32 17.97-2.15-13.04-6.64-46.12-5.67-59.55.44-6.14 3.73-14.41-1.94-15.97-7.72-2.13-14.7 2.57-17.2 9.76-14.32 41.22 11.13 95.78 30.47 132.6-40.64-18.4-99.56-34.49-144.67-27.8-14.65 2.17-20.51-4.65-27.15 10.79-4.37 10.14 9.07 15.58 18.3 21.87 6.93 4.73 15.97 5.16 23.9 7.7 10.92 3.49 21.7 25.44 28.82 24.06-5.6 3.22-32.99 1.5-38.14 5.51-4.87 3.8-1.44.61 1.44 5.52 1.28 2.185 34.22-.97 36.23.164-6.85 2.11-40.34 20.79-38.49 27.522 2.15 7.82 11.55 4.2 19.04 2.84 5.51-1.01 30.91-2.56 36.46-3.24-1.56 1.05-28.8 17.21-30.39 18.23-5.3 3.4-3.74 6.73-2.03 12.96 2.19 7.98 15.75-6.96 23.28-8.11 15.75-2.41 19.89-6.98 33.19-14.73 14.22-8.29 52.12-3.64 67.49-.24 18.58 4.1 28.62 5.11 46.59 11.34 18.25 6.33 25.64 9.81 44.96 12.15 19.7 2.39 40.27 4.78 59.55 1.22 18.3-3.38 28.01 3.28 46.23-.54 32.36-6.78 64.62-15.38 93.99-30.934 27.52-14.58 49.95-36.507 65.74-63.27 15.42-26.15 30.67-52.82 37.09-82.29 7.21-33.09 9.26-64.227 12.87-100.87 3.77-38.274 7.86-78.875 7.37-117.38"/>
    <path fill="#FFF" d="M513.082 233.327c.922-9.358-13.67-9.27-14.583 0-1.55 15.648-2.55 31.33-3.01 47.048-.23 7.856-.28 15.717-.22 23.575.04 6.662.86 13.636.74 20.375-1.17 1.728-1.6 3.908-1.04 6.023.82 3.12 2.77 4.65 5.67 5.76 2.2.843 5.59-.063 7.09-1.874 4.61-5.554 2.43-14.116 2.26-20.854-.22-8.643-.22-17.29-.09-25.933.27-18.075 1.39-36.132 3.16-54.12"/>
    <path fill="#FFF" d="M574.673 146.54c-2.607-2.37-6.337-2.67-10.1-.166-12.444 8.284-24.273 13.28-33.846 20.353-9.362 6.918-18.184 13.49-27.546 20.402-7.42 5.48-11.71 14.5-14.99 23.49-3.9 10.7 5.73 19.18 14.86 22.65 19.96 7.59 47.51-1.99 60.78-18.17 13.72-16.72 14.49-41.16 17.08-61.64.58-4.58-2.66-6.88-6.23-6.94m66.38 20.25c-4.15-1.27-8.24-2.69-12.29-4.24-2.1-3.68-4.97-6.83-8.72-9.05-6.8-4.01-16.65-4.79-24.24-6.63-.51-.13-1-.2-1.48-.22-5.06-4.49-14.98-.66-12.01 6.83 5.07 12.77 13.39 23.09 23.97 31.79 10.39 8.53 23.51 18.76 36.61 9.45 4.32-3.07 10.64-9.29 10.54-15.06-.13-7.86-5.54-10.83-12.35-12.91m-65.62-61.09c-9.63-31.59-32.96-46.99-60.48-69.32-4.36-3.54-9.63-1.94-11.7 2.34-.85-.27-1.7-.57-2.53-.92-3.92-1.53-7.85 1.52-8.97 5.22-.91-.08-1.82-.11-2.74-.03-7.55.67-9.52 9.17-3.68 13.59 23.43 17.7 46.11 28.97 64.08 52.18 2.07 2.67 2.89 12.7 5.17 11.74.64.16 1.33.25 2.09.23l10.76-.21c5.06-.1 9.7-9.31 8.02-14.84"/>
    <path stroke="#231F1F" stroke-width="4" d="M616.88 195.234c2.645 27.47 4.254 55.04 4.83 82.63m-369.978-53.952c1.228-5.606 2.726-10.444 4.625-17.414 13.188-48.424 29.173-92.33 58.863-132.794 18.376-25.046 46.912-50.828 75.96-61.84 23.568-8.935 53.31-13.064 77.772-6.98 24.46 6.085 41.673 13.77 63.193 26.893 17.75 10.823 39.654 40.045 51.65 59.75 12.76 20.965 20.34 38.102 25.535 57.898m-21.177 450.528c-3.39 27.538-5.625 55.216-6.697 82.94-.95 24.61-.987 49.277-3.258 73.8-2.905 31.37-9.475 62.395-19.533 92.25-7.018 20.827-15.81 41.23-28.3 59.313-36.647 53.053-100.97 80.345-164.305 92.445-23.695 4.53-47.868 7.32-71.944 5.81-56.862-3.58-110.63-30.92-167.602-31.41-18.837-.16-28.017 8.04-51.255 18.55-5.15 1.63-10.56 1.26-15.71 2.89-.8-5.16 4.22-9.17 8.64-11.96l28.45-17.94-57.23-.87c19.27-21.35 57.54-8.7 80.48-26.06-28.58-6.66-59.41 8.99-87.39.12 14.28-6.38 29.85-9.87 45.5-10.21L47.01 916.1c17.83-3.425 36.19-4.04 54.21-1.816-16.22-5.42-33.61-5.86-50.48-8.642-16.87-2.78-34.34-8.59-45.17-21.822-2.34-2.86-4.41-6.6-3.23-10.1 1.4-4.17 6.45-5.63 10.79-6.34 54.7-8.976 112.81 5.14 157.3 38.2-13.79-24.306-27.77-49.15-33.18-76.563-5.41-27.412-.85-58.34 18.57-78.432 2.76 24.555 7 48.94 12.69 72.98l13.3-22.46c.47 8.05 2.89 15.983 6.99 22.932 4.29-10.34 5.05-21.91 9.59-32.14 4.54-10.238 15.153-19.43 25.99-16.61-4.15 26.08-7.46 52.292-9.94 78.582l20.75-29.71c.88 10.83-1.776 21.6-2.48 32.44-.71 10.84.99 22.75 8.784 30.31 6.242 6.06 20.742 12.58 29.36 13.78 30.45 4.25 68.58 3.26 86.29-21.88 9.46-13.44 16.26-34.06 17.62-50.44 3.55-42.92-16.69-93.14-35.23-132-16.91-35.44-27.57-60.01-45.39-100.93-1.05-2.42-2.13-4.78-3.225-7.12" stroke-linecap="round" stroke-linejoin="round"/>
    <path stroke="#231F1F" stroke-width="4" d="M486.496 212.316c-.386 5.21 3.504 9.768 7.717 12.858 12.03 8.825 28.525 10.614 42.67 5.87 14.148-4.742 25.875-15.55 33.068-28.62 7.2-13.073 10.06-28.262 9.63-43.176-.13-4.456.46-11.895-1.44-15.97-1.05-2.26-4.83-6.437-6.79-8.264-2.8-2.617-4.84-3.74-8.66-3.433-2.04.17-5.39.52-8-.27-1.13-.33-2.46-2.8-2.47-3.98-.05-4.54.65-5.29 4.35-6.75 6.59-2.07 13.24-4.15 20.12-4.81 1.84-.18 3.8-.23 5.4.69 1.6.92 2.57 3.15 1.55 4.69-1.56 2.48-3.46 3.99-3.91 6.58-.45 2.59-.58 4.72-.32 7.33.26 2.61.36 5.35-.68 7.76-.29-.07-.57-.17-.84-.29 5.95 13.34 13.78 27.48 23.37 38.49 4.74 5.44 9.98 10.59 16.31 14.03 6.34 3.44 13.94 5.02 20.87 3.04 3.38-.96 6.49-2.73 9.32-4.82 6.67-4.91 11.96-11.68 15.12-19.35M555.8 119.53c-10.27-20.083-28-36.894-47.666-48.136-11.426-6.534-22.325-15-28.996-26.34 7.23-1.695 12.863 8.09 20.278 7.694-4.015-3.662-7.122-8.316-8.964-13.43 5.16 2.104 10.11 4.72 14.75 7.803-.2-3.74-1.32-7.42-3.25-10.63 5.115.24 8.54 4.97 12.925 7.61 26.6 16.06 46.446 42.59 60.57 71.01m80.28 235.62c3.66 2.39 7.39 6.63 6.78 11.73-.32 2.66-1.78 4.87-3.3 6.77-7.18 8.98-16.93 14.38-26.96 16.49-10.032 2.12-20.36 1.1-30.322-1.48-4.087-1.06-8.475-2.66-10.89-6.89-1.275-2.23-1.847-4.95-2.26-7.63-.3-1.89-.527-3.87-.13-5.73.52-2.43 2.02-4.32 3.546-5.97 6.35-6.84 14.25-11.43 22.55-13.1 3.84-.77 7.74-.93 11.63-.94 10.06-.04 20.46.98 29.36 6.78z" stroke-linecap="round" stroke-linejoin="round"/>
    <path stroke="#231F1F" stroke-width="4" d="M599.9 460.165c3.422 1.71 6.86 3.427 10.456 4.446 2.8.8 5.666 1.16 8.53 1.43 10.115.96 20.427.76 30.213-2.57 1.16-.4 2.36-.86 3.27-1.87.87-.96 1.56-2.24 1.84-3.65 2.88-14.46 2.91-18.97 4.16-29.79 1.31-11.31 2.34-23.48 3.06-34.87.64-10.11 1.34-20.72 1.05-30.86m-73.67 7.16c.03 8.05-.03 14.54.18 22.59m-143.91 79.65c-10.1-1.23-19.95-4.79-29.63-7.93-21.8-7.07-43.29-16.3-60.93-30.91-17.65-14.61-31.22-35.2-33.62-57.98" stroke-linecap="round" stroke-linejoin="round"/>
    <path stroke="#231F1F" stroke-width="4" d="M588.42 381.66c-3.288 2.343-4.087 3.314-2.65 6.647 1.435 3.333 3.786 4.524 7.29 5.468 17.546 4.73 34.483.654 52.655.46 3.033-.032 7.057.874 7.19 3.904.147 3.3-15.525 6.94-16.247 10.16-1.05 4.7 17.833 4.88 17.883 9.7.07 5.85-19.91 7.13-19.7 12.98.18 4.92 17.36 6 17.41 10.93-2.18 1.64-14.82 3.83-17 5.47 2.04 2.09 13.77 4.38 13.97 7.29-12.6 2.87-25.5 4.48-38.43 4.79-8.38.2-16.82-.14-25.11 1.11-6.39.96-12.59 2.85-18.9 4.26-6.75 1.51-11.9 2.29-18.78 2.95m-142.25-132.3c6.29 24.61 29.64 35.8 52.07 41.22 10.65 2.58 27.75 3.37 38.68 4.17 19.7 1.46 37.96-1 57.65.46 2.94.21-12.12 17.84-9.23 17.25 3.13-.64 27.48-22.87 30.28-24.41 5.74-3.14 6.31-2.08 12.04-5.22" stroke-linecap="round" stroke-linejoin="round"/>
    <path stroke="#231F1F" stroke-width="4" d="M618.885 466.038c-8.962 47.29 10.415 86.15-7.675 130.443-90.247 10.42-182.497 20.74-271.196 1.11-16.652-3.68-33.125-8.42-50.06-10.45-12.662-1.51-26.713-2.01-35.917-10.84-5.116-4.9-7.898-11.72-10.204-18.42-18.053-52.48-15.265-109.52-12.263-164.93l7.526-139.04c.82-15.11-1.43-28.42 6.31-41.43 8.042 19.83 27.22 32.51 45.476 43.68 18.255 11.17 36.67 22.07 55.18 32.81 18.347 10.65 36.928 21.19 57.01 28.02 16.064 5.46 32.87 8.46 49.727 10.39 29.95 3.44 60.62 3.52 89.87-3.8 29.24-7.32 57.08-22.47 76.23-45.76 1.58-1.92 8.61.97 10.04 3.01 1.43 2.04 1.4 4.72 1.32 7.21-.54 16.48-.98 39.43-1.51 55.92" stroke-linecap="round" stroke-linejoin="round"/>
    <path stroke="#231F1F" stroke-width="4" d="M551.236 381.66c-8.19 11.845-10.016 26.83-11.325 41.17-.78 8.604-1.46 17.306-.22 25.856 1.25 8.55 4.59 17.046 10.81 23.04.73.7 1.54 1.388 2.52 1.62 1.77.42 3.59-.8 4.47-2.386s.9-1.652 1.02-3.46m-4.56 6.22c-39.04 8.196-79 3.728-118.53-3.714m51.1-257.69c5.13-11.023 16.35-19.92 26.13-27.14 20.72-15.28 42.7-28.84 65.65-40.495 30.59 1.7 58.14 13.71 84.57 29.21m-417.43 38.57c2.51-1.87 7.98-3.37 10.53-4.41m337.18 170.67c4.9-3.02 10.3-5.22 15.91-6.49 3.65-.82 7.38-1.25 11.11-1.44 11.28-.58 22.66.99 33.35 4.62" stroke-linecap="round" stroke-linejoin="round"/>
    <path fill="#231F1F" d="M391.006 163.937c-1.622-15.245 3.305-34.517 20.975-37.313 19.15-3.03 27.46 22.475 28.35 37.3.19 3.198 5.2 3.22 5 0-1.05-17.522-10.8-44.575-32.63-42.405-20.97 2.08-28.63 24.16-26.69 42.41.34 3.16 5.34 3.2 5 0"/>
    <path fill="#FBBC05" d="M377.788 194.217c-1.41-3.072-4.24-5.15-7.34-6.45-.884-1.05-2.052-1.815-3.458-2.02-11.574-1.68-22.827 4.598-25.83 16.337-.986 3.848 1.21 7.9 5.092 8.97 9.27 2.55 19.655 1.56 27.78-3.832 4.38-2.908 5.93-8.266 3.756-13.005"/>
    <path stroke="#000" stroke-width="2" d="M470.022 71.596c3.31 2.31 6.408 4.923 9.245 7.793m6.256-3.12c2.87 1.79 5.41 4.11 7.452 6.8m9.06 10.78c2.486 1.84 4.555 4.24 6.01 6.98m-18.62-6.91c2.61 1.94 5.05 4.12 7.273 6.5m-34.523-18.1l6.602 4.69M451.28 52.3c1.96 1.328 4.012 2.514 6.14 3.547m2.478-7.805c3.053 1.383 5.905 3.21 8.44 5.405m-11.214-19.21l6.802 4.98m-1.604-10.19c2.834 1.35 5.668 2.71 8.5 4.06m-1.292-11.01c4.067.273 7.62 2.723 10.943 5.087m37.642 66.885c2.658 1.54 5.03 3.57 6.967 5.96m.318 16.27l4.888 5.65m3.384-11.88l4.722 4.99m3.334 29.09c1.26 1.58 2.517 3.17 3.776 4.76m-39.364-33.58c1.673 1.84 3.524 3.52 5.518 5.01M527.88 39.7c3.598 2.05 6.79 4.81 9.344 8.07m7.254 6.954c2.963 1.22 5.544 3.35 7.306 6.024m11.36 14.16c1.748 1.19 3.263 2.72 4.437 4.476m5.32 14.54l4.1 4.416m-14.58-15.01l3.96 3.75m-71.33-60.33c1.41 1.18 3.1 2.008 4.9 2.394m9.69-1.966c2.6 1.71 5.2 3.416 7.79 5.125m-50.66-19.45l9.75 3.556m-30.84-.17c2.39-.32 4.89.19 6.97 1.41m-8.59 8.23c1.79-.04 3.58.24 5.27.83m-23.06-9.05l8.5 2.06m-8.93 15.89c2.57-.11 5.15.02 7.7.4M266.3 207.3c-.87 3.2-1.38 6.494-1.52 9.805m9.85-26.698l-3.29 10.25m-1.11-23.67c-1.396 2.68-2.41 5.56-3.004 8.524m14.418-9.77l-1.712 5.5m4.43 8.56l-2.5 9.71m8.73-26.22c.64 2.21.55 4.62-.27 6.77m-1.22-30.38L286.67 160m-13.29 55.9l-.673 7.894m11.55-11.548c.128 4.118-.507 8.258-1.86 12.148M587.41 281.52l1.38 9.09m7.75-13.955c.24 2.427.478 4.854.716 7.28m-9.818-26.725v10.937m13.438-.02l1.92 6.656m-6.292-22.43c.317 2.843.175 5.735-.42 8.53m1.137-24.347l1.81 7.903m7.17 10.96l2.42 9.11m-1.16-25.54l.73 6.06M502.4 216.29c.18.177.39-.28.16-.387-.22-.107-.47.083-.62.284-.9 1.256-.06 3.253 1.41 3.736 1.47.485 3.17-.355 3.96-1.683.75-1.246.76-2.986-.22-4.06-1.3-1.437-4.14-.83-4.68 1.04-.54 1.867 1.65 3.904 3.46 3.17 1.796-.733 1.866-3.816.076-4.574-1.506-.64-3.44.693-3.43 2.33.01 1.636 1.88 2.945 3.44 2.447.685-.686.935-1.77.62-2.687-.78-.32-1.75.307-1.873 1.14-.125.83.515 1.67 1.33 1.873m8.306-.55c-.27.81-.55 1.68-.36 2.52.4 1.77 3.02 2.41 4.34 1.17 1.33-1.24 1.09-3.64-.3-4.81l-2.11-.01c-1.02 1.04-1.14 2.87-.17 3.95.97 1.08 2.93 1.1 3.82-.04.9-1.14.3-3.15-1.11-3.51-1.41-.36-2.91 1.3-2.32 2.63m-5.08-16.14c-.66 1.83 1.63 3.91 3.4 3.08 1.01-1.01 1.44-2.56 1.11-3.94-.82-1.29-3.11-1.12-3.76.26-.65 1.38.62 3.23 2.14 3.16 1.53-.08 2.61-1.99 1.93-3.36.08-.8-.71-1.56-1.5-1.45-.79.11-1.35 1.05-1.07 1.79m11.74 4.16c-.26 1.25-.1 2.59.44 3.75 1.12.19 2.38-.07 3.15-.91.76-.85.81-2.34-.07-3.07-.88-.73-2.54-.17-2.59.97m8.2 14.02c.49.84 1.44 1.45 2.42 1.35.97-.11 1.83-1.06 1.66-2.02-1.25-.2-2.57 0-3.71.55m-33.67 6.61c-4.79 35.37-6.07 66.63-6.21 101.78-.03 7.94-.06 17.22 1.32 28.81.3 2.58 1.33 8.28 3.74 7.3 1.15-.47 2.82-6.48 3.1-7.69 2.82-12.39 3.57-19.54 4.01-28.2 1.7-33.56 1.5-64.95 7.05-98.09m117.83-32.72c10.4 32.85 22.98 62.95 35.11 95.2 5 13.28 9.63 23.743 17.01 37.22 1.82 3.31 5.03 9.54 8.58 10.83.37-9.74-1.71-14.54-4.12-22.17-13.53-42.79-29.14-83.5-44.4-125.7M317.8 623.05c.96 3.106 2.597 6 4.766 8.42m-2.8-13.62c1.33 2.16 2.858 4.2 4.558 6.083m10.16 21.976c2.04 3.2 4.253 6.29 6.627 9.25m-9.04-22.87c2.51 2.61 4.71 5.51 6.56 8.63M333.78 616l7.046 10.59m11.55 39.8c2.934 4.48 5.524 9.186 7.74 14.063m-2.41-18.53l4.77 8.39m-9.543-28.49l5.466 9.42m3.89-15.46l4.37 8.14m2.69-23.36l4.2 12.47m11.2 71.427l5.15 8.817m-4.83-26.75c2.08 3.4 3.92 6.95 5.5 10.614m-2.62-32.28c3.11 4.7 5.26 10.03 6.29 15.57m-3.67-31.29c1.59 2.95 3.03 5.99 4.3 9.1m139.7 97.25c.36 5.46.45 10.94.28 16.41m6.4-14.88v10.33m-1.22-44.96v12.46m8.18 11.24c0 3.16.32 6.32.94 9.42m1.64-27.05l.87 8.82m6.83-13.05l1.6 10.93m.89 27.95v8.21m1.54-80.21c.59 3.84.38 7.8-.62 11.55M552.5 692c.23 3.54.464 7.082.697 10.625m-5.9-37.967l1.64 10.92m14.19-11.53v11.85m6.45-34.03l.31 11.545m-12.63-16.475c.764 2.465.984 5.1.64 7.657m-20.678 54.09l.74 12.144m-13.13 10.63v4.86m-91.18 240.23l9.27-5.51m-5.27-8.69l4.54-2.75m16.4 7.28l3.35-2.73m-10.07-8.58c2.8-1.79 5.46-3.8 7.94-6.01m12.75 6.37l4.25-3.64m-64.1 21.28l6.43-3.56m13.04-18.26l7.91-4.53m35.92-4.78c2.84-3.62 5.97-7.01 9.34-10.14m-17.04.27l6.7-4.84M46 879.92c16.15.598 19.75 1.394 29.49 3.617 23.61 5.385 39.983 10.07 59.23 14.92m-60.126.11c17.83 2.62 35.566 5.86 53.17 9.71M87.03 928.24c10.38-2.31 20.99-3.586 31.62-3.8m-17.89 36.538c9.866-2.645 19.19-7.3 27.228-13.6m-22.68 25.353c6.34-4.48 13.172-8.26 20.337-11.26m32.853-123.49c6.854 10.06 13.238 20.44 19.126 31.1m1.373-34.18c4.608 14.92 10.11 29.56 16.464 43.82m8.37-68.57c-1.59 20-.26 40.23 3.96 59.85m14.23-6.67c-.28 9.35 1.07 18.74 3.97 27.63m396.6-700.91c-.36.58.16 1.4.83 1.5.67.1 1.33-.35 1.69-.92.21-.33.35-.72.31-1.11-.06-.85-.99-1.49-1.84-1.36-.85.14-1.53 1-1.46 1.86.07.87.86 1.61 1.73 1.62.87.01 1.68-.72 1.76-1.59.04-.34-.04-.7-.26-.97-.44-.55-1.46-.45-1.79.18-.33.64.17 1.53.88 1.58.72.05 1.33-.76 1.09-1.44-.36-.3-.98-.29-1.27.09-.28.38.01 1.06.48 1.04m9.88.03c-.19.38-.02.87.31 1.14.33.26.78.34 1.2.33 1.43-.06 2.74-1.2 3-2.6.19-1.01-.25-2.2-1.21-2.55-.4-.15-.84-.14-1.26-.06-.83.16-1.63.61-2.11 1.32-.47.7-.59 1.67-.21 2.43.52 1.02 1.96 1.45 2.95.88 1-.56 1.36-2.02.75-2.99-.35-.55-1.04-.93-1.66-.74-.29.09-.54.29-.73.53-.61.78-.49 2.07.32 2.64.81.57 2.15.15 2.39-.8.24-.96-.89-1.98-1.78-1.57-.36.48-.54 1.1-.47 1.7.95.62-1.36 1.49-1.46.36zm-6.43-13.72c-.08.64.12 1.32.59 1.76.47.44 1.21.59 1.78.3.83-.42.98-1.72.3-2.35-.68-.62-1.94-.37-2.35.46-.42.83.09 1.97.98 2.23.68.2 1.49-.12 1.77-.76.29-.64-.08-1.51-.75-1.68-.68-.17-1.45.5-1.3 1.18.91.06 1.83-.13 2.64-.55m11.75-.56c-.08-.31-.58-.07-.69.24-.37.97.11 2.13.97 2.7.86.57 2 .6 2.97.25.4-.15.79-.36 1.05-.7.73-.94.09-2.4-.92-3-.86-.51-2.04-.59-2.83.03-.78.62-.9 2.01-.09 2.6.31.22.69.31 1.07.35.54.06 1.16-.01 1.5-.43.39-.48.21-1.26-.25-1.67-.46-.42-1.12-.55-1.74-.57-.31.36-.53.89-.3 1.32.23.42-.62-.63-.74-1.1zm-26.39-11.21c-.61.72-.73 1.8-.31 2.63.11.21.26.41.49.46.24.06.47-.07.66-.21.79-.6 1.22-1.69.93-2.64-.29-.95-1.36-1.63-2.32-1.38-.96.25-1.56 1.48-1.08 2.34.37.66 1.17.94 1.91 1.07.42.08.88.11 1.23-.13.52-.37.47-1.25-.02-1.67-.48-.42-1.22-.44-1.82-.21-.26.65.42 1.26 1.01 1.63m-251.12 10.66c10.06-.7 20.22 5.59 24.09 14.9" stroke-linecap="round" stroke-linejoin="round"/>
  </g>
</svg>
