<?xml version="1.0" encoding="UTF-8" standalone="no"?>
<svg width="176px" height="26px" viewBox="0 0 176 26" version="1.1" xmlns="http://www.w3.org/2000/svg" xmlns:xlink="http://www.w3.org/1999/xlink">
    <!-- Generator: Sketch 3.7 (28169) - http://www.bohemiancoding.com/sketch -->
    <title>Mask + Teambit Copy 5</title>
    <desc>Created with Sketch.</desc>
    <defs></defs>
    <g id="Marketing-Page" stroke="none" stroke-width="1" fill="none" fill-rule="evenodd">
        <g id="digest" transform="translate(-50.000000, -24.000000)">
            <g id="Header" transform="translate(50.000000, 11.000000)">
                <g id="Mask-+-Teambit-Copy-5" transform="translate(0.000000, 13.000000)">
                    <path d="M23.2416211,6.45621313 C23.0932994,6.22455786 22.9373333,5.99826739 22.7740787,5.77769757 C20.8738349,3.20024324 17.8579276,1.1240351 13.8195943,0.875028154 C13.5487286,0.856989519 13.2754344,0.847826087 13,0.847826087 C12.7413975,0.847826087 12.4846816,0.855903778 12.230091,0.87182061 C8.6539044,1.07648097 5.89405955,2.69856033 3.98941761,4.84604339 C2.86452443,6.08834969 1.99296385,7.56433717 1.45624739,9.19249431 C1.10176082,10.2302442 0.904174856,11.2639493 0.866419799,12.2263481 C1.47437468,14.9250917 5.3582097,21.1956522 13,21.1956522 C20.6417903,21.1956522 24.5635989,14.9309187 25.1443706,12.2263481 C25.1002907,10.4251102 24.4548768,8.34296448 23.2416211,6.45621313 Z M25.0856648,14.2790518 C24.4465219,20.3893074 19.2794745,25.1521739 13,25.1521739 C6.7205255,25.1521739 1.55347809,20.3893074 0.914335199,14.2790518 C3.00951276,18.8603743 7.6330295,22.0434783 13,22.0434783 C18.3669705,22.0434783 22.9904872,18.8603743 25.0856648,14.2790518 Z M13,26 C20.1797017,26 26,20.1797017 26,13 C26,5.82029825 20.1797017,0 13,0 C5.82029825,0 0,5.82029825 0,13 C0,20.1797017 5.82029825,26 13,26 Z M5.52196908,9.24092946 C5.45005894,9.03781781 5.55250254,8.80306361 5.7533931,8.72664242 C5.7533931,8.72664242 6.48135565,8.33695652 8.05434783,8.33695652 C9.62734,8.33695652 10.4861009,8.73785567 10.4861009,8.73785567 C10.6872247,8.812584 10.7808702,9.04375794 10.7006612,9.24092946 C10.6180358,9.44404112 10.3871534,9.54975236 10.1759738,9.48380056 C10.1759738,9.48380056 9.50678089,9.18478261 8.05434783,9.18478261 C6.60191476,9.18478261 6.01419319,9.47920435 6.01419319,9.47920435 C5.81425546,9.55072042 5.59177616,9.43810098 5.52196908,9.24092946 Z M15.4132734,9.24092946 C15.3413633,9.03781781 15.4438069,8.80306361 15.6446974,8.72664242 C15.6446974,8.72664242 16.37266,8.33695652 17.9456522,8.33695652 C19.5186444,8.33695652 20.3774053,8.73785567 20.3774053,8.73785567 C20.578529,8.812584 20.6721745,9.04375794 20.5919656,9.24092946 C20.5093401,9.44404112 20.2784577,9.54975236 20.0672782,9.48380056 C20.0672782,9.48380056 19.3980852,9.18478261 17.9456522,9.18478261 C16.4932191,9.18478261 15.9054975,9.47920435 15.9054975,9.47920435 C15.7055598,9.55072042 15.4830805,9.43810098 15.4132734,9.24092946 Z" id="Mask-Copy-38" fill="#4E3D1E"></path>
                    <path d="M128.696,13.341 C128.696,14.3990053 128.607834,15.3918287 128.4315,16.3195 C128.255166,17.2471713 127.937002,18.0598298 127.477,18.7575 C127.016998,19.4551702 126.388337,20.0033313 125.591,20.402 C124.793663,20.8006687 123.774006,21 122.532,21 L118.231,21 C118.046999,21 117.9205,20.9693336 117.8515,20.908 C117.7825,20.8466664 117.748,20.7470007 117.748,20.609 L117.748,6.142 C117.748,5.89666544 117.885999,5.774 118.162,5.774 L122.532,5.774 C123.758673,5.774 124.770663,5.96949805 125.568,6.3605 C126.365337,6.75150196 126.993998,7.28816326 127.454,7.9705 C127.914002,8.65283675 128.235999,9.4539954 128.42,10.374 C128.604001,11.2940046 128.696,12.2829947 128.696,13.341 L128.696,13.341 Z M126.81,13.525 C126.81,12.2369936 126.691168,11.1943373 126.4535,10.397 C126.215832,9.59966268 125.897669,8.97866889 125.499,8.534 C125.100331,8.08933111 124.644169,7.7903341 124.1305,7.637 C123.616831,7.4836659 123.084003,7.407 122.532,7.407 L119.542,7.407 L119.542,19.344 L122.371,19.344 C122.892336,19.344 123.413664,19.278834 123.935,19.1485 C124.456336,19.018166 124.931665,18.7498354 125.361,18.3435 C125.790335,17.9371646 126.139165,17.3506705 126.4075,16.584 C126.675835,15.8173295 126.81,14.797673 126.81,13.525 L126.81,13.525 Z M133.756,6.809 C133.756,7.10033479 133.698501,7.34566567 133.5835,7.545 C133.468499,7.74433433 133.196335,7.844 132.767,7.844 C132.322331,7.844 132.046334,7.74050104 131.939,7.5335 C131.831666,7.32649896 131.778,7.08500138 131.778,6.809 C131.778,6.51766521 131.843166,6.28000092 131.9735,6.096 C132.103834,5.91199908 132.368331,5.82 132.767,5.82 C133.181002,5.82 133.449333,5.90816578 133.572,6.0845 C133.694667,6.26083421 133.756,6.5023318 133.756,6.809 L133.756,6.809 Z M133.618,20.609 C133.618,20.869668 133.495335,21 133.25,21 L132.307,21 C132.030999,21 131.893,20.869668 131.893,20.609 L131.893,10.19 C131.893,10.0213325 131.9275,9.91400023 131.9965,9.868 C132.0655,9.82199977 132.168999,9.799 132.307,9.799 L133.25,9.799 C133.495335,9.799 133.618,9.92933203 133.618,10.19 L133.618,20.609 Z M141.162,9.569 C141.514668,9.569 141.882665,9.58433318 142.266,9.615 C142.649335,9.64566682 143.024998,9.68399977 143.393,9.73 C143.761002,9.77600023 144.113665,9.83349966 144.451,9.9025 C144.788335,9.97150034 145.094999,10.044333 145.371,10.121 C145.631668,10.197667 145.792666,10.3279991 145.854,10.512 C145.915334,10.6960009 145.946,10.8723325 145.946,11.041 L145.946,21.046 C145.946,21.6593364 145.9,22.2228308 145.808,22.7365 C145.716,23.2501692 145.516668,23.6948315 145.21,24.0705 C144.903332,24.4461685 144.45867,24.737499 143.876,24.9445 C143.29333,25.151501 142.511338,25.255 141.53,25.255 C141.238665,25.255 140.924335,25.2473334 140.587,25.232 C140.249665,25.2166666 139.916168,25.1898335 139.5865,25.1515 C139.256832,25.1131665 138.934835,25.0595003 138.6205,24.9905 C138.306165,24.9214997 138.026335,24.8333339 137.781,24.726 C137.627666,24.6646664 137.5395,24.5918338 137.5165,24.5075 C137.4935,24.4231662 137.497333,24.3350005 137.528,24.243 L137.62,23.737 C137.650667,23.5989993 137.712,23.5146668 137.804,23.484 C137.896,23.4533332 138.026332,23.4533332 138.195,23.484 C138.685669,23.560667 139.229997,23.6143332 139.828,23.645 C140.426003,23.6756668 140.962664,23.691 141.438,23.691 C141.974669,23.691 142.415498,23.6488338 142.7605,23.5645 C143.105502,23.4801662 143.381499,23.3460009 143.5885,23.162 C143.795501,22.9779991 143.941166,22.7441681 144.0255,22.4605 C144.109834,22.1768319 144.152,21.8356687 144.152,21.437 L144.152,20.517 C143.446663,20.777668 142.829503,20.9578328 142.3005,21.0575 C141.771497,21.1571672 141.300002,21.207 140.886,21.207 C139.996662,21.207 139.264503,21.0728347 138.6895,20.8045 C138.114497,20.5361653 137.658335,20.1490025 137.321,19.643 C136.983665,19.1369975 136.749834,18.5313369 136.6195,17.826 C136.489166,17.1206631 136.424,16.3310044 136.424,15.457 C136.424,14.521662 136.500666,13.689837 136.654,12.9615 C136.807334,12.233163 137.067998,11.6160025 137.436,11.11 C137.804002,10.6039975 138.29083,10.220668 138.8965,9.96 C139.50217,9.69933203 140.257329,9.569 141.162,9.569 L141.162,9.569 Z M138.264,15.25 C138.264,16.0626707 138.31,16.7449972 138.402,17.297 C138.494,17.8490028 138.643499,18.3013316 138.8505,18.654 C139.057501,19.0066684 139.321998,19.2596659 139.644,19.413 C139.966002,19.5663341 140.364664,19.643 140.84,19.643 C141.269335,19.643 141.782997,19.5970005 142.381,19.505 C142.979003,19.4129995 143.56933,19.2826675 144.152,19.114 L144.152,11.455 C143.707331,11.3936664 143.228169,11.3361669 142.7145,11.2825 C142.200831,11.2288331 141.698669,11.202 141.208,11.202 C140.793998,11.202 140.406835,11.2479995 140.0465,11.34 C139.686165,11.4320005 139.371835,11.6198319 139.1035,11.9035 C138.835165,12.1871681 138.628167,12.5934974 138.4825,13.1225 C138.336833,13.6515026 138.264,14.3606622 138.264,15.25 L138.264,15.25 Z M157.446,14.652 C157.461333,15.0200018 157.403834,15.3304987 157.2735,15.5835 C157.143166,15.8365013 156.863335,15.963 156.434,15.963 L149.948,15.963 C149.963333,16.6530034 150.024666,17.231831 150.132,17.6995 C150.239334,18.167169 150.415665,18.5428319 150.661,18.8265 C150.906335,19.1101681 151.216831,19.3094994 151.5925,19.4245 C151.968169,19.5395006 152.424331,19.597 152.961,19.597 C153.191001,19.597 153.451665,19.5855001 153.743,19.5625 C154.034335,19.5394999 154.325665,19.5165001 154.617,19.4935 C154.908335,19.4704999 155.188165,19.4436668 155.4565,19.413 C155.724835,19.3823332 155.958666,19.3516668 156.158,19.321 C156.311334,19.3056666 156.430166,19.3133332 156.5145,19.344 C156.598834,19.3746668 156.656333,19.4666659 156.687,19.62 L156.779,20.126 C156.825,20.3406677 156.740668,20.4939995 156.526,20.586 C156.311332,20.6780005 156.050668,20.762333 155.744,20.839 C155.437332,20.9156671 155.115335,20.9808331 154.778,21.0345 C154.440665,21.0881669 154.103335,21.1303332 153.766,21.161 C153.428665,21.1916668 153.122001,21.207 152.846,21.207 C151.787995,21.207 150.948503,21.0421683 150.3275,20.7125 C149.706497,20.3828317 149.235002,19.9496694 148.913,19.413 C148.590998,18.8763306 148.380167,18.2591702 148.2805,17.5615 C148.180833,16.8638298 148.131,16.1470037 148.131,15.411 C148.131,14.8589972 148.177,14.2418367 148.269,13.5595 C148.361,12.8771633 148.567998,12.2408363 148.89,11.6505 C149.212002,11.0601637 149.679664,10.5656687 150.293,10.167 C150.906336,9.76833134 151.741995,9.569 152.8,9.569 C153.781338,9.569 154.570997,9.71466521 155.169,10.006 C155.767003,10.2973348 156.230832,10.6806643 156.5605,11.156 C156.890168,11.6313357 157.112499,12.1756636 157.2275,12.789 C157.342501,13.4023364 157.415333,14.0233302 157.446,14.652 L157.446,14.652 Z M155.583,14.514 C155.583,14.1153313 155.5485,13.7128354 155.4795,13.3065 C155.4105,12.9001646 155.276334,12.5360016 155.077,12.214 C154.877666,11.8919984 154.594002,11.6313343 154.226,11.432 C153.857998,11.2326657 153.367336,11.133 152.754,11.133 C152.247997,11.133 151.822502,11.2134992 151.4775,11.3745 C151.132498,11.5355008 150.852668,11.7616652 150.638,12.053 C150.423332,12.3443348 150.262334,12.6969979 150.155,13.111 C150.047666,13.5250021 149.978667,13.9926641 149.948,14.514 L155.583,14.514 Z M167.405,17.78 C167.405,18.4240032 167.286168,18.9606645 167.0485,19.39 C166.810832,19.8193355 166.488835,20.1681653 166.0825,20.4365 C165.676165,20.7048347 165.216169,20.8964994 164.7025,21.0115 C164.188831,21.1265006 163.656003,21.184 163.104,21.184 C162.812665,21.184 162.506002,21.1763334 162.184,21.161 C161.861998,21.1456666 161.543835,21.1150002 161.2295,21.069 C160.915165,21.0229998 160.616168,20.9655003 160.3325,20.8965 C160.048832,20.8274997 159.799668,20.7470005 159.585,20.655 C159.385666,20.5629995 159.301333,20.4020012 159.332,20.172 L159.424,19.689 C159.454667,19.5356659 159.512166,19.4436668 159.5965,19.413 C159.680834,19.3823332 159.791999,19.3746666 159.93,19.39 C160.160001,19.4206668 160.424499,19.4513332 160.7235,19.482 C161.022501,19.5126668 161.321499,19.5394999 161.6205,19.5625 C161.919501,19.5855001 162.203165,19.6046666 162.4715,19.62 C162.739835,19.6353334 162.973666,19.643 163.173,19.643 C164.031671,19.643 164.648831,19.5088347 165.0245,19.2405 C165.400169,18.9721653 165.588,18.5466696 165.588,17.964 C165.588,17.626665 165.557334,17.3468344 165.496,17.1245 C165.434666,16.9021656 165.319668,16.7220007 165.151,16.584 C164.982332,16.4459993 164.752335,16.338667 164.461,16.262 C164.169665,16.1853329 163.794002,16.1086671 163.334,16.032 C162.812664,15.955333 162.310502,15.8556673 161.8275,15.733 C161.344498,15.6103327 160.919002,15.4340012 160.551,15.204 C160.182998,14.9739989 159.887834,14.6750018 159.6655,14.307 C159.443166,13.9389982 159.332,13.456003 159.332,12.858 C159.332,11.7846613 159.69233,10.9681695 160.413,10.4085 C161.13367,9.84883054 162.114994,9.569 163.357,9.569 C163.587001,9.569 163.847665,9.57666659 164.139,9.592 C164.430335,9.60733341 164.733165,9.63416648 165.0475,9.6725 C165.361835,9.71083353 165.672332,9.76449966 165.979,9.8335 C166.285668,9.90250034 166.561665,9.98299954 166.807,10.075 C167.021668,10.1823339 167.098334,10.3433323 167.037,10.558 L166.945,11.11 C166.914333,11.2326673 166.849167,11.3093332 166.7495,11.34 C166.649833,11.3706668 166.515668,11.3783334 166.347,11.363 C165.871664,11.3169998 165.373336,11.2671669 164.852,11.2135 C164.330664,11.1598331 163.824669,11.133 163.334,11.133 C162.475329,11.133 161.892668,11.263332 161.586,11.524 C161.279332,11.784668 161.126,12.213997 161.126,12.812 C161.126,13.1033348 161.164333,13.3333325 161.241,13.502 C161.317667,13.6706675 161.444166,13.8086661 161.6205,13.916 C161.796834,14.0233339 162.038332,14.1114997 162.345,14.1805 C162.651668,14.2495003 163.034998,14.3223329 163.495,14.399 C164.001003,14.475667 164.491664,14.5714994 164.967,14.6865 C165.442336,14.8015006 165.860165,14.9816654 166.2205,15.227 C166.580835,15.4723346 166.868332,15.7943313 167.083,16.193 C167.297668,16.5916687 167.405,17.1206634 167.405,17.78 L167.405,17.78 Z M175.846,20.287 C175.861333,20.4863343 175.792334,20.6319995 175.639,20.724 C175.500999,20.8006671 175.320834,20.8658331 175.0985,20.9195 C174.876166,20.9731669 174.638501,21.0191665 174.3855,21.0575 C174.132499,21.0958335 173.887168,21.1264999 173.6495,21.1495 C173.411832,21.1725001 173.208668,21.184 173.04,21.184 C172.549331,21.184 172.143002,21.1265006 171.821,21.0115 C171.498998,20.8964994 171.246001,20.7316677 171.062,20.517 C170.877999,20.3023323 170.747667,20.0455015 170.671,19.7465 C170.594333,19.4474985 170.556,19.1140018 170.556,18.746 L170.556,11.248 L169.291,11.248 C169.030332,11.248 168.9,11.117668 168.9,10.857 L168.9,10.213 C168.9,9.93699862 169.030332,9.799 169.291,9.799 L170.579,9.799 L170.579,7.315 C170.579,7.17699931 170.6135,7.07733364 170.6825,7.016 C170.7515,6.95466636 170.847333,6.90866682 170.97,6.878 L171.89,6.625 C172.150668,6.54833295 172.281,6.6633318 172.281,6.97 L172.281,9.799 L174.834,9.799 C175.002668,9.799 175.11,9.83349966 175.156,9.9025 C175.202,9.97150034 175.225,10.0673327 175.225,10.19 L175.225,10.857 C175.225,10.9950007 175.202,11.0946664 175.156,11.156 C175.11,11.2173336 175.002668,11.248 174.834,11.248 L172.281,11.248 L172.281,18.217 C172.281,18.4930014 172.300166,18.7153325 172.3385,18.884 C172.376834,19.0526675 172.457333,19.1906661 172.58,19.298 C172.702667,19.4053339 172.867499,19.4781665 173.0745,19.5165 C173.281501,19.5548335 173.561332,19.574 173.914,19.574 C174.036667,19.574 174.247499,19.5625001 174.5465,19.5395 C174.845501,19.5164999 175.079332,19.4973334 175.248,19.482 C175.432001,19.4666666 175.554666,19.4781665 175.616,19.5165 C175.677334,19.5548335 175.723333,19.6353327 175.754,19.758 L175.846,20.287 Z" id="Digest" fill="#30488F"></path>
                    <path d="M44.4034337,7.167018 C44.4034337,7.42325843 44.2652113,7.55137672 43.9887623,7.55137672 L40.1184956,7.55137672 L40.1184956,20.5291356 C40.1184956,20.7853761 39.9956312,20.9134943 39.7498987,20.9134943 L38.7592948,20.9134943 C38.4828458,20.9134943 38.3446233,20.7853761 38.3446233,20.5291356 L38.3446233,7.55137672 L34.4973939,7.55137672 C34.2209449,7.55137672 34.0827225,7.42325843 34.0827225,7.167018 L34.0827225,6.2852539 C34.0827225,6.04408644 34.2132659,5.92350452 34.4743566,5.92350452 L44.0117996,5.92350452 C44.2728903,5.92350452 44.4034337,6.04408644 44.4034337,6.2852539 L44.4034337,7.167018 Z M54.2403616,14.6733176 C54.2557198,15.0350688 54.1981272,15.3402918 54.0675818,15.5889957 C53.9370364,15.8376996 53.6567521,15.9620497 53.2267203,15.9620497 L46.7302012,15.9620497 C46.7455595,16.6403332 46.8069917,17.2093291 46.9144996,17.6690546 C47.0220075,18.1287801 47.1986251,18.4980622 47.4443575,18.7769121 C47.69009,19.055762 48.0010905,19.2517076 48.3773683,19.3647548 C48.7536461,19.4778021 49.210548,19.5343248 49.7480877,19.5343248 C49.9784619,19.5343248 50.2395487,19.5230203 50.531356,19.5004108 C50.8231633,19.4778014 51.1149662,19.4551923 51.4067734,19.4325828 C51.6985807,19.4099734 51.9788651,19.3835961 52.247635,19.3534502 C52.5164048,19.3233042 52.750615,19.2931587 52.9502727,19.2630128 C53.1038554,19.2479398 53.2228803,19.2554762 53.3073508,19.2856221 C53.3918214,19.3157681 53.449414,19.4062045 53.4801306,19.5569342 L53.5722798,20.0543396 C53.6183546,20.2653611 53.5338854,20.4160885 53.3188695,20.5065263 C53.1038536,20.5969641 52.8427668,20.6798642 52.5356012,20.755229 C52.2284357,20.8305938 51.9059167,20.894653 51.5680346,20.9474083 C51.2301524,21.0001637 50.8922754,21.0416138 50.5543933,21.0717597 C50.2165112,21.1019056 49.9093502,21.1169784 49.6329012,21.1169784 C48.57318,21.1169784 47.7323269,20.9549464 47.1103167,20.6308776 C46.4883064,20.3068089 46.0160464,19.881004 45.6935226,19.3534502 C45.3709988,18.8258963 45.1598256,18.2192186 45.0599968,17.5333986 C44.960168,16.8475786 44.9102543,16.142928 44.9102543,15.4194257 C44.9102543,14.8767989 44.9563285,14.2701211 45.0484782,13.5993741 C45.1406278,12.9286271 45.3479615,12.3031084 45.6704853,11.7227992 C45.9930091,11.14249 46.4614296,10.6563942 47.0757607,10.264497 C47.6900918,9.87259993 48.5271054,9.67665431 49.5868266,9.67665431 C50.5697564,9.67665431 51.3606958,9.81984534 51.9596687,10.1062317 C52.5586415,10.392618 53.0232225,10.7694365 53.3534254,11.2366985 C53.6836284,11.7039604 53.9063201,12.2390427 54.0215072,12.8419614 C54.1366943,13.44488 54.209645,14.055326 54.2403616,14.6733176 L54.2403616,14.6733176 Z M52.3743401,14.5376616 C52.3743401,14.1457644 52.3397845,13.750105 52.2706723,13.3506714 C52.20156,12.9512378 52.0671771,12.5932602 51.8675195,12.276728 C51.6678619,11.9601957 51.383738,11.7039591 51.0151393,11.5080105 C50.6465406,11.312062 50.1550831,11.2140892 49.540752,11.2140892 C49.0339288,11.2140892 48.607743,11.293221 48.2621818,11.4514872 C47.9166205,11.6097533 47.6363361,11.8320762 47.4213202,12.1184626 C47.2063043,12.404849 47.0450448,12.751522 46.9375369,13.1584921 C46.830029,13.5654621 46.7609177,14.0251807 46.7302012,14.5376616 L52.3743401,14.5376616 Z M63.5704688,19.6925902 C63.0022125,20.0241954 62.368693,20.340723 61.6698914,20.6421823 C60.9710897,20.9436416 60.1609527,21.094369 59.239456,21.094369 C58.1183018,21.094369 57.3196833,20.8305961 56.8435767,20.3030423 C56.36747,19.7754885 56.1294203,18.9992423 56.1294203,17.9742807 C56.1294203,16.6930785 56.4596183,15.7397277 57.1200243,15.1141996 C57.7804302,14.4886715 58.8785306,14.1759122 60.4143584,14.1759122 L63.5935061,14.1759122 L63.5935061,13.4071948 C63.5935061,12.5781816 63.397691,12.0054175 63.0060549,11.6888852 C62.6144188,11.3723529 61.9117881,11.2140892 60.8981418,11.2140892 C60.6831259,11.2140892 60.4412366,11.2178573 60.1724668,11.2253938 C59.9036969,11.2329303 59.6234125,11.2480031 59.3316053,11.2706125 C59.039798,11.293222 58.7479951,11.3158311 58.4561878,11.3384405 C58.1643805,11.36105 57.8956147,11.3874273 57.6498822,11.4175732 C57.3887915,11.4627921 57.235211,11.3949648 57.1891362,11.2140892 L57.0509124,10.6262464 C57.0201958,10.5207357 57.0317144,10.4302992 57.0854683,10.3549344 C57.1392223,10.2795696 57.2505681,10.2042059 57.4195092,10.128841 C57.6498834,10.0534762 57.9263282,9.98564887 58.2488521,9.92535701 C58.5713759,9.86506514 58.909253,9.81607874 59.2624933,9.77839632 C59.6157337,9.74071391 59.9651293,9.71433661 60.3106906,9.69926364 C60.6562518,9.68419068 60.9672523,9.67665431 61.2437013,9.67665431 C62.165198,9.67665431 62.8985447,9.77462712 63.4437636,9.97057568 C63.9889825,10.1665242 64.4036498,10.4378336 64.6877779,10.7845118 C64.9719061,11.13119 65.1523631,11.5532267 65.2291545,12.0506346 C65.3059459,12.5480425 65.344341,13.0981975 65.344341,13.7011161 L65.344341,18.6977794 C65.344341,18.9238739 65.3558595,19.0972104 65.378897,19.2177941 C65.4019344,19.3383779 65.4403295,19.4288143 65.4940835,19.4891062 C65.5478374,19.549398 65.6284672,19.5908481 65.7359751,19.6134575 C65.8434831,19.636067 65.9893845,19.6549079 66.1736839,19.6699809 C66.4347746,19.6850538 66.565318,19.7830266 66.565318,19.9639022 L66.565318,20.5291356 C66.565318,20.6346464 66.5346019,20.7213146 66.4731688,20.789143 C66.4117357,20.8569713 66.2888713,20.9059577 66.104572,20.9361037 C65.828123,20.9813226 65.5593571,21.0039317 65.2982664,21.0039317 C64.7607267,21.0039317 64.365257,20.9059589 64.1118454,20.7100103 C63.8584338,20.5140618 63.6933348,20.1749251 63.6165434,19.6925902 L63.5704688,19.6925902 Z M63.5935061,15.6003004 L60.2070227,15.6003004 C59.5005419,15.6003004 58.9399732,15.7585641 58.5252997,16.0750964 C58.1106262,16.3916287 57.9032925,17.0020747 57.9032925,17.9064526 C57.9032925,18.5395172 58.0299964,18.9690903 58.283408,19.1951848 C58.5368196,19.4212793 59.0014005,19.5343248 59.6771648,19.5343248 C59.9689721,19.5343248 60.2876515,19.496643 60.6332128,19.4212782 C60.9787741,19.3459133 61.3281696,19.2441723 61.68141,19.1160521 C62.0346504,18.9879319 62.376367,18.8485091 62.70657,18.6977794 C63.0367729,18.5470497 63.3324154,18.3963223 63.5935061,18.2455927 L63.5935061,15.6003004 Z M84.2810031,20.5291356 C84.2810031,20.7853761 84.1504597,20.9134943 83.8893689,20.9134943 L82.9218023,20.9134943 C82.6607115,20.9134943 82.5301681,20.7853761 82.5301681,20.5291356 L82.5301681,13.7237255 C82.5301681,13.2564635 82.5032915,12.8645723 82.4495376,12.54804 C82.3957836,12.2315077 82.2997958,11.9752711 82.1615713,11.7793226 C82.0233468,11.583374 81.8390502,11.4439512 81.6086761,11.3610498 C81.3783019,11.2781485 81.086499,11.2366985 80.7332586,11.2366985 C80.4568096,11.2366985 80.1534882,11.2856849 79.8232852,11.3836592 C79.4930822,11.4816335 79.1590447,11.5984472 78.8211625,11.7341039 C78.4832804,11.8697606 78.1607614,12.0129516 77.8535959,12.1636813 C77.5464303,12.3144109 77.2930225,12.4425292 77.0933649,12.54804 C77.1087232,12.6384778 77.1202417,12.7892052 77.1279209,13.0002267 C77.1356,13.2112482 77.1394395,13.4674848 77.1394395,13.7689441 L77.1394395,20.5291356 C77.1394395,20.7853761 77.0088961,20.9134943 76.7478054,20.9134943 L75.7341641,20.9134943 C75.5037899,20.9134943 75.3886046,20.7853761 75.3886046,20.5291356 L75.4116419,13.5654601 C75.4116419,12.8268848 75.2964565,12.2541207 75.0660824,11.8471506 C74.8357082,11.4401805 74.3672877,11.2366985 73.660807,11.2366985 C73.3997162,11.2366985 73.1155923,11.2781485 72.8084268,11.3610498 C72.5012612,11.4439512 72.1825817,11.5494603 71.8523788,11.6775806 C71.5221758,11.8057008 71.1958173,11.9451236 70.8732934,12.0958533 C70.5507696,12.2465829 70.2589667,12.389774 69.997876,12.5254307 L69.997876,20.5291356 C69.997876,20.7853761 69.8673326,20.9134943 69.6062418,20.9134943 L68.6386752,20.9134943 C68.3929427,20.9134943 68.2700783,20.7853761 68.2700783,20.5291356 L68.2700783,10.2871064 C68.2700783,10.030866 68.3929427,9.90274767 68.6386752,9.90274767 L69.5832045,9.90274767 C69.8596535,9.90274767 69.997876,10.030866 69.997876,10.2871064 L69.997876,11.0558238 L69.997876,11.0784331 C69.997876,11.0784331 70.005555,11.0784331 70.0209133,11.0784331 C70.2512874,10.9427765 70.5085347,10.7920491 70.7926629,10.6262464 C71.076791,10.4604438 71.383952,10.3059482 71.714155,10.162755 C72.0443579,10.0195619 72.3860745,9.90274812 72.7393149,9.81231032 C73.0925553,9.72187253 73.4534694,9.67665431 73.8220681,9.67665431 C74.6667734,9.67665431 75.3233299,9.81607715 75.7917574,10.094927 C76.2601848,10.3737769 76.5942224,10.7769727 76.79388,11.3045265 C77.3928528,10.8975564 78.0417303,10.5245061 78.740532,10.1853644 C79.4393336,9.84622263 80.1803594,9.67665431 80.9636316,9.67665431 C81.6854707,9.67665431 82.265237,9.77462712 82.7029479,9.97057568 C83.1406588,10.1665242 83.4746964,10.4416017 83.7050705,10.7958164 C83.9354447,11.1500311 84.0890252,11.5758361 84.1658166,12.0732439 C84.2426079,12.5706518 84.2810031,13.1208068 84.2810031,13.7237255 L84.2810031,20.5291356 Z M96.3295119,15.3289883 C96.3295119,16.2635122 96.2565612,17.0887447 96.1106575,17.8047106 C95.9647539,18.5206765 95.7113461,19.1235861 95.3504266,19.6134575 C94.989507,20.1033289 94.5057285,20.4763792 93.8990766,20.7326197 C93.2924246,20.9888601 92.5283617,21.1169784 91.606865,21.1169784 C91.2536246,21.1169784 90.881192,21.1056738 90.4895559,21.0830644 C90.0979198,21.0604549 89.7101291,21.0265412 89.3261722,20.9813224 C88.9422152,20.9361035 88.5813011,20.8795807 88.243419,20.8117523 C87.9055369,20.743924 87.6060549,20.6647921 87.3449642,20.5743543 C87.0838735,20.4839165 86.9264535,20.35203 86.8726995,20.1786909 C86.8189455,20.0053518 86.792069,19.8357835 86.792069,19.6699809 L86.792069,5.40348979 C86.792069,5.23768716 86.8189455,5.1284098 86.8726995,5.07565442 C86.9264535,5.02289903 87.0301203,4.99652174 87.1837031,4.99652174 L88.1512698,4.99652174 C88.3202108,4.99652174 88.4315567,5.02666722 88.4853106,5.08695908 C88.5390646,5.14725095 88.5659412,5.25276013 88.5659412,5.40348979 L88.5659412,10.3097157 L88.5889785,10.3549344 C89.280101,10.098694 89.8944229,9.92158927 90.4319626,9.82361499 C90.9695024,9.72564071 91.4456018,9.67665431 91.8602753,9.67665431 C92.7510555,9.67665431 93.4882418,9.80854078 94.0718563,10.0723177 C94.6554709,10.3360946 95.1123728,10.7166813 95.4425758,11.2140892 C95.7727787,11.711497 96.0031495,12.3068703 96.1336948,13.0002267 C96.2642402,13.6935832 96.3295119,14.4698293 96.3295119,15.3289883 L96.3295119,15.3289883 Z M94.4865278,15.5324724 C94.4865278,14.7486781 94.4442931,14.0817094 94.3598226,13.5315461 C94.2753521,12.9813828 94.1332901,12.536737 93.9336325,12.1975953 C93.7339749,11.8584535 93.4728881,11.6135215 93.1503642,11.4627919 C92.8278404,11.3120622 92.4285312,11.2366985 91.9524246,11.2366985 C91.4609597,11.2366985 90.923428,11.2781485 90.3398134,11.3610498 C89.7561989,11.4439512 89.1725931,11.5683013 88.5889785,11.7341039 L88.5889785,19.2630128 C89.0343686,19.3383776 89.5143075,19.3949004 90.0288099,19.4325828 C90.5433122,19.4702652 91.0462882,19.4891062 91.5377531,19.4891062 C91.9831432,19.4891062 92.3901314,19.4476561 92.7587301,19.3647548 C93.1273288,19.2818535 93.4383293,19.1009806 93.6917408,18.8221308 C93.9451524,18.5432809 94.1409675,18.1438533 94.279192,17.6238359 C94.4174165,17.1038186 94.4865278,16.4067044 94.4865278,15.5324724 L94.4865278,15.5324724 Z M100.913935,6.96353398 C100.913935,7.24992033 100.856342,7.49108417 100.741155,7.68703273 C100.625968,7.88298129 100.353363,7.9809541 99.923331,7.9809541 C99.4779409,7.9809541 99.201496,7.87921311 99.0939881,7.67572807 C98.9864802,7.47224302 98.932727,7.23484737 98.932727,6.96353398 C98.932727,6.67714762 98.9979987,6.44352015 99.1285441,6.26264456 C99.2590894,6.08176897 99.5240157,5.99133253 99.923331,5.99133253 C100.338004,5.99133253 100.60677,6.07800078 100.729637,6.25133989 C100.852503,6.424679 100.913935,6.66207466 100.913935,6.96353398 L100.913935,6.96353398 Z M100.775711,20.5291356 C100.775711,20.7853761 100.652847,20.9134943 100.407114,20.9134943 L99.4625849,20.9134943 C99.1861359,20.9134943 99.0479135,20.7853761 99.0479135,20.5291356 L99.0479135,10.2871064 C99.0479135,10.1213038 99.0824691,10.0157946 99.1515814,9.97057568 C99.2206936,9.92535678 99.3243604,9.90274767 99.4625849,9.90274767 L100.407114,9.90274767 C100.652847,9.90274767 100.775711,10.030866 100.775711,10.2871064 L100.775711,20.5291356 Z M109.990632,20.2126049 C110.00599,20.4085535 109.936879,20.5517445 109.783296,20.6421823 C109.645072,20.7175471 109.464615,20.7816063 109.24192,20.8343617 C109.019225,20.887117 108.781175,20.9323353 108.527763,20.9700177 C108.274352,21.0077001 108.028623,21.0378456 107.79057,21.060455 C107.552516,21.0830645 107.349022,21.094369 107.180081,21.094369 C106.688616,21.094369 106.281628,21.0378463 105.959104,20.924799 C105.63658,20.8117518 105.383172,20.6497198 105.198873,20.4386983 C105.014574,20.2276768 104.88403,19.9752084 104.807239,19.6812855 C104.730448,19.3873627 104.692052,19.0595306 104.692052,18.6977794 L104.692052,11.3271358 L103.425001,11.3271358 C103.16391,11.3271358 103.033367,11.1990176 103.033367,10.9427771 L103.033367,10.3097157 C103.033367,10.0384023 103.16391,9.90274767 103.425001,9.90274767 L104.71509,9.90274767 L104.71509,7.46093937 C104.71509,7.32528268 104.749645,7.22730987 104.818758,7.167018 C104.88787,7.10672614 104.983858,7.06150792 105.106724,7.03136199 L106.028216,6.78265929 C106.289307,6.70729446 106.41985,6.82034001 106.41985,7.12179933 L106.41985,9.90274767 L108.976991,9.90274767 C109.145932,9.90274767 109.253438,9.93666133 109.299513,10.0044897 C109.345588,10.072318 109.368625,10.1665227 109.368625,10.2871064 L109.368625,10.9427771 C109.368625,11.0784338 109.345588,11.1764066 109.299513,11.2366985 C109.253438,11.2969904 109.145932,11.3271358 108.976991,11.3271358 L106.41985,11.3271358 L106.41985,18.1777647 C106.41985,18.4490781 106.439048,18.6676328 106.477443,18.8334354 C106.515839,18.999238 106.596469,19.1348927 106.719335,19.2404035 C106.842201,19.3459142 107.0073,19.4175097 107.214637,19.4551922 C107.421974,19.4928746 107.702258,19.5117155 108.055498,19.5117155 C108.178365,19.5117155 108.389538,19.5004109 108.689024,19.4778015 C108.988511,19.4551921 109.222721,19.4363511 109.391662,19.4212782 C109.575961,19.4062052 109.698826,19.4175097 109.760259,19.4551922 C109.821692,19.4928746 109.867766,19.5720065 109.898483,19.6925902 L109.990632,20.2126049 Z" id="Teambit-Copy-5" fill="#4E3D1E"></path>
                </g>
            </g>
        </g>
    </g>
</svg>