<svg xmlns="http://www.w3.org/2000/svg" width="34" height="32" viewBox="0 0 34 32">
  <g fill="none" fill-rule="evenodd">
    <g fill="#3E4347">
      <ellipse cx="4.25" cy="2.207" rx="1.303" ry="2.207"/>
      <path d="M.51 1.103h2.663V3.31H.51"/>
      <ellipse cx=".51" cy="2.207" rx=".51" ry="1.103"/>
    </g>
    <ellipse cx="4.25" cy="2.207" fill="#83BF4F" rx=".51" ry="1.103"/>
    <ellipse cx="30.26" cy="28.138" fill="#3E4347" rx="3.74" ry="3.862"/>
    <path fill="#83BF4F" d="M4.25 1.103h7.423V3.31H4.25"/>
    <g fill="#3E4347" transform="translate(9.633)">
      <ellipse cx="1.53" cy="2.207" rx="1.303" ry="2.207"/>
      <path d="M2.04 1.103h3.74V3.31H2.04"/>
    </g>
    <ellipse cx="15.413" cy="2.207" fill="#94989B" rx=".793" ry="1.103"/>
    <path fill="#83BF4F" d="M14.903 27.034s-.963-4.413-5.326-4.413c-1.53 0-2.494-.99-2.947-1.71-.227-.38-.963-1.6-.963-1.6l-1.814 1.11 5.1 8.83H30.26v-2.21H14.903"/>
    <path fill="#D0D0D0" d="M32.13 28.138c0 1.048-.85 1.93-1.87 1.93s-1.87-.882-1.87-1.93.85-1.93 1.87-1.93 1.87.882 1.87 1.93"/>
    <path fill="#83BF4F" d="M30.26 24c1.757 0 3.173-.276 3.173-.607-.906-.662-1.983-1.048-3.173-1.048-3.06 0-5.553 2.593-5.553 5.793h1.586c0-2.262 1.814-4.138 3.967-4.138"/>
    <ellipse cx="30.26" cy="28.138" fill="#FFF" rx="1.247" ry="1.269"/>
    <path fill="#3E4347" d="M6.63 20.91c-.227-.386-.963-1.6-.963-1.6l-.794.497-.34 1.93 1.644 2.87.566-3.366c0-.16-.056-.22-.113-.33" opacity=".5"/>
    <path fill="#C7E755" d="M31.62 23.062c0 .166-1.927-.386-3.797.772-1.87 1.104-2.436 3.256-2.55 3.2-.17.056.227-2.427 2.267-3.696 2.097-1.324 4.193-.44 4.08-.276"/>
    <g fill="#3E4347">
      <path d="M2.607 24.386c.17-.055.34-.11.51-.11l.056-.442c.114-.662.227-.937.68-.993.454-.05-.85-.05-1.246 1.55" opacity=".5"/>
      <path d="M4.25 24.276H3.173C1.7 24.276.51 25.986.51 28.138S1.7 32 3.173 32H4.25c1.473 0 2.663-1.71 2.663-3.862s-1.19-3.862-2.663-3.862"/>
    </g>
    <path fill="#D0D0D0" d="M5.553 28.138c0 1.048-.566 1.93-1.303 1.93s-1.303-.882-1.303-1.93.566-1.93 1.303-1.93 1.303.882 1.303 1.93"/>
    <ellipse cx="4.25" cy="28.138" fill="#FFF" rx=".907" ry="1.269"/>
    <path fill="#FFF" d="M1.7 28.138c0 2.152 1.53 3.476 1.587 3.31.113-.11-1.134-1.38-1.077-3.31-.057-1.93 1.19-3.2 1.077-3.31-.057-.166-1.587 1.158-1.587 3.31" opacity=".25"/>
    <path fill="#83BF4F" d="M5.327 21.572l3.4-20.47H6.573L3.287 21.298c-.794.33-1.247 1.158-1.417 2.262l-.283 1.543c.396-.496.963-.827 1.53-.827l.056-.442c.114-.772.284-1.103 1.02-.937.284.055.284.662.114 1.434l-.624 3.59c-.056.39.17.778.567.83.397.058.737-.22.793-.604l.624-3.586c.34-1.215.396-2.43-.34-2.98"/>
    <g fill="#C7E755" transform="translate(3.4 1.103)">
      <path d="M1.077 21.297c.453-.166.906.44.51 2.482-.397 2.04-.51 1.49-.17-1 .226-1.49-.624-1.38-.34-1.49m1.076-9.93c-.85 4.913-1.586 8.89-1.756 8.89-.114 0 .453-4.03 1.303-8.94.85-4.91 1.587-8.88 1.757-8.88.113 0-.51 4.024-1.304 8.935"/>
      <ellipse cx="3.513" cy=".662" rx="2.663" ry=".276"/>
    </g>
  </g>
</svg>
